<svg width="41" height="40" viewBox="0 0 41 40" fill="none" xmlns="http://www.w3.org/2000/svg">
<g clip-path="url(#clip0_1942_193)">
<path d="M12.7766 16.8075L20.5453 9.04194L28.3172 16.8138L32.835 12.2929L20.5453 0L8.25562 12.2897L12.7766 16.8075Z" fill="#F3BA2F"/>
<path d="M0.540588 20.0014L5.0584 15.4805L9.57937 20.0014L5.0584 24.5192L0.540588 20.0014Z" fill="#F3BA2F"/>
<path d="M12.7766 23.1926L20.5453 30.9614L28.3172 23.1895L32.8382 27.7041L20.5485 39.997L8.25562 27.7136L12.7766 23.1926Z" fill="#F3BA2F"/>
<path d="M31.5018 20.0014L36.0196 15.4805L40.5406 19.9983L36.0196 24.5224L31.5018 20.0014Z" fill="#F3BA2F"/>
<path d="M25.1295 19.9984L20.5453 15.4111L17.1554 18.8011L16.7636 19.1897L15.9612 19.9921L20.5453 24.5731L25.1295 20.0016V19.9984Z" fill="#F3BA2F"/>
</g>
<defs>
<clipPath id="clip0_1942_193">
<rect width="40" height="40" fill="white" transform="translate(0.540588)"/>
</clipPath>
</defs>
</svg>
