<svg width="153" height="38" viewBox="0 0 153 38" fill="none" xmlns="http://www.w3.org/2000/svg">
<g clip-path="url(#clip0_1920_235)">
<path fill-rule="evenodd" clip-rule="evenodd" d="M31.5667 5.84419L31.7593 7.0479C31.9037 8.1553 31.9759 9.26271 31.9519 10.3942C31.9519 12.8738 31.663 15.3294 31.0852 17.7368C30.3148 20.9868 28.9667 24.0923 27.113 26.8849C24.9704 30.0627 21.8648 33.1683 17.363 35.7201L16.8093 36.0331L16.2556 35.7201C11.7537 33.2164 8.64815 30.0868 6.50556 26.8849C4.62778 24.0923 3.30371 21.0109 2.53334 17.7368C1.95556 15.3294 1.66667 12.8738 1.66667 10.3942C1.66667 9.28679 1.71482 8.1553 1.85927 7.0479L2.02778 5.84419C2.05186 5.7479 2.05186 5.6516 2.02778 5.5553C2.00371 5.45901 1.97964 5.36271 1.90741 5.29049C1.85927 5.21827 1.78704 5.14605 1.71482 5.0979C1.6426 5.04975 1.5463 5.02567 1.47408 5.0016C1.37778 4.97753 1.28149 4.97753 1.18519 5.0016C1.0889 5.02567 0.9926 5.07382 0.920378 5.12197C0.848155 5.17012 0.775932 5.24234 0.727784 5.31456C0.679636 5.41086 0.655562 5.50716 0.631488 5.60345L0.438896 6.80716C0.294452 7.98679 0.222229 9.19049 0.222229 10.3942C0.222229 12.9942 0.535193 15.5701 1.13704 18.0979C1.5463 19.8072 2.10001 21.4923 2.79815 23.1053C3.4963 24.7183 4.33889 26.259 5.32593 27.7275C7.58889 31.0979 10.863 34.396 15.5815 36.996L16.4722 37.5016C16.5926 37.5498 16.713 37.5738 16.8333 37.5738C16.9537 37.5738 17.0741 37.5498 17.1945 37.5016L18.0852 36.996C22.7796 34.372 26.0778 31.0738 28.3407 27.7275C30.3148 24.7905 31.7352 21.5164 32.5296 18.0979C33.1315 15.5701 33.4204 12.9942 33.4204 10.3942C33.4204 9.19049 33.3482 7.98679 33.2037 6.78308L33.0111 5.57938C32.987 5.48308 32.963 5.38678 32.9148 5.29049C32.8667 5.21827 32.7945 5.14605 32.7222 5.0979C32.65 5.04975 32.5537 5.0016 32.4574 4.97753C32.3611 4.95345 32.2648 4.95345 32.1685 4.97753C32.0722 5.0016 31.9759 5.02567 31.8796 5.07382C31.8074 5.12197 31.7352 5.19419 31.687 5.26642C31.6389 5.33864 31.5907 5.43493 31.5667 5.53123V5.84419Z" fill="black"/>
<path fill-rule="evenodd" clip-rule="evenodd" d="M6.07223 5.02598L16.8574 1.63154L27.8593 5.09821C27.9556 5.12228 28.0519 5.12228 28.1482 5.12228C28.2444 5.12228 28.3407 5.0982 28.437 5.05006C28.5333 5.00191 28.6056 4.95376 28.6778 4.85747C28.75 4.78524 28.7982 4.68895 28.7982 4.59265C28.8222 4.49635 28.8222 4.40006 28.8222 4.30376C28.8222 4.20747 28.7982 4.11117 28.75 4.01487C28.7019 3.91858 28.6537 3.84635 28.5815 3.77413C28.5093 3.70191 28.413 3.65376 28.3167 3.65376L17.0741 0.0907986C16.9296 0.0426505 16.7852 0.0426505 16.6407 0.0907986L5.66296 3.55746C5.56667 3.58154 5.49445 3.62969 5.39815 3.67783C5.32593 3.75006 5.25371 3.82228 5.22963 3.91857C5.18148 4.01487 5.15741 4.11117 5.15741 4.20746C5.15741 4.30376 5.15741 4.40006 5.18148 4.49636C5.20556 4.59265 5.25371 4.68895 5.30185 4.76117C5.35 4.83339 5.4463 4.90561 5.54259 4.95376C5.61482 5.00191 5.71111 5.02598 5.83148 5.02598C5.87963 5.05006 5.97593 5.05006 6.07223 5.02598Z" fill="black"/>
<path fill-rule="evenodd" clip-rule="evenodd" d="M0.751836 6.06087L16.1833 37.1646C16.2315 37.2849 16.3278 37.3812 16.4241 37.4535C16.6648 37.5979 16.9537 37.5979 17.1944 37.4535C17.3148 37.3812 17.4111 37.2849 17.4833 37.1646L26.8963 18.9886L26.9204 18.9646L32.9389 6.0368C32.987 5.9405 33.0111 5.8442 33.0111 5.74791C33.0111 5.65161 33.0111 5.55532 32.9629 5.45902C32.9389 5.36272 32.8907 5.26643 32.8185 5.1942C32.7704 5.12198 32.6741 5.04976 32.6018 5.00161C32.5296 4.95346 32.4333 4.92939 32.313 4.92939C32.2167 4.92939 32.1204 4.92939 32.0241 4.95346C31.9278 4.97754 31.8315 5.02569 31.7592 5.09791C31.687 5.17013 31.6148 5.24235 31.5907 5.33865L25.5722 18.2664L16.8092 35.1905L2.02776 5.33865C1.97961 5.26643 1.90739 5.17013 1.85924 5.09791C1.78702 5.02569 1.69072 4.97754 1.59443 4.95346C1.49813 4.90531 1.40184 4.90531 1.30554 4.92939C1.20924 4.92939 1.11295 4.95346 1.01665 5.00161C0.94443 5.04976 0.848133 5.12198 0.799985 5.1942C0.751837 5.26643 0.703689 5.36272 0.679614 5.45902C0.65554 5.55532 0.631467 5.65161 0.655541 5.74791C0.679615 5.86828 0.703687 5.96458 0.751836 6.06087Z" fill="black"/>
<path fill-rule="evenodd" clip-rule="evenodd" d="M8.14258 19.928H25.3315C25.4278 19.928 25.5241 19.9039 25.6204 19.8798C25.7167 19.8557 25.7889 19.7835 25.837 19.7113C25.9092 19.6391 25.9574 19.5668 25.9815 19.4705C26.0537 19.2779 26.0537 19.0854 25.9815 18.8928C25.9574 18.7965 25.8852 18.7242 25.837 18.652C25.7648 18.5798 25.6926 18.5317 25.6204 18.4835C25.5241 18.4594 25.4278 18.4354 25.3315 18.4354H8.14258C8.04629 18.4354 7.94999 18.4594 7.85369 18.4835C7.7574 18.5076 7.68518 18.5798 7.63703 18.652C7.56481 18.7242 7.51666 18.7965 7.49258 18.8928C7.42036 19.0854 7.42036 19.2779 7.49258 19.4705C7.51666 19.5668 7.56481 19.6391 7.63703 19.7113C7.70925 19.7835 7.78147 19.8317 7.85369 19.8798C7.94999 19.9039 8.04629 19.9039 8.14258 19.928ZM56.05 13.452H44.8796C44.7833 13.452 44.687 13.4761 44.5907 13.5002C44.4944 13.5242 44.4222 13.5965 44.3741 13.6687C44.3018 13.7409 44.2537 13.8131 44.2296 13.9094C44.2055 14.0057 44.1815 14.102 44.1815 14.1983V23.4668C44.1815 23.5631 44.2055 23.6594 44.2296 23.7557C44.2537 23.852 44.3018 23.9242 44.3741 23.9965C44.4463 24.0687 44.5185 24.1168 44.5907 24.165C44.687 24.1891 44.7833 24.2131 44.8796 24.2131H56.05V25.778H44.8796C44.7352 25.778 44.5907 25.7539 44.4463 25.7298C44.3018 25.7057 44.1574 25.6576 44.013 25.6094C43.8685 25.5613 43.7481 25.4891 43.6278 25.4168C43.5074 25.3205 43.4111 25.2242 43.2907 25.1279C43.0741 24.9113 42.9296 24.6705 42.8092 24.4057C42.7611 24.2613 42.7129 24.1168 42.6889 23.9724C42.6648 23.828 42.6407 23.6835 42.6407 23.5391V14.2224C42.6407 14.078 42.6648 13.9335 42.6889 13.7891C42.7129 13.6446 42.7611 13.5002 42.8092 13.3557C42.8574 13.2113 42.9296 13.0668 43.0018 12.9465C43.0741 12.8261 43.1704 12.7057 43.2907 12.6094C43.387 12.5131 43.5074 12.4168 43.6278 12.3205C43.7481 12.2483 43.8685 12.1761 44.013 12.1279C44.1574 12.0798 44.3018 12.0317 44.4463 12.0076C44.5907 11.9835 44.7352 11.9594 44.8796 11.9594H56.05V13.452ZM77.0185 11.8872V13.452H66.2574V18.0502H74.9V19.6391H66.2574V24.2372H77.0185V25.802H64.7648V11.8872H77.0185Z" fill="black"/>
<path d="M99.1908 14.2463V18.3148C99.1908 18.4593 99.1667 18.6037 99.1426 18.7482C99.1186 18.8926 99.0704 19.0371 99.0223 19.1815C98.9741 19.326 98.9019 19.4704 98.8297 19.5908C98.7334 19.7111 98.6612 19.8315 98.5408 19.9278C98.4445 20.0241 98.3241 20.1204 98.2037 20.2167C98.0834 20.2889 97.963 20.3611 97.8186 20.4093C97.6741 20.4574 97.5297 20.5056 97.3852 20.5537C97.2408 20.5778 97.0963 20.6019 96.9519 20.6019H94.9056L99.1186 25.7778H97.0963L92.9074 20.6019H87.9963C87.7556 20.6019 87.5149 20.5778 87.2741 20.5297V25.7778H85.7574V11.9111H96.976C97.1204 11.9111 97.2649 11.9352 97.4093 11.9593C97.5537 11.9834 97.6982 12.0315 97.8426 12.0797C97.9871 12.1278 98.1075 12.2 98.2278 12.2963C98.4686 12.4648 98.6612 12.6815 98.8297 12.9222C98.9019 13.0426 98.9741 13.1871 99.0223 13.3315C99.0704 13.4759 99.1186 13.6204 99.1426 13.7648C99.1667 13.9334 99.1908 14.1019 99.1908 14.2463ZM87.9723 19.0611H96.9519C97.0482 19.0611 97.1445 19.0371 97.2408 19.013C97.3371 18.9889 97.4093 18.9408 97.4574 18.8445C97.5297 18.7722 97.5778 18.7 97.6019 18.6037C97.626 18.5074 97.65 18.4111 97.65 18.3148V14.2463C97.65 14.0537 97.5778 13.8611 97.4574 13.7167C97.3371 13.5722 97.1445 13.4759 96.9519 13.4759H87.9723C87.876 13.4759 87.7797 13.5 87.6834 13.5241C87.5871 13.5482 87.5149 13.6204 87.4667 13.6926C87.3945 13.7648 87.3463 13.8371 87.3223 13.9334C87.2982 14.0296 87.2741 14.1259 87.2741 14.2222V18.2908C87.2741 18.4834 87.3463 18.676 87.5149 18.8204C87.6112 18.9648 87.8037 19.0611 87.9723 19.0611Z" fill="black"/>
<path fill-rule="evenodd" clip-rule="evenodd" d="M107.231 11.8872H120.665V13.452H114.718V25.778H113.202V13.452H107.231V11.8872ZM128.85 25.802V11.9113H130.367V25.802H128.85ZM150.565 11.8872H152.515L146.906 18.8446L152.539 25.802H150.565L145.557 19.6391H141.224V25.802H139.707V11.9113H141.248V18.0742H145.581L150.565 11.8872Z" fill="black"/>
</g>
<defs>
<clipPath id="clip0_1920_235">
<rect width="153" height="38" fill="white"/>
</clipPath>
</defs>
</svg>
