<svg width="101" height="100" viewBox="0 0 101 100" fill="none" xmlns="http://www.w3.org/2000/svg">
<g clip-path="url(#clip0_1942_230)">
<path d="M87.5254 59.7528C86.7339 60.2901 85.8099 60.6072 84.8509 60.6706C83.8918 60.734 82.9331 60.5415 82.0758 60.1133C80.0633 58.9932 78.9786 56.3667 78.9786 52.7874V41.818C78.9786 36.5521 76.8615 32.8055 73.3199 31.7883C67.3346 30.0631 62.8652 37.286 61.1401 40.0026L50.5547 56.8817V36.2817C50.437 31.5308 48.8688 28.6855 45.9023 27.8357C43.942 27.2692 41.0016 27.501 38.1396 31.8012L14.4726 69.2288C11.3236 63.2933 9.69081 56.6909 9.71565 49.9936C9.71565 27.4366 28.0115 9.08974 50.5547 9.08974C73.0978 9.08974 91.459 27.4366 91.459 49.9936V50.1094C91.459 50.1094 91.459 50.1867 91.459 50.2253C91.6812 54.5899 90.2436 58.0662 87.5385 59.7528H87.5254ZM100.594 50.0064V49.7876C100.411 22.2995 78.0377 0 50.5547 0C23.0716 0 0.567719 22.4282 0.567719 49.9936C0.567719 77.5589 22.9932 100 50.5547 100C63.1955 99.9994 75.3554 95.2259 84.5327 86.6615C85.4235 85.8347 85.9477 84.6953 85.9917 83.4904C86.0358 82.2854 85.5961 81.1118 84.7679 80.224C84.3716 79.7922 83.8926 79.4418 83.3583 79.193C82.824 78.9443 82.2451 78.802 81.6548 78.7745C81.0645 78.747 80.4746 78.8347 79.9188 79.0327C79.3631 79.2306 78.8526 79.5349 78.4166 79.9279C74.4656 83.6204 69.7978 86.4881 64.6937 88.359C59.5896 90.23 54.1544 91.0654 48.7144 90.8153C43.2744 90.5652 37.9417 89.2347 33.0367 86.9035C28.1316 84.5724 23.7553 81.2888 20.1704 77.2499L41.4721 43.5174V59.0833C41.4721 66.5637 44.4125 68.9842 46.8824 69.6923C49.3523 70.4004 53.1291 69.9112 57.0889 63.5767L68.8505 44.8178C69.2164 44.2127 69.5693 43.6977 69.8829 43.2471V52.7874C69.8829 59.7786 72.7319 65.3663 77.724 68.1215C79.994 69.3288 82.5519 69.9121 85.1295 69.8102C87.7071 69.7082 90.2093 68.9248 92.3738 67.5422C97.8625 64.0273 100.855 57.6671 100.542 50.0064H100.594Z" fill="#17181B"/>
</g>
<defs>
<clipPath id="clip0_1942_230">
<rect width="100" height="100" fill="white" transform="translate(0.567719)"/>
</clipPath>
</defs>
</svg>
