<svg width="32" height="32" viewBox="0 0 32 32" fill="none" xmlns="http://www.w3.org/2000/svg">
<path d="M5 2C3.35417 2 2 3.35417 2 5V21C2 22.6458 3.35417 24 5 24H8V25C8 26.6458 9.35417 28 11 28H27C28.6458 28 30 26.6458 30 25V9C30 7.35417 28.6458 6 27 6H24V5C24 3.35417 22.6458 2 21 2H5ZM5 4H21C21.5625 4 22 4.4375 22 5V21C22 21.5625 21.5625 22 21 22H5C4.4375 22 4 21.5625 4 21V5C4 4.4375 4.4375 4 5 4ZM24 8H27C27.5625 8 28 8.4375 28 9V25C28 25.5625 27.5625 26 27 26H11C10.4375 26 10 25.5625 10 25V24H21C22.6458 24 24 22.6458 24 21V8Z" fill="#535353"/>
</svg>
