<svg width="36" height="40" viewBox="0 0 36 40" fill="none" xmlns="http://www.w3.org/2000/svg">
<path d="M18.4519 0L0.944519 10V30L18.4519 40L35.9594 30V10L18.4519 0ZM18.4519 0L0.944519 10V30L18.4519 40L35.9594 30V10L18.4519 0Z" fill="white"/>
<path d="M25.3637 32.1875H22.8727L19.8904 29.4792V28.0903L22.9779 25.1736V20.5556L27.0127 17.9514L31.6088 21.3889L25.3637 32.1875ZM15.0487 24.8958L15.5048 20.5556L13.9962 16.6667H22.9077L21.4342 20.5556L21.8552 24.8958H18.4169H15.0487ZM17.0836 29.4792L14.1014 32.2222H11.5753L5.29506 21.3889L9.92629 17.9861L13.9962 20.5556V25.1736L17.0836 28.0903V29.4792ZM11.5402 8.64584H25.3286L26.9776 15.5903H9.92629L11.5402 8.64584ZM18.4519 0L0.944519 10V30L18.4519 40L35.9594 30V10L18.4519 0Z" fill="#03316C"/>
</svg>
