<svg width="88" height="100" viewBox="0 0 88 100" fill="none" xmlns="http://www.w3.org/2000/svg">
<g clip-path="url(#clip0_1942_234)">
<path fill-rule="evenodd" clip-rule="evenodd" d="M32.6969 5.70687C26.7787 8.80667 21.9367 11.4297 21.9378 11.5364C21.9404 11.8118 36.1416 19.0432 36.6457 19.0256C36.875 19.0178 38.5383 18.248 40.3418 17.315L43.6213 15.619L47.203 17.4701L50.7845 19.3215L56.6499 16.6715C65.4878 12.6784 66.4058 12.2408 66.2618 12.0938C66.0709 11.8987 62.9009 10.1865 54.3005 5.63383C50.1441 3.4335 46.1099 1.27614 45.3354 0.839601C44.561 0.403061 43.8217 0.0518933 43.6926 0.0586908C43.5634 0.0654883 38.6152 2.60719 32.6969 5.70687ZM6.73965 19.222L0.578864 22.4217V36.4645C0.578864 44.1881 0.659761 50.5072 0.758992 50.5072C0.857879 50.5072 3.889 49.186 7.49465 47.5713L14.0504 44.6355V29.8334L17.254 31.5883C19.7226 32.9394 22.1927 34.2878 24.6643 35.6333L28.871 37.9234L30.7428 37.0723C31.9168 36.5377 33.0884 35.9979 34.2576 35.4529C35.1611 35.0299 37.379 34.0254 39.1862 33.2204C40.9933 32.4151 42.6661 31.6053 42.9033 31.4207C43.2184 31.1755 39.3761 29.0406 28.6919 23.524C20.6383 19.3657 13.7905 15.9766 13.4747 15.9928C13.1589 16.0091 10.1282 17.462 6.73965 19.222ZM67.3722 20.1205C63.1763 22.0251 59.7403 23.6595 59.7364 23.7527C59.7328 23.8458 62.0197 25.213 64.8188 26.7905C67.6176 28.3684 69.9077 29.7437 69.9077 29.8472C69.9077 29.9506 67.431 31.1572 64.4042 32.5292C61.377 33.9008 53.7255 37.3751 47.4005 40.25L26.2076 49.882C20.8765 52.3052 16.0711 54.4892 15.529 54.7361C4.63999 59.6925 1.64703 61.0678 1.23601 61.3038C0.822701 61.5415 0.729085 62.9223 0.655521 69.8527L0.567749 78.1185L6.077 80.941L11.5861 83.7634L19.2254 80.2969C23.4271 78.3904 26.8647 76.7307 26.8647 76.6084C26.8647 76.4865 26.0883 75.9779 25.1397 75.4776C24.1907 74.9774 22.2318 73.87 20.7861 73.0162C19.3405 72.1624 17.899 71.3791 17.5825 71.2751C17.2661 71.1716 17.0119 70.9903 17.017 70.8721C17.0223 70.7543 20.3863 69.1476 24.4921 67.3016C32.4669 63.7165 38.5698 60.9534 51.6719 54.9958C57.5308 52.3324 63.3903 49.6706 69.2506 47.0105C74.4009 44.673 80.3892 41.9431 82.5578 40.9439L86.5007 39.1274L86.5883 30.7674L86.6765 22.4079L81.0887 19.5241C78.0153 17.9382 75.3883 16.6445 75.2506 16.6492C75.113 16.6536 71.5677 18.2155 67.3722 20.1205ZM85.0036 50.28C84.1802 50.6844 82.5538 51.4415 81.3894 51.9624C80.225 52.4833 78.0153 53.4857 76.4792 54.1905L73.6863 55.4713L73.6226 62.8106C73.5874 66.8471 73.4396 70.1318 73.2941 70.1105C72.9635 70.061 67.729 67.3618 62.4672 64.5269C58.6695 62.4811 58.431 62.3997 57.5386 62.8441C57.0227 63.1012 53.9391 64.4917 50.6863 65.9347C47.4333 67.3775 44.6659 68.6522 44.5357 68.7676C44.4059 68.8829 50.9527 72.4507 59.0846 76.6965L73.8694 84.4161L80.1852 81.131C83.6585 79.3245 86.6121 77.6766 86.7481 77.4693C87.0542 77.0033 87.028 49.4807 86.7215 49.5179C86.6003 49.5326 85.827 49.8756 85.0036 50.28ZM50.0291 82.5845C48.9336 83.0581 47.8383 83.5323 46.7434 84.0073C43.4369 85.4456 44.0849 85.4933 40.1512 83.5243C37.5312 82.213 36.4019 81.8083 35.9117 82.0048C35.544 82.152 32.3795 83.5835 28.8789 85.1858C25.3785 86.788 22.3931 88.0989 22.2446 88.0989C20.776 88.0989 23.2176 89.5657 32.6391 94.3443L43.6883 99.9479L48.3373 97.6401C50.8942 96.3708 56.0515 93.8291 59.7982 91.992C63.5446 90.1543 66.5635 88.6032 66.507 88.5447C66.4501 88.4864 63.3109 86.8656 59.5308 84.9429L52.6577 81.4476L50.0291 82.5845Z" fill="#05A3C9"/>
</g>
<defs>
<clipPath id="clip0_1942_234">
<rect width="86.4865" height="100" fill="white" transform="translate(0.567749)"/>
</clipPath>
</defs>
</svg>
