<svg width="27" height="40" viewBox="0 0 27 40" fill="none" xmlns="http://www.w3.org/2000/svg">
<g clip-path="url(#clip0_1942_211)">
<path d="M17.1408 12.3033C17.1408 6.56376 14.3741 1.61894 12.2549 0.000105128C12.2549 0.000105128 12.1077 -0.0881951 12.1077 0.147272C11.9311 11.2437 6.30931 14.2753 3.18937 18.3077C-3.96295 27.6675 2.689 37.9103 9.45869 39.7941C13.2556 40.8537 8.57568 37.9103 7.98702 31.7293C7.28061 24.2238 17.1408 18.5137 17.1408 12.3033Z" fill="#282E5B"/>
<path d="M20.8494 16.1002C20.82 16.0708 20.7611 16.0708 20.7023 16.1002C20.7023 16.1002 20.7023 16.1002 20.6728 16.1296C20.5551 17.513 19.0245 20.5152 17.1114 23.2525C10.6066 32.5535 14.3152 37.0274 16.405 39.4409C17.6117 40.8537 16.405 39.4409 19.4366 37.9987C19.6721 37.8809 25.3233 34.8787 25.9414 28.0796C26.5595 21.4571 22.3505 17.307 20.8494 16.1002Z" fill="#059BDC"/>
</g>
<defs>
<clipPath id="clip0_1942_211">
<rect width="25.9014" height="40" fill="white" transform="translate(0.128296)"/>
</clipPath>
</defs>
</svg>
