<svg width="38" height="40" viewBox="0 0 38 40" fill="none" xmlns="http://www.w3.org/2000/svg">
<g clip-path="url(#clip0_1942_206)">
<path d="M31.3319 24.3554L23.8365 31.8158L11.8712 19.979L23.8136 8.16135L31.3319 15.6445C32.6653 16.9665 34.8186 16.9665 36.1405 15.6329C37.4624 14.2994 37.4566 12.1463 36.129 10.8244L26.2462 0.987839C24.9128 -0.334065 22.7595 -0.328306 21.4376 0.999359C21.4322 1.0048 21.1965 1.20048 21.0912 1.30528L7.34083 14.9078V6.77769C7.34083 4.90171 5.81684 3.37773 3.94071 3.37773C2.06457 3.37773 0.546348 4.90171 0.540588 6.77769V33.1998C0.540588 35.0759 2.06457 36.5999 3.94071 36.5999C5.81684 36.5999 7.34083 35.0753 7.34083 33.1998V25.0517L21.0912 38.6543C21.1506 38.7133 21.3805 38.9431 21.4376 39.0007C22.7595 40.3287 24.9128 40.3341 26.2462 39.0122L36.129 29.1755C37.4569 27.8536 37.4624 25.7005 36.1405 24.3669C34.8128 23.0399 32.6596 23.0335 31.3319 24.3554Z" fill="#0097E8"/>
<path d="M23.8678 23.4321C25.7616 23.4321 27.2967 21.8969 27.2967 20.0031C27.2967 18.1094 25.7616 16.5742 23.8678 16.5742C21.9741 16.5742 20.4389 18.1094 20.4389 20.0031C20.4389 21.8969 21.9741 23.4321 23.8678 23.4321Z" fill="#0097E8"/>
</g>
<defs>
<clipPath id="clip0_1942_206">
<rect width="36.5877" height="40" fill="white" transform="translate(0.540588)"/>
</clipPath>
</defs>
</svg>
