<svg width="544" height="551" viewBox="0 0 544 551" fill="none" xmlns="http://www.w3.org/2000/svg">
<g clip-path="url(#clip0_1860_998)">
<path d="M195.205 533.991C61.41 481.551 -7.23531 322.931 42.1834 180.383C91.602 37.8355 240.657 -35.4818 374.45 16.9462C508.246 69.3728 576.891 227.998 527.473 370.546C478.054 513.098 328.999 586.418 195.205 533.991Z" fill="#D8672B"/>
<path d="M333.611 59.7673C221.75 15.934 97.1315 77.2327 55.8142 196.413C14.4968 315.593 71.8888 448.218 183.75 492.045C295.612 535.885 420.233 474.578 461.55 355.403C502.866 236.223 445.474 103.601 333.611 59.7673Z" fill="#DB6C2D"/>
<path d="M333.611 59.7673C221.75 15.934 97.1314 77.2326 55.8141 196.413C14.4968 315.593 71.8888 448.218 183.75 492.045C295.611 535.885 420.233 474.578 461.55 355.403C502.866 236.223 445.474 103.601 333.611 59.7673ZM169.058 534.431C35.2634 482.005 -33.3816 323.375 16.0368 180.826C65.4554 38.278 214.51 -35.0394 348.303 17.3886C482.099 69.8166 550.745 228.441 501.327 370.99C451.909 513.538 302.853 586.858 169.058 534.431Z" fill="#F7AF3D"/>
<path d="M30.8328 186.625C79.3368 46.7141 223.822 -26.4899 355.657 20.4181C353.226 19.3768 350.779 18.3581 348.303 17.3888C214.51 -35.0392 65.4554 38.2781 16.0368 180.826C-33.3816 323.375 35.2634 482.005 169.058 534.431C171.534 535.405 174.017 536.311 176.502 537.191C47.5674 481.925 -17.6707 326.535 30.8328 186.625Z" fill="#FFF2BD"/>
<path d="M333.611 59.7673C331.443 58.9179 329.27 58.1233 327.093 57.3513C434.701 103.673 489.111 233.457 448.595 350.327C408.079 467.191 287.459 528.391 177.315 489.391C179.442 490.311 181.582 491.205 183.75 492.045C295.611 535.885 420.233 474.578 461.55 355.403C502.866 236.223 445.474 103.601 333.611 59.7673Z" fill="#C9581E"/>
<path d="M56.1987 101.888C56.7348 101.415 57.7964 100.448 58.3219 99.9648C68.223 100.848 76.3583 107.217 85.7865 109.761C86.0913 128.533 85.8075 147.316 85.9442 166.098C77.0521 152.109 68.1495 137.993 61.9481 122.563C59.5727 116.94 58.1642 110.991 56.1987 105.22V101.888Z" fill="#C9581E"/>
<path d="M444.54 132.885C454.178 128.744 464.468 125.78 475.053 126.063V126.862C468.767 149.702 458.414 171.838 442.364 189.475C438.812 193.5 434.66 196.927 430.802 200.637C432.81 194.615 436.037 189.096 438.16 183.116C444.13 167.224 447.788 149.797 444.54 132.885Z" fill="#C9581E"/>
<path d="M236.942 296.316C241.767 294.687 248.252 295.381 251.247 299.963C253.265 303.012 250.932 306.848 247.968 308.193C242.933 310.674 235.481 310.159 232.202 305.124C229.952 301.456 233.442 297.388 236.942 296.316Z" fill="#C9581E"/>
<path d="M85.8078 153.832C85.7552 139.18 85.8498 124.539 85.7868 109.897C105.337 117.591 124.529 126.368 142.44 137.425C164.964 151.31 186.196 167.759 203.476 187.919C237.509 181.612 272.72 179.689 306.996 185.27C310.822 185.543 315.089 188.224 318.526 185.491C357.889 162.315 400.563 145.024 444.54 132.884C447.787 149.796 444.13 167.223 438.16 183.115C436.036 189.096 432.81 194.614 430.802 200.637C416.875 215.52 401.057 228.637 384.155 240.031C399.627 278.606 413.396 318.021 422.341 358.666C424.076 366.662 425.609 374.714 426.829 382.811C429.429 400.062 415.355 414.499 397.909 414.499H152.408C143.267 414.499 136.538 406.699 135.482 397.619V397.619C135.408 395.727 134.22 394.192 133.243 392.668C128.061 385.069 123.173 377.249 118.917 369.082C115.059 361.546 111.549 353.589 110.792 345.075C110.077 337.277 112.726 329.719 113.031 321.973C113.42 313.301 116.11 304.966 118.675 296.747C125.58 275.925 133.821 255.555 142.755 235.532C141.115 231.643 137.615 229.11 134.83 226.094C116.878 207.563 99.8817 187.971 85.4399 166.55C86.0495 162.336 85.7027 158.068 85.8078 153.832ZM236.942 296.316C233.442 297.388 229.952 301.456 232.202 305.124C235.481 310.159 242.933 310.674 247.968 308.193C250.932 306.848 253.265 303.011 251.247 299.963C248.251 295.381 241.766 294.687 236.942 296.316ZM138.004 309.822C130.3 310.968 122.89 316.991 122.207 325.095C121.387 333.367 128.145 340.598 135.776 342.648C144.142 345.107 154.317 342.774 159.509 335.437C163.167 330.413 163.188 323.066 159.53 318.052C154.842 311.315 145.919 308.403 138.004 309.822ZM350.489 310.001C342.932 311.41 335.47 315.982 332.453 323.318C329.951 329.099 331.37 336.089 335.459 340.787C343.248 349.826 357.143 351.813 367.864 347.325C374.433 344.634 380.203 338.832 381.086 331.559C381.906 325.462 378.847 319.408 374.181 315.614C367.664 310.285 358.688 308.477 350.489 310.001ZM235.512 330.749C230.572 332.063 226.168 335.784 224.791 340.808C222.857 346.936 224.581 353.421 227.619 358.855C229.301 362.019 230.131 366.423 233.999 367.653C240.831 370.186 248.293 369.45 255.441 369.639C261.043 369.439 267.633 370.27 272.048 366.044C277.293 361.094 277.597 353.274 277.009 346.558C276.536 342.269 276.221 337.203 272.542 334.323C268.411 331.401 263.177 330.455 258.216 330.276C250.7 329.446 242.891 328.689 235.512 330.749Z" fill="#C9581E"/>
<path d="M235.512 330.75C242.891 328.689 250.7 329.446 258.215 330.277C253.717 332.967 249.523 336.131 245.371 339.316C238.455 344.792 231.56 350.793 227.619 358.855C224.581 353.421 222.857 346.936 224.791 340.808C226.168 335.784 230.572 332.063 235.512 330.75Z" fill="#C9581E"/>
<path d="M138.004 309.822C145.918 308.403 154.842 311.315 159.53 318.052C163.187 323.066 163.166 330.413 159.509 335.437C154.316 342.774 144.142 345.107 135.775 342.647C128.145 340.598 121.386 333.366 122.206 325.095C122.889 316.991 130.299 310.968 138.004 309.822Z" fill="#C9581E"/>
<path d="M350.489 310.001C358.687 308.477 367.663 310.285 374.18 315.614C378.847 319.408 381.905 325.462 381.085 331.559C380.202 338.832 374.432 344.634 367.863 347.325C357.142 351.813 343.247 349.826 335.458 340.787C331.37 336.089 329.951 329.099 332.452 323.318C335.469 315.982 342.931 311.41 350.489 310.001Z" fill="#C9581E"/>
<path d="M258.215 330.277C263.176 330.455 268.41 331.401 272.541 334.323C276.22 337.203 276.535 342.269 277.008 346.558C277.597 353.274 277.292 361.094 272.047 366.045C267.632 370.27 261.042 369.44 255.44 369.639C248.293 369.45 240.83 370.186 233.998 367.653C230.13 366.423 229.3 362.019 227.618 358.855C231.559 350.794 238.454 344.792 245.371 339.316C249.522 336.131 253.716 332.967 258.215 330.277Z" fill="#C9581E"/>
<path d="M200.632 276.813L174.143 278.045C167.271 278.365 163.442 270.217 168.073 265.129C169.668 263.378 171.977 262.456 174.339 262.626L200.788 264.528C203.297 264.709 205.444 266.398 206.209 268.795C207.44 272.651 204.676 276.625 200.632 276.813Z" fill="#C9581E"/>
<rect x="171.741" y="265.409" width="13.2847" height="3.38969" rx="1.69485" fill="#C9581E"/>
<path d="M328.339 276.813L301.85 278.045C294.977 278.365 291.148 270.217 295.78 265.129C297.374 263.378 299.683 262.456 302.045 262.626L328.494 264.528C331.003 264.709 333.15 266.398 333.915 268.795C335.146 272.651 332.382 276.625 328.339 276.813Z" fill="#C9581E"/>
<rect x="299.447" y="265.409" width="13.2847" height="3.38969" rx="1.69485" fill="#C9581E"/>
<path d="M38.0527 88.5812C38.5888 88.1082 39.6504 87.1412 40.1759 86.6577C50.077 87.5406 58.2124 93.9101 67.6405 96.4537C67.9453 115.226 67.6615 134.009 67.7982 152.791C58.9061 138.802 50.0035 124.686 43.8021 109.256C41.4267 103.633 40.0182 97.6835 38.0527 91.9131V88.5812Z" fill="black"/>
<path d="M426.394 119.578C436.032 115.437 446.322 112.473 456.906 112.757V113.555C450.621 136.395 440.268 158.531 424.218 176.168C420.665 180.194 416.514 183.62 412.656 187.33C414.664 181.308 417.891 175.79 420.014 169.809C425.984 153.917 429.642 136.49 426.394 119.578Z" fill="black"/>
<path d="M218.795 283.009C223.62 281.38 230.105 282.074 233.101 286.656C235.119 289.704 232.785 293.541 229.821 294.886C224.787 297.367 217.334 296.852 214.055 291.817C211.806 288.149 215.295 284.081 218.795 283.009Z" fill="black"/>
<path d="M67.6618 140.525C67.6092 125.873 67.7038 111.232 67.6408 96.5903C87.1908 104.284 106.383 113.061 124.294 124.118C146.818 138.003 168.05 154.452 185.33 174.612C219.363 168.305 254.574 166.382 288.85 171.963C292.676 172.236 296.943 174.916 300.38 172.184C339.743 149.007 382.417 131.717 426.394 119.577C429.641 136.489 425.984 153.916 420.014 169.808C417.89 175.789 414.664 181.307 412.656 187.33C398.729 202.213 382.911 215.33 366.009 226.724C381.481 265.298 395.25 304.714 404.195 345.359C405.93 353.355 407.463 361.407 408.683 369.504C411.283 386.755 397.209 401.192 379.763 401.192H134.262C125.121 401.192 118.392 393.392 117.336 384.312V384.312C117.262 382.42 116.074 380.885 115.097 379.361C109.915 371.762 105.028 363.942 100.771 355.775C96.9132 348.239 93.4026 340.282 92.6458 331.768C91.9311 323.969 94.5798 316.412 94.8846 308.666C95.2735 299.994 97.9643 291.659 100.529 283.44C107.434 262.618 115.675 242.248 124.609 222.225C122.969 218.336 119.469 215.803 116.684 212.787C98.7316 194.256 81.7357 174.664 67.2939 153.243C67.9035 149.028 67.5567 144.761 67.6618 140.525ZM218.796 283.009C215.296 284.081 211.806 288.149 214.056 291.817C217.335 296.852 224.787 297.367 229.822 294.886C232.786 293.541 235.119 289.704 233.101 286.656C230.105 282.074 223.62 281.38 218.796 283.009ZM119.858 296.515C112.154 297.661 104.744 303.684 104.061 311.787C103.241 320.059 109.999 327.291 117.63 329.34C125.996 331.8 136.171 329.467 141.363 322.13C145.021 317.106 145.042 309.759 141.384 304.745C136.696 298.008 127.773 295.096 119.858 296.515ZM332.343 296.694C324.786 298.102 317.324 302.675 314.307 310.011C311.805 315.792 313.224 322.782 317.313 327.48C325.102 336.519 338.997 338.506 349.718 334.018C356.287 331.327 362.057 325.525 362.94 318.252C363.76 312.155 360.701 306.101 356.035 302.307C349.518 296.978 340.542 295.17 332.343 296.694ZM217.366 317.442C212.426 318.756 208.022 322.477 206.645 327.501C204.711 333.629 206.435 340.114 209.473 345.548C211.155 348.712 211.985 353.116 215.853 354.345C222.685 356.879 230.147 356.143 237.295 356.332C242.897 356.132 249.487 356.963 253.902 352.737C259.147 347.787 259.451 339.967 258.863 333.25C258.39 328.962 258.075 323.896 254.396 321.016C250.265 318.094 245.031 317.148 240.07 316.969C232.554 316.139 224.745 315.382 217.366 317.442Z" fill="#F7AF3D"/>
<path d="M217.366 317.442C224.745 315.382 232.554 316.139 240.069 316.969C235.571 319.66 231.377 322.824 227.225 326.009C220.309 331.485 213.414 337.486 209.473 345.548C206.435 340.114 204.711 333.629 206.645 327.501C208.022 322.477 212.426 318.756 217.366 317.442Z" fill="#211F1D"/>
<path d="M119.858 296.515C127.772 295.096 136.696 298.008 141.384 304.745C145.041 309.759 145.02 317.106 141.363 322.13C136.17 329.466 125.996 331.8 117.629 329.34C109.999 327.291 103.24 320.059 104.06 311.787C104.743 303.684 112.153 297.661 119.858 296.515Z" fill="#FF614C"/>
<path d="M332.343 296.694C340.542 295.17 349.518 296.978 356.035 302.307C360.701 306.101 363.76 312.155 362.94 318.252C362.057 325.525 356.287 331.327 349.718 334.018C338.997 338.506 325.101 336.519 317.313 327.48C313.224 322.782 311.805 315.792 314.307 310.011C317.323 302.675 324.786 298.103 332.343 296.694Z" fill="#FF614C"/>
<path d="M240.069 316.969C245.03 317.148 250.264 318.094 254.395 321.016C258.074 323.896 258.389 328.962 258.862 333.251C259.451 339.967 259.146 347.787 253.901 352.738C249.486 356.963 242.896 356.133 237.294 356.332C230.147 356.143 222.684 356.879 215.852 354.346C211.984 353.116 211.154 348.712 209.472 345.548C213.413 337.486 220.308 331.485 227.225 326.009C231.376 322.824 235.57 319.66 240.069 316.969Z" fill="#FF614C"/>
<path d="M182.486 263.506L155.997 264.738C149.125 265.057 145.296 256.909 149.927 251.822C151.522 250.071 153.831 249.148 156.193 249.318L182.642 251.221C185.151 251.402 187.298 253.091 188.063 255.487C189.294 259.344 186.53 263.318 182.486 263.506Z" fill="black"/>
<rect x="153.595" y="252.101" width="13.2847" height="3.38969" rx="1.69485" fill="#F7AF3D"/>
<path d="M310.193 263.506L283.704 264.738C276.831 265.057 273.002 256.909 277.634 251.822C279.228 250.071 281.537 249.148 283.899 249.318L310.348 251.221C312.857 251.402 315.004 253.091 315.769 255.487C317 259.344 314.236 263.318 310.193 263.506Z" fill="black"/>
<rect x="281.302" y="252.101" width="13.2847" height="3.38969" rx="1.69485" fill="#F7AF3D"/>
<path d="M66.5472 337.889C66.5472 337.889 294.164 274.216 234.076 150.607" stroke="#7B3A19" stroke-linecap="round"/>
</g>
<defs>
<clipPath id="clip0_1860_998">
<rect width="544" height="551" fill="white"/>
</clipPath>
</defs>
</svg>
