<svg width="556" height="512" viewBox="0 0 556 512" fill="none" xmlns="http://www.w3.org/2000/svg">
<path d="M11 20.44C11.68 19.84 13.0267 18.6133 13.6933 18C26.2533 19.12 36.5733 27.2 48.5333 30.4267C48.92 54.24 48.56 78.0667 48.7333 101.893C37.4533 84.1467 26.16 66.24 18.2933 46.6667C15.28 39.5333 13.4933 31.9867 11 24.6667V20.44Z" fill="#161414"/>
<path d="M503.627 59.7602C515.853 54.5068 528.907 50.7468 542.333 51.1068V52.1202C534.36 81.0935 521.227 109.173 500.867 131.547C496.36 136.653 491.093 141 486.2 145.707C488.747 138.067 492.84 131.067 495.533 123.48C503.107 103.32 507.747 81.2135 503.627 59.7602Z" fill="#161414"/>
<path d="M240.28 267.08C246.4 265.014 254.627 265.894 258.427 271.707C260.987 275.574 258.027 280.44 254.267 282.147C247.88 285.294 238.427 284.64 234.267 278.254C231.413 273.6 235.84 268.44 240.28 267.08Z" fill="#161414"/>
<path d="M48.5599 86.3334C48.4933 67.7468 48.6133 49.1734 48.5333 30.6001C73.3333 40.3601 97.6799 51.4934 120.4 65.5201C148.973 83.1334 175.907 104 197.827 129.573C241 121.573 285.667 119.133 329.147 126.213C334 126.56 339.413 129.96 343.773 126.493C393.707 97.0934 447.84 75.1601 503.627 59.7601C507.747 81.2134 503.107 103.32 495.533 123.48C492.84 131.067 488.747 138.067 486.2 145.707C468.533 164.587 448.467 181.227 427.027 195.68C446.653 244.613 464.12 294.613 475.467 346.173C479.505 364.787 482.683 383.639 484.123 402.64C484.719 410.497 478.365 417 470.486 417H111.6C112.093 409.88 112.4 402.693 111.573 395.587C111.48 393.187 109.973 391.24 108.733 389.307C102.16 379.667 95.9599 369.747 90.5599 359.387C85.6666 349.827 81.2133 339.733 80.2533 328.933C79.3466 319.04 82.7066 309.453 83.0933 299.627C83.5866 288.627 86.9999 278.053 90.2533 267.627C99.0133 241.213 109.467 215.373 120.8 189.973C118.72 185.04 114.28 181.827 110.747 178C87.9733 154.493 66.4133 129.64 48.0933 102.467C48.8666 97.1201 48.4266 91.7068 48.5599 86.3334ZM240.28 267.08C235.84 268.44 231.413 273.6 234.267 278.253C238.427 284.64 247.88 285.293 254.267 282.147C258.027 280.44 260.987 275.573 258.427 271.707C254.627 265.893 246.4 265.013 240.28 267.08ZM114.773 284.213C105 285.667 95.5999 293.307 94.7333 303.587C93.6933 314.08 102.267 323.253 111.947 325.853C122.56 328.973 135.467 326.013 142.053 316.707C146.693 310.333 146.72 301.013 142.08 294.653C136.133 286.107 124.813 282.413 114.773 284.213ZM384.32 284.44C374.733 286.227 365.267 292.027 361.44 301.333C358.267 308.667 360.067 317.533 365.253 323.493C375.133 334.96 392.76 337.48 406.36 331.787C414.693 328.373 422.013 321.013 423.133 311.787C424.173 304.053 420.293 296.373 414.373 291.56C406.107 284.8 394.72 282.507 384.32 284.44ZM238.467 310.76C232.2 312.427 226.613 317.147 224.867 323.52C222.413 331.293 224.6 339.52 228.453 346.413C230.587 350.427 231.64 356.013 236.547 357.573C245.213 360.787 254.68 359.853 263.747 360.093C270.853 359.84 279.213 360.893 284.813 355.533C291.467 349.253 291.853 339.333 291.107 330.813C290.507 325.373 290.107 318.947 285.44 315.293C280.2 311.587 273.56 310.387 267.267 310.16C257.733 309.107 247.827 308.147 238.467 310.76Z" fill="#FFD800"/>
<path d="M238.467 310.76C247.827 308.146 257.734 309.106 267.267 310.16C261.56 313.573 256.24 317.586 250.974 321.626C242.2 328.573 233.454 336.186 228.454 346.413C224.6 339.52 222.414 331.293 224.867 323.52C226.614 317.146 232.2 312.426 238.467 310.76Z" fill="#802D0E"/>
<path d="M114.773 284.213C124.813 282.413 136.133 286.107 142.08 294.653C146.72 301.013 146.693 310.333 142.053 316.707C135.467 326.013 122.56 328.973 111.947 325.853C102.267 323.253 93.6932 314.08 94.7332 303.587C95.5999 293.307 105 285.667 114.773 284.213Z" fill="#F26427"/>
<path d="M384.32 284.44C394.72 282.506 406.107 284.8 414.373 291.56C420.293 296.373 424.173 304.053 423.133 311.786C422.013 321.013 414.693 328.373 406.36 331.786C392.76 337.48 375.133 334.96 365.253 323.493C360.067 317.533 358.267 308.666 361.44 301.333C365.267 292.026 374.733 286.226 384.32 284.44Z" fill="#F26427"/>
<path d="M267.266 310.16C273.56 310.387 280.2 311.587 285.44 315.293C290.106 318.947 290.506 325.373 291.106 330.813C291.853 339.333 291.466 349.253 284.813 355.533C279.213 360.893 270.853 359.84 263.746 360.094C254.68 359.854 245.213 360.787 236.546 357.573C231.64 356.013 230.586 350.427 228.453 346.413C233.453 336.187 242.2 328.573 250.973 321.627C256.24 317.587 261.56 313.573 267.266 310.16Z" fill="#F0825C"/>
<path d="M194.22 242.339L160.618 243.902C151.9 244.307 147.042 233.971 152.918 227.518C154.94 225.297 157.87 224.126 160.866 224.341L194.418 226.755C197.601 226.984 200.323 229.127 201.294 232.167C202.856 237.059 199.35 242.1 194.22 242.339Z" fill="black"/>
<rect x="157.571" y="227.872" width="16.8523" height="4.29997" rx="2.14999" fill="#F8EADF"/>
<path d="M356.22 242.339L322.618 243.902C313.9 244.307 309.042 233.971 314.918 227.518C316.94 225.297 319.87 224.126 322.866 224.341L356.418 226.755C359.601 226.984 362.323 229.127 363.294 232.167C364.856 237.059 361.35 242.1 356.22 242.339Z" fill="black"/>
<rect x="319.571" y="227.872" width="16.8523" height="4.29997" rx="2.14999" fill="#F8EADF"/>
<path d="M44.2773 335.054C44.2773 335.054 341.146 252.009 262.776 90.7918" stroke="black" stroke-linecap="round"/>
<mask id="path-14-outside-1_1860_976" maskUnits="userSpaceOnUse" x="110" y="364" width="366" height="123" fill="black">
<rect fill="white" x="110" y="364" width="366" height="123"/>
<path d="M201.229 472.412C200.151 472.706 198.436 473 196.084 473.294C193.83 473.588 191.576 473.735 189.322 473.735C187.068 473.735 185.059 473.539 183.295 473.147C181.629 472.853 180.208 472.265 179.032 471.383C177.856 470.501 176.974 469.276 176.386 467.708C175.798 466.14 175.504 464.082 175.504 461.534V438.602H147.28V472.412C146.202 472.706 144.487 473 142.135 473.294C139.881 473.588 137.627 473.735 135.373 473.735C133.119 473.735 131.11 473.539 129.346 473.147C127.68 472.853 126.259 472.265 125.083 471.383C123.907 470.501 123.025 469.276 122.437 467.708C121.849 466.14 121.555 464.082 121.555 461.534V383.918C122.633 383.722 124.348 383.477 126.7 383.183C129.052 382.791 131.306 382.595 133.462 382.595C135.716 382.595 137.676 382.791 139.342 383.183C141.106 383.477 142.576 384.065 143.752 384.947C144.928 385.829 145.81 387.054 146.398 388.622C146.986 390.19 147.28 392.248 147.28 394.796V418.316H175.504V383.918C176.582 383.722 178.297 383.477 180.649 383.183C183.001 382.791 185.255 382.595 187.411 382.595C189.665 382.595 191.625 382.791 193.291 383.183C195.055 383.477 196.525 384.065 197.701 384.947C198.877 385.829 199.759 387.054 200.347 388.622C200.935 390.19 201.229 392.248 201.229 394.796V472.412ZM259.864 475.352C254.082 475.352 248.692 474.568 243.694 473C238.794 471.334 234.482 468.884 230.758 465.65C227.132 462.416 224.241 458.349 222.085 453.449C220.027 448.549 218.998 442.816 218.998 436.25C218.998 429.782 220.027 424.245 222.085 419.639C224.241 414.935 227.034 411.113 230.464 408.173C233.894 405.135 237.814 402.93 242.224 401.558C246.634 400.088 251.142 399.353 255.748 399.353C260.942 399.353 265.646 400.137 269.86 401.705C274.172 403.273 277.847 405.429 280.885 408.173C284.021 410.917 286.422 414.2 288.088 418.022C289.852 421.844 290.734 426.009 290.734 430.517C290.734 433.849 289.803 436.397 287.941 438.161C286.079 439.925 283.482 441.052 280.15 441.542L243.841 446.981C244.919 450.215 247.124 452.665 250.456 454.331C253.788 455.899 257.61 456.683 261.922 456.683C265.94 456.683 269.713 456.193 273.241 455.213C276.867 454.135 279.807 452.91 282.061 451.538C283.629 452.518 284.952 453.89 286.03 455.654C287.108 457.418 287.647 459.28 287.647 461.24C287.647 465.65 285.589 468.933 281.473 471.089C278.337 472.755 274.809 473.882 270.889 474.47C266.969 475.058 263.294 475.352 259.864 475.352ZM255.748 417.581C253.396 417.581 251.338 417.973 249.574 418.757C247.908 419.541 246.536 420.57 245.458 421.844C244.38 423.02 243.547 424.392 242.959 425.96C242.469 427.43 242.175 428.949 242.077 430.517L267.214 426.401C266.92 424.441 265.842 422.481 263.98 420.521C262.118 418.561 259.374 417.581 255.748 417.581ZM376.997 472.853C376.017 473.147 374.449 473.441 372.293 473.735C370.235 474.029 368.079 474.176 365.825 474.176C363.669 474.176 361.709 474.029 359.945 473.735C358.279 473.441 356.858 472.853 355.682 471.971C354.506 471.089 353.575 469.913 352.889 468.443C352.301 466.875 352.007 464.866 352.007 462.416V429.782C352.007 425.764 350.978 422.971 348.92 421.403C346.96 419.737 344.51 418.904 341.57 418.904C339.61 418.904 337.748 419.149 335.984 419.639C334.22 420.129 332.799 420.717 331.721 421.403V472.853C330.741 473.147 329.173 473.441 327.017 473.735C324.959 474.029 322.803 474.176 320.549 474.176C318.393 474.176 316.433 474.029 314.669 473.735C313.003 473.441 311.582 472.853 310.406 471.971C309.23 471.089 308.299 469.913 307.613 468.443C307.025 466.875 306.731 464.866 306.731 462.416V377.156C307.809 376.96 309.377 376.715 311.435 376.421C313.591 376.029 315.747 375.833 317.903 375.833C320.059 375.833 321.97 375.98 323.636 376.274C325.4 376.568 326.87 377.156 328.046 378.038C329.222 378.92 330.104 380.145 330.692 381.713C331.378 383.183 331.721 385.143 331.721 387.593V401.999C332.995 401.509 334.906 400.97 337.454 400.382C340.1 399.696 342.991 399.353 346.127 399.353C355.829 399.353 363.375 401.803 368.765 406.703C374.253 411.505 376.997 418.708 376.997 428.312V472.853ZM433.881 475.352C428.099 475.352 422.709 474.568 417.711 473C412.811 471.334 408.499 468.884 404.775 465.65C401.149 462.416 398.258 458.349 396.102 453.449C394.044 448.549 393.015 442.816 393.015 436.25C393.015 429.782 394.044 424.245 396.102 419.639C398.258 414.935 401.051 411.113 404.481 408.173C407.911 405.135 411.831 402.93 416.241 401.558C420.651 400.088 425.159 399.353 429.765 399.353C434.959 399.353 439.663 400.137 443.877 401.705C448.189 403.273 451.864 405.429 454.902 408.173C458.038 410.917 460.439 414.2 462.105 418.022C463.869 421.844 464.751 426.009 464.751 430.517C464.751 433.849 463.82 436.397 461.958 438.161C460.096 439.925 457.499 441.052 454.167 441.542L417.858 446.981C418.936 450.215 421.141 452.665 424.473 454.331C427.805 455.899 431.627 456.683 435.939 456.683C439.957 456.683 443.73 456.193 447.258 455.213C450.884 454.135 453.824 452.91 456.078 451.538C457.646 452.518 458.969 453.89 460.047 455.654C461.125 457.418 461.664 459.28 461.664 461.24C461.664 465.65 459.606 468.933 455.49 471.089C452.354 472.755 448.826 473.882 444.906 474.47C440.986 475.058 437.311 475.352 433.881 475.352ZM429.765 417.581C427.413 417.581 425.355 417.973 423.591 418.757C421.925 419.541 420.553 420.57 419.475 421.844C418.397 423.02 417.564 424.392 416.976 425.96C416.486 427.43 416.192 428.949 416.094 430.517L441.231 426.401C440.937 424.441 439.859 422.481 437.997 420.521C436.135 418.561 433.391 417.581 429.765 417.581Z"/>
</mask>
<path d="M201.229 472.412C200.151 472.706 198.436 473 196.084 473.294C193.83 473.588 191.576 473.735 189.322 473.735C187.068 473.735 185.059 473.539 183.295 473.147C181.629 472.853 180.208 472.265 179.032 471.383C177.856 470.501 176.974 469.276 176.386 467.708C175.798 466.14 175.504 464.082 175.504 461.534V438.602H147.28V472.412C146.202 472.706 144.487 473 142.135 473.294C139.881 473.588 137.627 473.735 135.373 473.735C133.119 473.735 131.11 473.539 129.346 473.147C127.68 472.853 126.259 472.265 125.083 471.383C123.907 470.501 123.025 469.276 122.437 467.708C121.849 466.14 121.555 464.082 121.555 461.534V383.918C122.633 383.722 124.348 383.477 126.7 383.183C129.052 382.791 131.306 382.595 133.462 382.595C135.716 382.595 137.676 382.791 139.342 383.183C141.106 383.477 142.576 384.065 143.752 384.947C144.928 385.829 145.81 387.054 146.398 388.622C146.986 390.19 147.28 392.248 147.28 394.796V418.316H175.504V383.918C176.582 383.722 178.297 383.477 180.649 383.183C183.001 382.791 185.255 382.595 187.411 382.595C189.665 382.595 191.625 382.791 193.291 383.183C195.055 383.477 196.525 384.065 197.701 384.947C198.877 385.829 199.759 387.054 200.347 388.622C200.935 390.19 201.229 392.248 201.229 394.796V472.412ZM259.864 475.352C254.082 475.352 248.692 474.568 243.694 473C238.794 471.334 234.482 468.884 230.758 465.65C227.132 462.416 224.241 458.349 222.085 453.449C220.027 448.549 218.998 442.816 218.998 436.25C218.998 429.782 220.027 424.245 222.085 419.639C224.241 414.935 227.034 411.113 230.464 408.173C233.894 405.135 237.814 402.93 242.224 401.558C246.634 400.088 251.142 399.353 255.748 399.353C260.942 399.353 265.646 400.137 269.86 401.705C274.172 403.273 277.847 405.429 280.885 408.173C284.021 410.917 286.422 414.2 288.088 418.022C289.852 421.844 290.734 426.009 290.734 430.517C290.734 433.849 289.803 436.397 287.941 438.161C286.079 439.925 283.482 441.052 280.15 441.542L243.841 446.981C244.919 450.215 247.124 452.665 250.456 454.331C253.788 455.899 257.61 456.683 261.922 456.683C265.94 456.683 269.713 456.193 273.241 455.213C276.867 454.135 279.807 452.91 282.061 451.538C283.629 452.518 284.952 453.89 286.03 455.654C287.108 457.418 287.647 459.28 287.647 461.24C287.647 465.65 285.589 468.933 281.473 471.089C278.337 472.755 274.809 473.882 270.889 474.47C266.969 475.058 263.294 475.352 259.864 475.352ZM255.748 417.581C253.396 417.581 251.338 417.973 249.574 418.757C247.908 419.541 246.536 420.57 245.458 421.844C244.38 423.02 243.547 424.392 242.959 425.96C242.469 427.43 242.175 428.949 242.077 430.517L267.214 426.401C266.92 424.441 265.842 422.481 263.98 420.521C262.118 418.561 259.374 417.581 255.748 417.581ZM376.997 472.853C376.017 473.147 374.449 473.441 372.293 473.735C370.235 474.029 368.079 474.176 365.825 474.176C363.669 474.176 361.709 474.029 359.945 473.735C358.279 473.441 356.858 472.853 355.682 471.971C354.506 471.089 353.575 469.913 352.889 468.443C352.301 466.875 352.007 464.866 352.007 462.416V429.782C352.007 425.764 350.978 422.971 348.92 421.403C346.96 419.737 344.51 418.904 341.57 418.904C339.61 418.904 337.748 419.149 335.984 419.639C334.22 420.129 332.799 420.717 331.721 421.403V472.853C330.741 473.147 329.173 473.441 327.017 473.735C324.959 474.029 322.803 474.176 320.549 474.176C318.393 474.176 316.433 474.029 314.669 473.735C313.003 473.441 311.582 472.853 310.406 471.971C309.23 471.089 308.299 469.913 307.613 468.443C307.025 466.875 306.731 464.866 306.731 462.416V377.156C307.809 376.96 309.377 376.715 311.435 376.421C313.591 376.029 315.747 375.833 317.903 375.833C320.059 375.833 321.97 375.98 323.636 376.274C325.4 376.568 326.87 377.156 328.046 378.038C329.222 378.92 330.104 380.145 330.692 381.713C331.378 383.183 331.721 385.143 331.721 387.593V401.999C332.995 401.509 334.906 400.97 337.454 400.382C340.1 399.696 342.991 399.353 346.127 399.353C355.829 399.353 363.375 401.803 368.765 406.703C374.253 411.505 376.997 418.708 376.997 428.312V472.853ZM433.881 475.352C428.099 475.352 422.709 474.568 417.711 473C412.811 471.334 408.499 468.884 404.775 465.65C401.149 462.416 398.258 458.349 396.102 453.449C394.044 448.549 393.015 442.816 393.015 436.25C393.015 429.782 394.044 424.245 396.102 419.639C398.258 414.935 401.051 411.113 404.481 408.173C407.911 405.135 411.831 402.93 416.241 401.558C420.651 400.088 425.159 399.353 429.765 399.353C434.959 399.353 439.663 400.137 443.877 401.705C448.189 403.273 451.864 405.429 454.902 408.173C458.038 410.917 460.439 414.2 462.105 418.022C463.869 421.844 464.751 426.009 464.751 430.517C464.751 433.849 463.82 436.397 461.958 438.161C460.096 439.925 457.499 441.052 454.167 441.542L417.858 446.981C418.936 450.215 421.141 452.665 424.473 454.331C427.805 455.899 431.627 456.683 435.939 456.683C439.957 456.683 443.73 456.193 447.258 455.213C450.884 454.135 453.824 452.91 456.078 451.538C457.646 452.518 458.969 453.89 460.047 455.654C461.125 457.418 461.664 459.28 461.664 461.24C461.664 465.65 459.606 468.933 455.49 471.089C452.354 472.755 448.826 473.882 444.906 474.47C440.986 475.058 437.311 475.352 433.881 475.352ZM429.765 417.581C427.413 417.581 425.355 417.973 423.591 418.757C421.925 419.541 420.553 420.57 419.475 421.844C418.397 423.02 417.564 424.392 416.976 425.96C416.486 427.43 416.192 428.949 416.094 430.517L441.231 426.401C440.937 424.441 439.859 422.481 437.997 420.521C436.135 418.561 433.391 417.581 429.765 417.581Z" fill="black"/>
<path d="M201.229 472.412L204.123 483.024L212.229 480.814V472.412H201.229ZM196.084 473.294L194.72 462.379L194.69 462.383L194.661 462.386L196.084 473.294ZM183.295 473.147L185.681 462.409L185.445 462.356L185.207 462.314L183.295 473.147ZM179.032 471.383L185.632 462.583L179.032 471.383ZM176.386 467.708L186.686 463.846L186.686 463.846L176.386 467.708ZM175.504 438.602H186.504V427.602H175.504V438.602ZM147.28 438.602V427.602H136.28V438.602H147.28ZM147.28 472.412L150.174 483.024L158.28 480.814V472.412H147.28ZM142.135 473.294L140.771 462.379L140.741 462.383L140.712 462.386L142.135 473.294ZM129.346 473.147L131.732 462.409L131.496 462.356L131.258 462.314L129.346 473.147ZM125.083 471.383L118.483 480.183L118.483 480.183L125.083 471.383ZM122.437 467.708L112.137 471.57L112.137 471.57L122.437 467.708ZM121.555 383.918L119.587 373.095L110.555 374.738V383.918H121.555ZM126.7 383.183L128.064 394.098L128.287 394.07L128.508 394.033L126.7 383.183ZM139.342 383.183L136.823 393.891L137.176 393.974L137.534 394.033L139.342 383.183ZM143.752 384.947L137.152 393.747L137.152 393.747L143.752 384.947ZM146.398 388.622L136.098 392.484L136.098 392.484L146.398 388.622ZM147.28 418.316H136.28V429.316H147.28V418.316ZM175.504 418.316V429.316H186.504V418.316H175.504ZM175.504 383.918L173.536 373.095L164.504 374.738V383.918H175.504ZM180.649 383.183L182.013 394.098L182.236 394.07L182.457 394.033L180.649 383.183ZM193.291 383.183L190.772 393.891L191.125 393.974L191.483 394.033L193.291 383.183ZM197.701 384.947L191.101 393.747L191.101 393.747L197.701 384.947ZM200.347 388.622L190.047 392.484L190.047 392.484L200.347 388.622ZM198.335 461.8C198.056 461.876 196.994 462.095 194.72 462.379L197.448 484.209C199.878 483.905 202.246 483.536 204.123 483.024L198.335 461.8ZM194.661 462.386C192.875 462.619 191.096 462.735 189.322 462.735V484.735C192.056 484.735 194.785 484.557 197.507 484.202L194.661 462.386ZM189.322 462.735C187.683 462.735 186.497 462.59 185.681 462.409L180.909 483.885C183.621 484.488 186.453 484.735 189.322 484.735V462.735ZM185.207 462.314C185.083 462.293 185.089 462.281 185.186 462.321C185.288 462.364 185.449 462.446 185.632 462.583L172.432 480.183C175.184 482.247 178.274 483.431 181.383 483.98L185.207 462.314ZM185.632 462.583C185.959 462.828 186.223 463.108 186.415 463.375C186.602 463.634 186.674 463.816 186.686 463.846L166.086 471.57C167.306 474.823 169.352 477.873 172.432 480.183L185.632 462.583ZM186.686 463.846C186.729 463.96 186.674 463.854 186.614 463.433C186.555 463.019 186.504 462.399 186.504 461.534H164.504C164.504 464.785 164.859 468.298 166.086 471.57L186.686 463.846ZM186.504 461.534V438.602H164.504V461.534H186.504ZM175.504 427.602H147.28V449.602H175.504V427.602ZM136.28 438.602V472.412H158.28V438.602H136.28ZM144.386 461.8C144.107 461.876 143.045 462.095 140.771 462.379L143.499 484.209C145.929 483.905 148.297 483.536 150.174 483.024L144.386 461.8ZM140.712 462.386C138.926 462.619 137.147 462.735 135.373 462.735V484.735C138.107 484.735 140.836 484.557 143.558 484.202L140.712 462.386ZM135.373 462.735C133.734 462.735 132.548 462.59 131.732 462.409L126.96 483.885C129.672 484.488 132.504 484.735 135.373 484.735V462.735ZM131.258 462.314C131.134 462.293 131.14 462.281 131.237 462.321C131.339 462.364 131.5 462.446 131.683 462.583L118.483 480.183C121.235 482.247 124.325 483.431 127.434 483.98L131.258 462.314ZM131.683 462.583C132.01 462.828 132.274 463.108 132.466 463.375C132.653 463.634 132.725 463.816 132.737 463.846L112.137 471.57C113.357 474.823 115.403 477.873 118.483 480.183L131.683 462.583ZM132.737 463.846C132.78 463.96 132.725 463.854 132.665 463.433C132.606 463.019 132.555 462.399 132.555 461.534H110.555C110.555 464.785 110.91 468.298 112.137 471.57L132.737 463.846ZM132.555 461.534V383.918H110.555V461.534H132.555ZM123.523 394.741C124.28 394.603 125.738 394.389 128.064 394.098L125.336 372.268C122.958 372.565 120.986 372.841 119.587 373.095L123.523 394.741ZM128.508 394.033C130.325 393.731 131.972 393.595 133.462 393.595V371.595C130.64 371.595 127.779 371.851 124.892 372.333L128.508 394.033ZM133.462 393.595C135.118 393.595 136.195 393.743 136.823 393.891L141.861 372.475C139.157 371.839 136.314 371.595 133.462 371.595V393.595ZM137.534 394.033C137.735 394.067 137.768 394.092 137.682 394.058C137.589 394.021 137.394 393.928 137.152 393.747L150.352 376.147C147.493 374.002 144.281 372.854 141.15 372.333L137.534 394.033ZM137.152 393.747C136.825 393.502 136.561 393.222 136.369 392.955C136.182 392.696 136.109 392.514 136.098 392.484L156.698 384.76C155.478 381.507 153.432 378.457 150.352 376.147L137.152 393.747ZM136.098 392.484C136.055 392.37 136.11 392.476 136.17 392.897C136.229 393.311 136.28 393.931 136.28 394.796H158.28C158.28 391.545 157.925 388.032 156.698 384.76L136.098 392.484ZM136.28 394.796V418.316H158.28V394.796H136.28ZM147.28 429.316H175.504V407.316H147.28V429.316ZM186.504 418.316V383.918H164.504V418.316H186.504ZM177.472 394.741C178.229 394.603 179.687 394.389 182.013 394.098L179.285 372.268C176.907 372.565 174.935 372.841 173.536 373.095L177.472 394.741ZM182.457 394.033C184.274 393.731 185.921 393.595 187.411 393.595V371.595C184.589 371.595 181.728 371.851 178.841 372.333L182.457 394.033ZM187.411 393.595C189.067 393.595 190.144 393.743 190.772 393.891L195.81 372.475C193.106 371.839 190.263 371.595 187.411 371.595V393.595ZM191.483 394.033C191.684 394.067 191.717 394.092 191.631 394.058C191.538 394.021 191.343 393.928 191.101 393.747L204.301 376.147C201.442 374.002 198.23 372.854 195.099 372.333L191.483 394.033ZM191.101 393.747C190.774 393.502 190.51 393.222 190.318 392.955C190.131 392.696 190.058 392.514 190.047 392.484L210.647 384.76C209.427 381.507 207.381 378.457 204.301 376.147L191.101 393.747ZM190.047 392.484C190.004 392.37 190.059 392.476 190.119 392.897C190.178 393.311 190.229 393.931 190.229 394.796H212.229C212.229 391.545 211.874 388.032 210.647 384.76L190.047 392.484ZM190.229 394.796V472.412H212.229V394.796H190.229ZM243.694 473L240.153 483.415L240.276 483.457L240.401 483.496L243.694 473ZM230.758 465.65L223.436 473.859L223.49 473.908L223.545 473.955L230.758 465.65ZM222.085 453.449L211.943 457.709L211.979 457.794L212.016 457.879L222.085 453.449ZM222.085 419.639L212.085 415.056L212.063 415.104L212.042 415.152L222.085 419.639ZM230.464 408.173L237.622 416.525L237.69 416.467L237.757 416.407L230.464 408.173ZM242.224 401.558L245.491 412.061L245.597 412.029L245.702 411.994L242.224 401.558ZM269.86 401.705L266.024 412.014L266.062 412.029L266.1 412.043L269.86 401.705ZM280.885 408.173L273.511 416.336L273.576 416.394L273.641 416.451L280.885 408.173ZM288.088 418.022L278.004 422.417L278.051 422.525L278.1 422.632L288.088 418.022ZM287.941 438.161L280.375 430.176L280.375 430.176L287.941 438.161ZM280.15 441.542L278.549 430.659L278.535 430.661L278.52 430.663L280.15 441.542ZM243.841 446.981L242.211 436.102L229.266 438.042L233.405 450.46L243.841 446.981ZM250.456 454.331L245.536 464.17L245.653 464.228L245.772 464.284L250.456 454.331ZM273.241 455.213L276.185 465.812L276.28 465.785L276.375 465.757L273.241 455.213ZM282.061 451.538L287.891 442.21L282.137 438.614L276.341 442.142L282.061 451.538ZM286.03 455.654L295.416 449.918L295.416 449.918L286.03 455.654ZM281.473 471.089L276.369 461.345L276.34 461.36L276.312 461.375L281.473 471.089ZM270.889 474.47L269.257 463.592L269.257 463.592L270.889 474.47ZM249.574 418.757L245.106 408.705L244.997 408.753L244.89 408.804L249.574 418.757ZM245.458 421.844L253.566 429.277L253.714 429.116L253.855 428.949L245.458 421.844ZM242.959 425.96L232.659 422.098L232.588 422.288L232.523 422.481L242.959 425.96ZM242.077 430.517L231.098 429.831L230.237 443.602L243.854 441.372L242.077 430.517ZM267.214 426.401L268.991 437.256L279.702 435.503L278.092 424.769L267.214 426.401ZM263.98 420.521L271.955 412.945L271.955 412.945L263.98 420.521ZM259.864 464.352C255.084 464.352 250.814 463.705 246.986 462.504L240.401 483.496C246.569 485.431 253.08 486.352 259.864 486.352V464.352ZM247.235 462.585C243.616 461.355 240.566 459.599 237.97 457.345L223.545 473.955C228.397 478.169 233.971 481.313 240.153 483.415L247.235 462.585ZM238.079 457.441C235.744 455.358 233.74 452.625 232.153 449.019L212.016 457.879C214.741 464.073 218.519 469.474 223.436 473.859L238.079 457.441ZM232.226 449.189C230.851 445.915 229.998 441.687 229.998 436.25H207.998C207.998 443.945 209.202 451.183 211.943 457.709L232.226 449.189ZM229.998 436.25C229.998 430.909 230.852 426.982 232.128 424.126L212.042 415.152C209.201 421.508 207.998 428.655 207.998 436.25H229.998ZM232.084 424.222C233.673 420.755 235.565 418.288 237.622 416.525L223.305 399.821C218.502 403.938 214.808 409.115 212.085 415.056L232.084 424.222ZM237.757 416.407C240.011 414.411 242.557 412.974 245.491 412.061L238.956 391.055C233.071 392.886 227.776 395.859 223.17 399.939L237.757 416.407ZM245.702 411.994C249.001 410.894 252.335 410.353 255.748 410.353V388.353C249.948 388.353 244.266 389.282 238.745 391.122L245.702 411.994ZM255.748 410.353C259.832 410.353 263.211 410.968 266.024 412.014L273.696 391.396C268.08 389.306 262.051 388.353 255.748 388.353V410.353ZM266.1 412.043C269.239 413.184 271.646 414.652 273.511 416.336L288.258 400.01C284.047 396.206 279.104 393.362 273.619 391.367L266.1 412.043ZM273.641 416.451C275.555 418.126 276.986 420.083 278.004 422.417L298.171 413.627C295.857 408.317 292.486 403.708 288.128 399.895L273.641 416.451ZM278.1 422.632C279.151 424.908 279.734 427.486 279.734 430.517H301.734C301.734 424.532 300.553 418.78 298.075 413.412L278.1 422.632ZM279.734 430.517C279.734 431.179 279.639 431.328 279.703 431.152C279.738 431.058 279.807 430.901 279.93 430.711C280.055 430.519 280.207 430.335 280.375 430.176L295.506 446.146C300.166 441.732 301.734 435.92 301.734 430.517H279.734ZM280.375 430.176C280.601 429.962 280.337 430.396 278.549 430.659L281.75 452.425C286.627 451.708 291.556 449.888 295.506 446.146L280.375 430.176ZM278.52 430.663L242.211 436.102L245.47 457.86L281.779 452.421L278.52 430.663ZM233.405 450.46C235.496 456.732 239.861 461.332 245.536 464.17L255.375 444.492C254.781 444.195 254.549 443.963 254.479 443.885C254.423 443.823 254.354 443.735 254.276 443.502L233.405 450.46ZM245.772 464.284C250.799 466.65 256.265 467.683 261.922 467.683V445.683C258.954 445.683 256.776 445.148 255.139 444.378L245.772 464.284ZM261.922 467.683C266.839 467.683 271.61 467.082 276.185 465.812L270.297 444.614C267.815 445.304 265.04 445.683 261.922 445.683V467.683ZM276.375 465.757C280.552 464.515 284.452 462.96 287.78 460.934L276.341 442.142C275.162 442.86 273.181 443.755 270.106 444.669L276.375 465.757ZM276.231 460.866C276.233 460.867 276.238 460.871 276.249 460.879C276.259 460.888 276.28 460.906 276.311 460.937C276.37 460.999 276.488 461.136 276.644 461.39L295.416 449.918C293.554 446.871 291.07 444.197 287.891 442.21L276.231 460.866ZM276.644 461.39C276.676 461.444 276.689 461.472 276.691 461.475C276.692 461.478 276.685 461.463 276.676 461.432C276.667 461.401 276.659 461.364 276.653 461.324C276.648 461.285 276.647 461.256 276.647 461.24H298.647C298.647 457.143 297.489 453.31 295.416 449.918L276.644 461.39ZM276.647 461.24C276.647 461.484 276.619 461.552 276.634 461.493C276.642 461.466 276.657 461.417 276.684 461.355C276.711 461.293 276.745 461.228 276.783 461.167C276.821 461.106 276.857 461.06 276.883 461.029C276.909 460.999 276.919 460.992 276.902 461.007C276.87 461.036 276.717 461.162 276.369 461.345L286.577 480.833C290.016 479.031 293.171 476.446 295.423 472.852C297.696 469.227 298.647 465.219 298.647 461.24H276.647ZM276.312 461.375C274.398 462.391 272.085 463.167 269.257 463.592L272.52 485.348C277.532 484.597 282.275 483.119 286.633 480.803L276.312 461.375ZM269.257 463.592C265.796 464.111 262.671 464.352 259.864 464.352V486.352C263.916 486.352 268.141 486.005 272.52 485.348L269.257 463.592ZM255.748 406.581C252.185 406.581 248.549 407.175 245.106 408.705L254.041 428.809C254.127 428.771 254.606 428.581 255.748 428.581V406.581ZM244.89 408.804C241.945 410.19 239.259 412.141 237.06 414.739L253.855 428.949C253.846 428.96 253.852 428.949 253.895 428.917C253.941 428.882 254.051 428.807 254.257 428.71L244.89 408.804ZM237.349 414.411C235.272 416.677 233.717 419.277 232.659 422.098L253.258 429.822C253.376 429.507 253.488 429.363 253.566 429.277L237.349 414.411ZM232.523 422.481C231.728 424.867 231.255 427.326 231.098 429.831L253.055 431.203C253.095 430.572 253.209 429.993 253.394 429.438L232.523 422.481ZM243.854 441.372L268.991 437.256L265.436 415.546L240.299 419.662L243.854 441.372ZM278.092 424.769C277.361 419.896 274.818 415.959 271.955 412.945L256.005 428.097C256.206 428.309 256.342 428.475 256.429 428.591C256.516 428.707 256.548 428.765 256.546 428.762C256.544 428.759 256.508 428.692 256.464 428.565C256.418 428.435 256.369 428.256 256.335 428.033L278.092 424.769ZM271.955 412.945C267.379 408.129 261.319 406.581 255.748 406.581V428.581C256.596 428.581 256.891 428.699 256.825 428.675C256.785 428.661 256.665 428.612 256.499 428.507C256.331 428.4 256.16 428.261 256.005 428.097L271.955 412.945ZM376.997 472.853L380.158 483.389L387.997 481.037V472.853H376.997ZM372.293 473.735L370.807 462.836L370.772 462.841L370.738 462.846L372.293 473.735ZM359.945 473.735L358.034 484.568L358.085 484.577L358.137 484.585L359.945 473.735ZM355.682 471.971L349.082 480.771L355.682 471.971ZM352.889 468.443L342.59 472.305L342.74 472.707L342.921 473.095L352.889 468.443ZM348.92 421.403L341.796 429.784L342.02 429.975L342.254 430.153L348.92 421.403ZM335.984 419.639L338.928 430.238L338.928 430.238L335.984 419.639ZM331.721 421.403L325.816 412.123L320.721 415.365V421.403H331.721ZM331.721 472.853L334.882 483.389L342.721 481.037V472.853H331.721ZM327.017 473.735L325.531 462.836L325.496 462.841L325.462 462.846L327.017 473.735ZM314.669 473.735L312.758 484.568L312.809 484.577L312.861 484.585L314.669 473.735ZM310.406 471.971L303.806 480.771L310.406 471.971ZM307.613 468.443L297.314 472.305L297.464 472.707L297.645 473.095L307.613 468.443ZM306.731 377.156L304.764 366.333L295.731 367.976V377.156H306.731ZM311.435 376.421L312.991 387.31L313.198 387.281L313.403 387.244L311.435 376.421ZM323.636 376.274L321.725 387.107L321.776 387.116L321.828 387.124L323.636 376.274ZM328.046 378.038L334.646 369.238L334.646 369.238L328.046 378.038ZM330.692 381.713L320.393 385.575L320.543 385.976L320.724 386.365L330.692 381.713ZM331.721 401.999H320.721V418.015L335.67 412.266L331.721 401.999ZM337.454 400.382L339.928 411.1L340.072 411.067L340.215 411.03L337.454 400.382ZM368.765 406.703L361.366 414.842L361.443 414.913L361.522 414.981L368.765 406.703ZM373.837 462.317C373.865 462.308 373.647 462.372 373.059 462.482C372.506 462.586 371.764 462.705 370.807 462.836L373.78 484.634C376.018 484.329 378.305 483.945 380.158 483.389L373.837 462.317ZM370.738 462.846C369.236 463.06 367.602 463.176 365.825 463.176V485.176C368.557 485.176 371.235 484.998 373.849 484.624L370.738 462.846ZM365.825 463.176C364.156 463.176 362.813 463.061 361.754 462.885L358.137 484.585C360.605 484.997 363.182 485.176 365.825 485.176V463.176ZM361.857 462.902C361.733 462.881 361.739 462.869 361.836 462.909C361.938 462.952 362.099 463.034 362.282 463.171L349.082 480.771C351.835 482.835 354.924 484.019 358.034 484.568L361.857 462.902ZM362.282 463.171C362.467 463.309 362.617 463.461 362.727 463.6C362.833 463.734 362.868 463.814 362.857 463.791L342.921 473.095C344.291 476.03 346.314 478.695 349.082 480.771L362.282 463.171ZM363.189 464.581C363.221 464.665 363.169 464.554 363.112 464.167C363.056 463.785 363.007 463.213 363.007 462.416H341.007C341.007 465.629 341.377 469.072 342.59 472.305L363.189 464.581ZM363.007 462.416V429.782H341.007V462.416H363.007ZM363.007 429.782C363.007 424.265 361.614 417.246 355.587 412.653L342.254 430.153C341.852 429.847 341.53 429.5 341.293 429.164C341.061 428.837 340.953 428.583 340.914 428.477C340.877 428.377 340.904 428.415 340.938 428.641C340.972 428.868 341.007 429.239 341.007 429.782H363.007ZM356.045 413.022C351.814 409.425 346.725 407.904 341.57 407.904V429.904C341.998 429.904 342.131 429.963 342.072 429.943C342.046 429.934 341.996 429.914 341.935 429.88C341.874 429.845 341.827 429.81 341.796 429.784L356.045 413.022ZM341.57 407.904C338.685 407.904 335.828 408.266 333.04 409.04L338.928 430.238C339.669 430.032 340.535 429.904 341.57 429.904V407.904ZM333.04 409.04C330.642 409.707 328.112 410.661 325.816 412.123L337.627 430.683C337.531 430.745 337.567 430.709 337.801 430.612C338.032 430.516 338.397 430.385 338.928 430.238L333.04 409.04ZM320.721 421.403V472.853H342.721V421.403H320.721ZM328.561 462.317C328.589 462.308 328.371 462.372 327.783 462.482C327.23 462.586 326.488 462.705 325.531 462.836L328.504 484.634C330.742 484.329 333.029 483.945 334.882 483.389L328.561 462.317ZM325.462 462.846C323.96 463.06 322.326 463.176 320.549 463.176V485.176C323.281 485.176 325.959 484.998 328.573 484.624L325.462 462.846ZM320.549 463.176C318.88 463.176 317.537 463.061 316.478 462.885L312.861 484.585C315.329 484.997 317.906 485.176 320.549 485.176V463.176ZM316.581 462.902C316.457 462.881 316.463 462.869 316.56 462.909C316.662 462.952 316.823 463.034 317.006 463.171L303.806 480.771C306.559 482.835 309.648 484.019 312.758 484.568L316.581 462.902ZM317.006 463.171C317.191 463.309 317.341 463.461 317.451 463.6C317.557 463.734 317.592 463.814 317.581 463.791L297.645 473.095C299.015 476.03 301.038 478.695 303.806 480.771L317.006 463.171ZM317.913 464.581C317.945 464.665 317.893 464.554 317.836 464.167C317.78 463.785 317.731 463.213 317.731 462.416H295.731C295.731 465.629 296.101 469.072 297.314 472.305L317.913 464.581ZM317.731 462.416V377.156H295.731V462.416H317.731ZM308.699 387.979C309.568 387.82 310.972 387.599 312.991 387.31L309.88 365.532C307.783 365.831 306.05 366.099 304.764 366.333L308.699 387.979ZM313.403 387.244C314.921 386.968 316.418 386.833 317.903 386.833V364.833C315.077 364.833 312.262 365.09 309.468 365.598L313.403 387.244ZM317.903 386.833C319.583 386.833 320.834 386.949 321.725 387.107L325.548 365.441C323.107 365.011 320.535 364.833 317.903 364.833V386.833ZM321.828 387.124C322.029 387.158 322.063 387.183 321.977 387.149C321.884 387.112 321.688 387.019 321.446 386.838L334.646 369.238C331.787 367.093 328.575 365.945 325.445 365.424L321.828 387.124ZM321.446 386.838C321.119 386.593 320.855 386.313 320.663 386.046C320.477 385.787 320.404 385.605 320.393 385.575L340.992 377.851C339.772 374.598 337.726 371.548 334.646 369.238L321.446 386.838ZM320.724 386.365C320.578 386.052 320.588 385.948 320.629 386.182C320.669 386.412 320.721 386.864 320.721 387.593H342.721C342.721 384.281 342.283 380.539 340.66 377.061L320.724 386.365ZM320.721 387.593V401.999H342.721V387.593H320.721ZM335.67 412.266C336.208 412.059 337.516 411.657 339.928 411.1L334.981 389.664C332.297 390.283 329.783 390.959 327.773 391.732L335.67 412.266ZM340.215 411.03C341.839 410.609 343.789 410.353 346.127 410.353V388.353C342.194 388.353 338.362 388.783 334.694 389.734L340.215 411.03ZM346.127 410.353C354.018 410.353 358.595 412.323 361.366 414.842L376.165 398.564C368.156 391.283 357.64 388.353 346.127 388.353V410.353ZM361.522 414.981C363.923 417.082 365.997 420.814 365.997 428.312H387.997C387.997 416.602 384.584 405.928 376.009 398.425L361.522 414.981ZM365.997 428.312V472.853H387.997V428.312H365.997ZM417.711 473L414.17 483.415L414.293 483.457L414.418 483.496L417.711 473ZM404.775 465.65L397.453 473.859L397.507 473.908L397.562 473.955L404.775 465.65ZM396.102 453.449L385.96 457.709L385.996 457.794L386.033 457.879L396.102 453.449ZM396.102 419.639L386.102 415.056L386.08 415.104L386.059 415.152L396.102 419.639ZM404.481 408.173L411.639 416.525L411.707 416.467L411.774 416.407L404.481 408.173ZM416.241 401.558L419.508 412.061L419.614 412.029L419.719 411.994L416.241 401.558ZM443.877 401.705L440.041 412.014L440.079 412.029L440.117 412.043L443.877 401.705ZM454.902 408.173L447.528 416.336L447.593 416.394L447.658 416.451L454.902 408.173ZM462.105 418.022L452.021 422.417L452.068 422.525L452.117 422.632L462.105 418.022ZM461.958 438.161L454.392 430.176L454.392 430.176L461.958 438.161ZM454.167 441.542L452.566 430.659L452.552 430.661L452.537 430.663L454.167 441.542ZM417.858 446.981L416.228 436.102L403.283 438.042L407.422 450.46L417.858 446.981ZM424.473 454.331L419.553 464.17L419.67 464.228L419.789 464.284L424.473 454.331ZM447.258 455.213L450.202 465.812L450.297 465.785L450.392 465.757L447.258 455.213ZM456.078 451.538L461.908 442.21L456.154 438.614L450.358 442.142L456.078 451.538ZM460.047 455.654L469.433 449.918L469.433 449.918L460.047 455.654ZM455.49 471.089L450.386 461.345L450.357 461.36L450.329 461.375L455.49 471.089ZM444.906 474.47L443.274 463.592L443.274 463.592L444.906 474.47ZM423.591 418.757L419.123 408.705L419.014 408.753L418.907 408.804L423.591 418.757ZM419.475 421.844L427.583 429.277L427.731 429.116L427.872 428.949L419.475 421.844ZM416.976 425.96L406.676 422.098L406.604 422.288L406.54 422.481L416.976 425.96ZM416.094 430.517L405.115 429.831L404.254 443.602L417.871 441.372L416.094 430.517ZM441.231 426.401L443.008 437.256L453.719 435.503L452.109 424.769L441.231 426.401ZM437.997 420.521L445.972 412.945L445.972 412.945L437.997 420.521ZM433.881 464.352C429.101 464.352 424.831 463.705 421.003 462.504L414.418 483.496C420.586 485.431 427.097 486.352 433.881 486.352V464.352ZM421.252 462.585C417.633 461.355 414.583 459.599 411.987 457.345L397.562 473.955C402.414 478.169 407.988 481.313 414.17 483.415L421.252 462.585ZM412.096 457.441C409.761 455.358 407.757 452.625 406.17 449.019L386.033 457.879C388.758 464.073 392.536 469.474 397.453 473.859L412.096 457.441ZM406.243 449.189C404.868 445.915 404.015 441.687 404.015 436.25H382.015C382.015 443.945 383.219 451.183 385.96 457.709L406.243 449.189ZM404.015 436.25C404.015 430.909 404.869 426.982 406.145 424.126L386.059 415.152C383.218 421.508 382.015 428.655 382.015 436.25H404.015ZM406.101 424.222C407.69 420.755 409.582 418.288 411.639 416.525L397.322 399.821C392.519 403.938 388.825 409.115 386.102 415.056L406.101 424.222ZM411.774 416.407C414.028 414.411 416.574 412.974 419.508 412.061L412.973 391.055C407.088 392.886 401.793 395.859 397.187 399.939L411.774 416.407ZM419.719 411.994C423.018 410.894 426.352 410.353 429.765 410.353V388.353C423.965 388.353 418.283 389.282 412.762 391.122L419.719 411.994ZM429.765 410.353C433.849 410.353 437.228 410.968 440.041 412.014L447.713 391.396C442.097 389.306 436.068 388.353 429.765 388.353V410.353ZM440.117 412.043C443.256 413.184 445.663 414.652 447.528 416.336L462.275 400.01C458.064 396.206 453.121 393.362 447.636 391.367L440.117 412.043ZM447.658 416.451C449.572 418.126 451.003 420.083 452.021 422.417L472.188 413.627C469.874 408.317 466.503 403.708 462.145 399.895L447.658 416.451ZM452.117 422.632C453.168 424.908 453.751 427.486 453.751 430.517H475.751C475.751 424.532 474.57 418.78 472.092 413.412L452.117 422.632ZM453.751 430.517C453.751 431.179 453.656 431.328 453.72 431.152C453.755 431.058 453.824 430.901 453.947 430.711C454.072 430.519 454.224 430.335 454.392 430.176L469.523 446.146C474.183 441.732 475.751 435.92 475.751 430.517H453.751ZM454.392 430.176C454.618 429.962 454.354 430.396 452.566 430.659L455.767 452.425C460.644 451.708 465.573 449.888 469.523 446.146L454.392 430.176ZM452.537 430.663L416.228 436.102L419.487 457.86L455.796 452.421L452.537 430.663ZM407.422 450.46C409.513 456.732 413.878 461.332 419.553 464.17L429.392 444.492C428.798 444.195 428.566 443.963 428.496 443.885C428.44 443.823 428.371 443.735 428.293 443.502L407.422 450.46ZM419.789 464.284C424.816 466.65 430.282 467.683 435.939 467.683V445.683C432.971 445.683 430.793 445.148 429.156 444.378L419.789 464.284ZM435.939 467.683C440.856 467.683 445.627 467.082 450.202 465.812L444.314 444.614C441.832 445.304 439.057 445.683 435.939 445.683V467.683ZM450.392 465.757C454.569 464.515 458.469 462.96 461.797 460.934L450.358 442.142C449.179 442.86 447.198 443.755 444.123 444.669L450.392 465.757ZM450.248 460.866C450.25 460.867 450.255 460.871 450.266 460.879C450.276 460.888 450.297 460.906 450.328 460.937C450.387 460.999 450.505 461.136 450.661 461.39L469.433 449.918C467.57 446.871 465.087 444.197 461.908 442.21L450.248 460.866ZM450.661 461.39C450.693 461.444 450.706 461.472 450.708 461.475C450.709 461.478 450.702 461.463 450.693 461.432C450.684 461.401 450.676 461.364 450.67 461.324C450.665 461.285 450.664 461.256 450.664 461.24H472.664C472.664 457.143 471.506 453.31 469.433 449.918L450.661 461.39ZM450.664 461.24C450.664 461.484 450.636 461.552 450.651 461.493C450.659 461.466 450.674 461.417 450.701 461.355C450.728 461.293 450.762 461.228 450.8 461.167C450.838 461.106 450.874 461.06 450.9 461.029C450.926 460.999 450.936 460.992 450.919 461.007C450.887 461.036 450.734 461.162 450.386 461.345L460.594 480.833C464.033 479.031 467.188 476.446 469.44 472.852C471.713 469.227 472.664 465.219 472.664 461.24H450.664ZM450.329 461.375C448.415 462.391 446.102 463.167 443.274 463.592L446.537 485.348C451.549 484.597 456.292 483.119 460.65 480.803L450.329 461.375ZM443.274 463.592C439.813 464.111 436.688 464.352 433.881 464.352V486.352C437.933 486.352 442.158 486.005 446.537 485.348L443.274 463.592ZM429.765 406.581C426.202 406.581 422.566 407.175 419.123 408.705L428.058 428.809C428.144 428.771 428.623 428.581 429.765 428.581V406.581ZM418.907 408.804C415.962 410.19 413.276 412.141 411.077 414.739L427.872 428.949C427.863 428.96 427.869 428.949 427.912 428.917C427.958 428.882 428.068 428.807 428.274 428.71L418.907 408.804ZM411.366 414.411C409.289 416.677 407.734 419.277 406.676 422.098L427.275 429.822C427.393 429.507 427.505 429.363 427.583 429.277L411.366 414.411ZM406.54 422.481C405.745 424.867 405.272 427.326 405.115 429.831L427.072 431.203C427.112 430.572 427.226 429.993 427.411 429.438L406.54 422.481ZM417.871 441.372L443.008 437.256L439.453 415.546L414.316 419.662L417.871 441.372ZM452.109 424.769C451.378 419.896 448.835 415.959 445.972 412.945L430.022 428.097C430.223 428.309 430.359 428.475 430.446 428.591C430.533 428.707 430.565 428.765 430.563 428.762C430.561 428.759 430.525 428.692 430.481 428.565C430.435 428.435 430.386 428.256 430.352 428.033L452.109 424.769ZM445.972 412.945C441.396 408.129 435.336 406.581 429.765 406.581V428.581C430.613 428.581 430.908 428.699 430.842 428.675C430.802 428.661 430.681 428.612 430.516 428.507C430.348 428.4 430.177 428.261 430.022 428.097L445.972 412.945Z" fill="white" mask="url(#path-14-outside-1_1860_976)"/>
</svg>
