<svg width="576" height="512" viewBox="0 0 576 512" fill="none" xmlns="http://www.w3.org/2000/svg">
<path d="M65.9993 31.4106L65.932 27.2687L61.9326 26.1897C60.2322 25.731 57.7777 24.545 54.4259 22.736C53.6359 22.3097 52.8021 21.8522 51.9375 21.3779C49.3954 19.9834 46.5872 18.4428 43.8424 17.1156C40.1722 15.3411 36.0575 13.6606 32.0349 13.0683C27.9236 12.463 23.2141 12.916 19.3611 16.3158C18.1506 17.3838 17.7018 18.6571 17.5322 19.2286C17.3325 19.9011 17.2604 20.5178 17.2285 20.9415C17.1641 21.7991 17.2131 22.6479 17.2655 23.2527C17.3215 23.8997 17.4029 24.4965 17.4669 24.9173C17.4995 25.1322 17.5293 25.3118 17.5517 25.4422C17.563 25.5077 17.5725 25.5613 17.5797 25.6014L17.5888 25.6513L17.592 25.6685L17.5932 25.675L17.5937 25.6777L17.594 25.679C17.5941 25.6796 17.5942 25.6801 23 24.6666L17.5942 25.6801L17.6667 26.0672L17.7937 26.4399C18.6692 29.0101 19.4426 31.5709 20.2473 34.2352C20.5558 35.2568 20.869 36.2937 21.1943 37.3522C22.3383 41.0749 23.5984 44.9449 25.2078 48.7616C32.4915 66.8794 35.8886 72.1989 44.8191 86.1831C45.7662 87.6662 46.7755 89.2467 47.8583 90.9502L58.1393 107.125L57.9999 87.9599C57.9191 76.853 59.8367 69.2846 61.8832 61.2077L61.9115 61.0957C64.0018 52.8456 66.2051 44.0857 65.9993 31.4106Z" fill="#161414" stroke="white" stroke-width="11"/>
<path d="M513.455 54.7069L509.391 56.4532L510.225 60.7974C514.075 80.8406 509.788 101.84 502.385 121.546L502.367 121.593L502.35 121.64C501.154 125.009 499.651 128.279 498.026 131.817C497.955 131.97 497.885 132.123 497.814 132.277C496.145 135.909 494.363 139.825 492.982 143.968L502.013 149.671C503.398 148.338 504.913 146.951 506.484 145.512C509.972 142.317 513.734 138.871 516.962 135.218C525.641 125.677 536.243 111.842 544.714 96.9672C553.104 82.2334 559.833 65.7399 559.833 51.1068V45.7523L554.481 45.6088C539.95 45.2192 526.064 49.2893 513.455 54.7069Z" fill="#161414" stroke="white" stroke-width="11"/>
<path d="M379.414 303.871L379.394 303.918C377.147 309.112 378.367 315.753 382.309 320.283L382.318 320.293L382.327 320.303C390.369 329.638 405.312 332.066 417.143 327.113L417.162 327.105L417.182 327.097C424.26 324.198 429.768 318.213 430.58 311.524L430.584 311.489L430.589 311.454C431.322 306.002 428.571 300.098 423.81 296.227L423.804 296.223L423.798 296.218C416.953 290.62 407.266 288.569 398.234 290.247L379.414 303.871ZM379.414 303.871L379.433 303.825M379.414 303.871L379.433 303.825M379.433 303.825C382.341 296.754 389.863 291.808 398.232 290.247L379.433 303.825ZM63.4542 25.8821L55.9051 22.9112L55.9401 31.0237C55.9819 40.7404 55.9695 50.2467 55.9571 59.7723C55.9456 68.6611 55.934 77.5668 55.9664 86.676C55.9154 88.8007 55.9358 90.7081 55.955 92.4982C55.9912 95.8869 56.023 98.8548 55.5566 102.079L55.2527 104.181L56.4396 105.941C74.9905 133.457 96.7697 158.552 119.659 182.181C120.644 183.244 121.667 184.242 122.595 185.141C122.672 185.216 122.748 185.29 122.824 185.363C123.706 186.217 124.496 186.983 125.246 187.769C126.199 188.767 126.975 189.687 127.588 190.596C116.624 215.321 106.488 240.519 97.9396 266.295L97.9242 266.342L97.9096 266.388C97.771 266.833 97.6315 267.279 97.4915 267.727C94.398 277.621 91.0139 288.445 90.5055 299.78L90.5048 299.795L90.5043 299.81C90.3601 303.475 89.7675 307.067 89.1114 311.043C88.9639 311.937 88.8131 312.851 88.6636 313.789C87.8796 318.707 87.1632 324.153 87.6823 329.829C88.7437 341.748 93.6293 352.639 98.5708 362.293L98.58 362.311L98.5894 362.329C104.108 372.916 110.417 383.006 117.054 392.743C117.215 392.994 117.376 393.238 117.521 393.459L117.542 393.49C117.698 393.727 117.836 393.937 117.971 394.146C118.253 394.583 118.463 394.931 118.627 395.241C118.953 395.857 118.981 396.118 118.984 396.2L118.992 396.412L119.017 396.622C119.742 402.859 119.535 409.275 119.091 415.967C118.843 419.708 121.807 422.9 125.578 422.9H483.393C494.294 422.9 503.365 413.849 502.514 402.624C501.049 383.295 497.821 364.181 493.748 345.407L493.747 345.399L493.745 345.391C482.626 294.865 465.696 245.91 446.678 198.136C467.043 184.068 486.155 167.997 503.123 149.865L503.944 148.987L504.324 147.846C505.49 144.349 507.028 140.944 508.716 137.269L508.988 136.677C510.557 133.266 512.243 129.6 513.606 125.768C521.34 105.166 526.322 81.969 521.935 59.1227L520.811 53.2733L515.07 54.8583C458.876 70.3706 404.288 92.4802 353.889 122.154L353.558 122.349L353.257 122.588C352.926 122.851 352.457 123.125 350.545 122.774C349.774 122.632 349.033 122.444 348.103 122.207C347.793 122.128 347.462 122.044 347.102 121.954C345.877 121.649 344.338 121.29 342.715 121.149C299.576 114.157 255.428 116.382 212.832 124.001C190.825 98.9631 164.198 78.5014 136.193 61.2381C113.096 46.9793 88.4248 35.7092 63.4542 25.8821ZM254.798 272.739L254.872 272.716L254.946 272.691C257.146 271.948 259.737 271.748 262.006 272.222C264.237 272.688 265.811 273.71 266.73 275.116L266.738 275.129L266.747 275.143C266.799 275.221 266.793 275.236 266.794 275.256C266.795 275.313 266.782 275.503 266.636 275.817C266.49 276.133 266.244 276.491 265.905 276.826C265.566 277.161 265.206 277.399 264.9 277.538L264.821 277.574L264.743 277.613C262.571 278.683 259.753 279.137 257.177 278.739C254.679 278.354 252.868 277.264 251.833 275.728C251.755 275.588 251.77 275.545 251.771 275.529C251.776 275.453 251.82 275.2 252.079 274.794C252.66 273.886 253.788 273.048 254.798 272.739ZM128.489 290.054L128.57 290.041L128.651 290.027C136.947 288.54 145.955 291.702 150.472 298.195L150.507 298.245L150.543 298.295C153.764 302.709 153.759 309.411 150.514 313.87L150.492 313.899L150.471 313.929C145.542 320.894 135.304 323.593 126.405 320.977L126.342 320.958L126.28 320.942C118.401 318.825 112.413 311.597 113.113 304.529L113.117 304.489L113.121 304.449C113.717 297.374 120.516 291.239 128.489 290.054ZM252.787 316.475L252.82 316.467L252.852 316.457C261.038 314.172 269.908 314.959 279.569 316.027L279.772 316.049L279.975 316.056C285.794 316.266 291.109 317.365 295.05 320.099C296.084 320.947 296.845 322.226 297.404 324.249C297.938 326.183 298.163 328.268 298.43 330.743C298.465 331.072 298.502 331.409 298.54 331.753C299.275 340.219 298.528 347.608 293.945 351.934L293.931 351.947L293.917 351.96C292.318 353.49 290.167 354.302 287.101 354.667C284.951 354.923 282.993 354.928 280.778 354.933C279.507 354.936 278.153 354.94 276.629 354.991C274.601 354.94 272.559 354.945 270.597 354.949C270.326 354.949 270.056 354.95 269.789 354.95C267.493 354.954 265.298 354.947 263.141 354.853C258.825 354.667 254.935 354.14 251.365 352.816L251.244 352.771L251.12 352.732C250.594 352.565 250.019 352.187 249.194 350.677C248.767 349.896 248.379 349.008 247.892 347.87L247.808 347.671C247.374 346.656 246.841 345.406 246.216 344.232L246.189 344.18L246.161 344.13C242.7 337.939 241.198 331.342 243.018 325.575L243.05 325.475L243.078 325.374C244.215 321.224 248.05 317.735 252.787 316.475Z" fill="#FFD800" stroke="white" stroke-width="11"/>
<path d="M252.28 267.08C258.4 265.014 266.627 265.894 270.427 271.707C272.987 275.574 270.027 280.44 266.267 282.147C259.88 285.294 250.427 284.64 246.267 278.254C243.413 273.6 247.84 268.44 252.28 267.08Z" fill="#161414"/>
<path d="M250.467 310.76C259.827 308.146 269.733 309.106 279.267 310.16C273.56 313.573 268.24 317.586 262.973 321.626C254.2 328.573 245.453 336.186 240.453 346.413C236.6 339.52 234.413 331.293 236.867 323.52C238.613 317.146 244.2 312.426 250.467 310.76Z" fill="#802D0E"/>
<path d="M126.773 284.213C136.813 282.413 148.133 286.107 154.08 294.653C158.72 301.013 158.693 310.333 154.053 316.707C147.467 326.013 134.56 328.973 123.947 325.853C114.267 323.253 105.693 314.08 106.733 303.587C107.6 293.307 117 285.667 126.773 284.213Z" fill="#F26427"/>
<path d="M396.32 284.44C406.72 282.506 418.107 284.8 426.373 291.56C432.293 296.373 436.173 304.053 435.133 311.786C434.013 321.013 426.693 328.373 418.36 331.786C404.76 337.48 387.133 334.96 377.253 323.493C372.067 317.533 370.267 308.666 373.44 301.333C377.267 292.026 386.733 286.226 396.32 284.44Z" fill="#F26427"/>
<path d="M279.266 310.16C285.56 310.387 292.2 311.587 297.44 315.293C302.106 318.947 302.506 325.373 303.106 330.813C303.853 339.333 303.466 349.253 296.813 355.533C291.213 360.893 282.853 359.84 275.746 360.094C266.68 359.854 257.213 360.787 248.546 357.573C243.64 356.013 242.586 350.427 240.453 346.413C245.453 336.187 254.2 328.573 262.973 321.627C268.24 317.587 273.56 313.573 279.266 310.16Z" fill="#F0825C"/>
<path d="M206.22 242.339L172.618 243.902C163.9 244.307 159.042 233.971 164.918 227.518C166.94 225.297 169.87 224.126 172.866 224.341L206.418 226.755C209.6 226.984 212.323 229.127 213.294 232.167C214.856 237.059 211.35 242.1 206.22 242.339Z" fill="black"/>
<rect x="169.571" y="227.872" width="16.8523" height="4.29997" rx="2.14999" fill="#F8EADF"/>
<path d="M368.22 242.339L334.618 243.902C325.9 244.307 321.042 233.971 326.918 227.518C328.94 225.297 331.87 224.126 334.866 224.341L368.418 226.755C371.6 226.984 374.323 229.127 375.294 232.167C376.856 237.059 373.35 242.1 368.22 242.339Z" fill="black"/>
<rect x="331.571" y="227.872" width="16.8523" height="4.29997" rx="2.14999" fill="#F8EADF"/>
<path d="M56.2773 335.054C56.2773 335.054 353.146 252.009 274.776 90.7918" stroke="black" stroke-linecap="round"/>
<mask id="path-14-outside-1_1871_220" maskUnits="userSpaceOnUse" x="122" y="364" width="366" height="123" fill="black">
<rect fill="white" x="122" y="364" width="366" height="123"/>
<path d="M213.229 472.412C212.151 472.706 210.436 473 208.084 473.294C205.83 473.588 203.576 473.735 201.322 473.735C199.068 473.735 197.059 473.539 195.295 473.147C193.629 472.853 192.208 472.265 191.032 471.383C189.856 470.501 188.974 469.276 188.386 467.708C187.798 466.14 187.504 464.082 187.504 461.534V438.602H159.28V472.412C158.202 472.706 156.487 473 154.135 473.294C151.881 473.588 149.627 473.735 147.373 473.735C145.119 473.735 143.11 473.539 141.346 473.147C139.68 472.853 138.259 472.265 137.083 471.383C135.907 470.501 135.025 469.276 134.437 467.708C133.849 466.14 133.555 464.082 133.555 461.534V383.918C134.633 383.722 136.348 383.477 138.7 383.183C141.052 382.791 143.306 382.595 145.462 382.595C147.716 382.595 149.676 382.791 151.342 383.183C153.106 383.477 154.576 384.065 155.752 384.947C156.928 385.829 157.81 387.054 158.398 388.622C158.986 390.19 159.28 392.248 159.28 394.796V418.316H187.504V383.918C188.582 383.722 190.297 383.477 192.649 383.183C195.001 382.791 197.255 382.595 199.411 382.595C201.665 382.595 203.625 382.791 205.291 383.183C207.055 383.477 208.525 384.065 209.701 384.947C210.877 385.829 211.759 387.054 212.347 388.622C212.935 390.19 213.229 392.248 213.229 394.796V472.412ZM271.864 475.352C266.082 475.352 260.692 474.568 255.694 473C250.794 471.334 246.482 468.884 242.758 465.65C239.132 462.416 236.241 458.349 234.085 453.449C232.027 448.549 230.998 442.816 230.998 436.25C230.998 429.782 232.027 424.245 234.085 419.639C236.241 414.935 239.034 411.113 242.464 408.173C245.894 405.135 249.814 402.93 254.224 401.558C258.634 400.088 263.142 399.353 267.748 399.353C272.942 399.353 277.646 400.137 281.86 401.705C286.172 403.273 289.847 405.429 292.885 408.173C296.021 410.917 298.422 414.2 300.088 418.022C301.852 421.844 302.734 426.009 302.734 430.517C302.734 433.849 301.803 436.397 299.941 438.161C298.079 439.925 295.482 441.052 292.15 441.542L255.841 446.981C256.919 450.215 259.124 452.665 262.456 454.331C265.788 455.899 269.61 456.683 273.922 456.683C277.94 456.683 281.713 456.193 285.241 455.213C288.867 454.135 291.807 452.91 294.061 451.538C295.629 452.518 296.952 453.89 298.03 455.654C299.108 457.418 299.647 459.28 299.647 461.24C299.647 465.65 297.589 468.933 293.473 471.089C290.337 472.755 286.809 473.882 282.889 474.47C278.969 475.058 275.294 475.352 271.864 475.352ZM267.748 417.581C265.396 417.581 263.338 417.973 261.574 418.757C259.908 419.541 258.536 420.57 257.458 421.844C256.38 423.02 255.547 424.392 254.959 425.96C254.469 427.43 254.175 428.949 254.077 430.517L279.214 426.401C278.92 424.441 277.842 422.481 275.98 420.521C274.118 418.561 271.374 417.581 267.748 417.581ZM388.997 472.853C388.017 473.147 386.449 473.441 384.293 473.735C382.235 474.029 380.079 474.176 377.825 474.176C375.669 474.176 373.709 474.029 371.945 473.735C370.279 473.441 368.858 472.853 367.682 471.971C366.506 471.089 365.575 469.913 364.889 468.443C364.301 466.875 364.007 464.866 364.007 462.416V429.782C364.007 425.764 362.978 422.971 360.92 421.403C358.96 419.737 356.51 418.904 353.57 418.904C351.61 418.904 349.748 419.149 347.984 419.639C346.22 420.129 344.799 420.717 343.721 421.403V472.853C342.741 473.147 341.173 473.441 339.017 473.735C336.959 474.029 334.803 474.176 332.549 474.176C330.393 474.176 328.433 474.029 326.669 473.735C325.003 473.441 323.582 472.853 322.406 471.971C321.23 471.089 320.299 469.913 319.613 468.443C319.025 466.875 318.731 464.866 318.731 462.416V377.156C319.809 376.96 321.377 376.715 323.435 376.421C325.591 376.029 327.747 375.833 329.903 375.833C332.059 375.833 333.97 375.98 335.636 376.274C337.4 376.568 338.87 377.156 340.046 378.038C341.222 378.92 342.104 380.145 342.692 381.713C343.378 383.183 343.721 385.143 343.721 387.593V401.999C344.995 401.509 346.906 400.97 349.454 400.382C352.1 399.696 354.991 399.353 358.127 399.353C367.829 399.353 375.375 401.803 380.765 406.703C386.253 411.505 388.997 418.708 388.997 428.312V472.853ZM445.881 475.352C440.099 475.352 434.709 474.568 429.711 473C424.811 471.334 420.499 468.884 416.775 465.65C413.149 462.416 410.258 458.349 408.102 453.449C406.044 448.549 405.015 442.816 405.015 436.25C405.015 429.782 406.044 424.245 408.102 419.639C410.258 414.935 413.051 411.113 416.481 408.173C419.911 405.135 423.831 402.93 428.241 401.558C432.651 400.088 437.159 399.353 441.765 399.353C446.959 399.353 451.663 400.137 455.877 401.705C460.189 403.273 463.864 405.429 466.902 408.173C470.038 410.917 472.439 414.2 474.105 418.022C475.869 421.844 476.751 426.009 476.751 430.517C476.751 433.849 475.82 436.397 473.958 438.161C472.096 439.925 469.499 441.052 466.167 441.542L429.858 446.981C430.936 450.215 433.141 452.665 436.473 454.331C439.805 455.899 443.627 456.683 447.939 456.683C451.957 456.683 455.73 456.193 459.258 455.213C462.884 454.135 465.824 452.91 468.078 451.538C469.646 452.518 470.969 453.89 472.047 455.654C473.125 457.418 473.664 459.28 473.664 461.24C473.664 465.65 471.606 468.933 467.49 471.089C464.354 472.755 460.826 473.882 456.906 474.47C452.986 475.058 449.311 475.352 445.881 475.352ZM441.765 417.581C439.413 417.581 437.355 417.973 435.591 418.757C433.925 419.541 432.553 420.57 431.475 421.844C430.397 423.02 429.564 424.392 428.976 425.96C428.486 427.43 428.192 428.949 428.094 430.517L453.231 426.401C452.937 424.441 451.859 422.481 449.997 420.521C448.135 418.561 445.391 417.581 441.765 417.581Z"/>
</mask>
<path d="M213.229 472.412C212.151 472.706 210.436 473 208.084 473.294C205.83 473.588 203.576 473.735 201.322 473.735C199.068 473.735 197.059 473.539 195.295 473.147C193.629 472.853 192.208 472.265 191.032 471.383C189.856 470.501 188.974 469.276 188.386 467.708C187.798 466.14 187.504 464.082 187.504 461.534V438.602H159.28V472.412C158.202 472.706 156.487 473 154.135 473.294C151.881 473.588 149.627 473.735 147.373 473.735C145.119 473.735 143.11 473.539 141.346 473.147C139.68 472.853 138.259 472.265 137.083 471.383C135.907 470.501 135.025 469.276 134.437 467.708C133.849 466.14 133.555 464.082 133.555 461.534V383.918C134.633 383.722 136.348 383.477 138.7 383.183C141.052 382.791 143.306 382.595 145.462 382.595C147.716 382.595 149.676 382.791 151.342 383.183C153.106 383.477 154.576 384.065 155.752 384.947C156.928 385.829 157.81 387.054 158.398 388.622C158.986 390.19 159.28 392.248 159.28 394.796V418.316H187.504V383.918C188.582 383.722 190.297 383.477 192.649 383.183C195.001 382.791 197.255 382.595 199.411 382.595C201.665 382.595 203.625 382.791 205.291 383.183C207.055 383.477 208.525 384.065 209.701 384.947C210.877 385.829 211.759 387.054 212.347 388.622C212.935 390.19 213.229 392.248 213.229 394.796V472.412ZM271.864 475.352C266.082 475.352 260.692 474.568 255.694 473C250.794 471.334 246.482 468.884 242.758 465.65C239.132 462.416 236.241 458.349 234.085 453.449C232.027 448.549 230.998 442.816 230.998 436.25C230.998 429.782 232.027 424.245 234.085 419.639C236.241 414.935 239.034 411.113 242.464 408.173C245.894 405.135 249.814 402.93 254.224 401.558C258.634 400.088 263.142 399.353 267.748 399.353C272.942 399.353 277.646 400.137 281.86 401.705C286.172 403.273 289.847 405.429 292.885 408.173C296.021 410.917 298.422 414.2 300.088 418.022C301.852 421.844 302.734 426.009 302.734 430.517C302.734 433.849 301.803 436.397 299.941 438.161C298.079 439.925 295.482 441.052 292.15 441.542L255.841 446.981C256.919 450.215 259.124 452.665 262.456 454.331C265.788 455.899 269.61 456.683 273.922 456.683C277.94 456.683 281.713 456.193 285.241 455.213C288.867 454.135 291.807 452.91 294.061 451.538C295.629 452.518 296.952 453.89 298.03 455.654C299.108 457.418 299.647 459.28 299.647 461.24C299.647 465.65 297.589 468.933 293.473 471.089C290.337 472.755 286.809 473.882 282.889 474.47C278.969 475.058 275.294 475.352 271.864 475.352ZM267.748 417.581C265.396 417.581 263.338 417.973 261.574 418.757C259.908 419.541 258.536 420.57 257.458 421.844C256.38 423.02 255.547 424.392 254.959 425.96C254.469 427.43 254.175 428.949 254.077 430.517L279.214 426.401C278.92 424.441 277.842 422.481 275.98 420.521C274.118 418.561 271.374 417.581 267.748 417.581ZM388.997 472.853C388.017 473.147 386.449 473.441 384.293 473.735C382.235 474.029 380.079 474.176 377.825 474.176C375.669 474.176 373.709 474.029 371.945 473.735C370.279 473.441 368.858 472.853 367.682 471.971C366.506 471.089 365.575 469.913 364.889 468.443C364.301 466.875 364.007 464.866 364.007 462.416V429.782C364.007 425.764 362.978 422.971 360.92 421.403C358.96 419.737 356.51 418.904 353.57 418.904C351.61 418.904 349.748 419.149 347.984 419.639C346.22 420.129 344.799 420.717 343.721 421.403V472.853C342.741 473.147 341.173 473.441 339.017 473.735C336.959 474.029 334.803 474.176 332.549 474.176C330.393 474.176 328.433 474.029 326.669 473.735C325.003 473.441 323.582 472.853 322.406 471.971C321.23 471.089 320.299 469.913 319.613 468.443C319.025 466.875 318.731 464.866 318.731 462.416V377.156C319.809 376.96 321.377 376.715 323.435 376.421C325.591 376.029 327.747 375.833 329.903 375.833C332.059 375.833 333.97 375.98 335.636 376.274C337.4 376.568 338.87 377.156 340.046 378.038C341.222 378.92 342.104 380.145 342.692 381.713C343.378 383.183 343.721 385.143 343.721 387.593V401.999C344.995 401.509 346.906 400.97 349.454 400.382C352.1 399.696 354.991 399.353 358.127 399.353C367.829 399.353 375.375 401.803 380.765 406.703C386.253 411.505 388.997 418.708 388.997 428.312V472.853ZM445.881 475.352C440.099 475.352 434.709 474.568 429.711 473C424.811 471.334 420.499 468.884 416.775 465.65C413.149 462.416 410.258 458.349 408.102 453.449C406.044 448.549 405.015 442.816 405.015 436.25C405.015 429.782 406.044 424.245 408.102 419.639C410.258 414.935 413.051 411.113 416.481 408.173C419.911 405.135 423.831 402.93 428.241 401.558C432.651 400.088 437.159 399.353 441.765 399.353C446.959 399.353 451.663 400.137 455.877 401.705C460.189 403.273 463.864 405.429 466.902 408.173C470.038 410.917 472.439 414.2 474.105 418.022C475.869 421.844 476.751 426.009 476.751 430.517C476.751 433.849 475.82 436.397 473.958 438.161C472.096 439.925 469.499 441.052 466.167 441.542L429.858 446.981C430.936 450.215 433.141 452.665 436.473 454.331C439.805 455.899 443.627 456.683 447.939 456.683C451.957 456.683 455.73 456.193 459.258 455.213C462.884 454.135 465.824 452.91 468.078 451.538C469.646 452.518 470.969 453.89 472.047 455.654C473.125 457.418 473.664 459.28 473.664 461.24C473.664 465.65 471.606 468.933 467.49 471.089C464.354 472.755 460.826 473.882 456.906 474.47C452.986 475.058 449.311 475.352 445.881 475.352ZM441.765 417.581C439.413 417.581 437.355 417.973 435.591 418.757C433.925 419.541 432.553 420.57 431.475 421.844C430.397 423.02 429.564 424.392 428.976 425.96C428.486 427.43 428.192 428.949 428.094 430.517L453.231 426.401C452.937 424.441 451.859 422.481 449.997 420.521C448.135 418.561 445.391 417.581 441.765 417.581Z" fill="black"/>
<path d="M213.229 472.412L216.123 483.024L224.229 480.814V472.412H213.229ZM208.084 473.294L206.72 462.379L206.69 462.383L206.661 462.386L208.084 473.294ZM195.295 473.147L197.681 462.409L197.445 462.356L197.207 462.314L195.295 473.147ZM191.032 471.383L197.632 462.583L191.032 471.383ZM188.386 467.708L198.686 463.846L188.386 467.708ZM187.504 438.602H198.504V427.602H187.504V438.602ZM159.28 438.602V427.602H148.28V438.602H159.28ZM159.28 472.412L162.174 483.024L170.28 480.814V472.412H159.28ZM154.135 473.294L152.771 462.379L152.741 462.383L152.712 462.386L154.135 473.294ZM141.346 473.147L143.732 462.409L143.496 462.356L143.258 462.314L141.346 473.147ZM137.083 471.383L130.483 480.183H130.483L137.083 471.383ZM134.437 467.708L124.137 471.57H124.137L134.437 467.708ZM133.555 383.918L131.587 373.095L122.555 374.738V383.918H133.555ZM138.7 383.183L140.064 394.098L140.287 394.07L140.508 394.033L138.7 383.183ZM151.342 383.183L148.823 393.891L149.176 393.974L149.534 394.033L151.342 383.183ZM155.752 384.947L149.152 393.747L149.152 393.747L155.752 384.947ZM158.398 388.622L148.098 392.484L148.098 392.484L158.398 388.622ZM159.28 418.316H148.28V429.316H159.28V418.316ZM187.504 418.316V429.316H198.504V418.316H187.504ZM187.504 383.918L185.536 373.095L176.504 374.738V383.918H187.504ZM192.649 383.183L194.013 394.098L194.236 394.07L194.457 394.033L192.649 383.183ZM205.291 383.183L202.772 393.891L203.125 393.974L203.483 394.033L205.291 383.183ZM209.701 384.947L203.101 393.747L203.101 393.747L209.701 384.947ZM212.347 388.622L202.047 392.484L202.047 392.484L212.347 388.622ZM210.335 461.8C210.056 461.876 208.994 462.095 206.72 462.379L209.448 484.209C211.878 483.905 214.246 483.536 216.123 483.024L210.335 461.8ZM206.661 462.386C204.875 462.619 203.096 462.735 201.322 462.735V484.735C204.056 484.735 206.785 484.557 209.507 484.202L206.661 462.386ZM201.322 462.735C199.682 462.735 198.497 462.59 197.681 462.409L192.909 483.885C195.621 484.488 198.453 484.735 201.322 484.735V462.735ZM197.207 462.314C197.083 462.293 197.089 462.281 197.186 462.321C197.288 462.364 197.449 462.446 197.632 462.583L184.432 480.183C187.184 482.247 190.274 483.431 193.383 483.98L197.207 462.314ZM197.632 462.583C197.959 462.828 198.223 463.108 198.415 463.375C198.602 463.634 198.674 463.816 198.686 463.846L178.086 471.57C179.306 474.823 181.352 477.873 184.432 480.183L197.632 462.583ZM198.686 463.846C198.729 463.96 198.674 463.854 198.614 463.433C198.555 463.019 198.504 462.399 198.504 461.534H176.504C176.504 464.785 176.859 468.298 178.086 471.57L198.686 463.846ZM198.504 461.534V438.602H176.504V461.534H198.504ZM187.504 427.602H159.28V449.602H187.504V427.602ZM148.28 438.602V472.412H170.28V438.602H148.28ZM156.386 461.8C156.107 461.876 155.045 462.095 152.771 462.379L155.499 484.209C157.929 483.905 160.297 483.536 162.174 483.024L156.386 461.8ZM152.712 462.386C150.926 462.619 149.147 462.735 147.373 462.735V484.735C150.107 484.735 152.836 484.557 155.558 484.202L152.712 462.386ZM147.373 462.735C145.733 462.735 144.548 462.59 143.732 462.409L138.96 483.885C141.672 484.488 144.504 484.735 147.373 484.735V462.735ZM143.258 462.314C143.134 462.293 143.14 462.281 143.237 462.321C143.339 462.364 143.5 462.446 143.683 462.583L130.483 480.183C133.235 482.247 136.325 483.431 139.434 483.98L143.258 462.314ZM143.683 462.583C144.01 462.828 144.274 463.108 144.466 463.375C144.653 463.634 144.725 463.816 144.737 463.846L124.137 471.57C125.357 474.823 127.403 477.873 130.483 480.183L143.683 462.583ZM144.737 463.846C144.78 463.96 144.725 463.854 144.665 463.433C144.606 463.019 144.555 462.399 144.555 461.534H122.555C122.555 464.785 122.91 468.298 124.137 471.57L144.737 463.846ZM144.555 461.534V383.918H122.555V461.534H144.555ZM135.523 394.741C136.28 394.603 137.738 394.389 140.064 394.098L137.336 372.268C134.958 372.565 132.986 372.841 131.587 373.095L135.523 394.741ZM140.508 394.033C142.325 393.731 143.972 393.595 145.462 393.595V371.595C142.64 371.595 139.779 371.851 136.892 372.333L140.508 394.033ZM145.462 393.595C147.118 393.595 148.195 393.743 148.823 393.891L153.861 372.475C151.157 371.839 148.314 371.595 145.462 371.595V393.595ZM149.534 394.033C149.735 394.067 149.768 394.092 149.682 394.058C149.589 394.021 149.394 393.928 149.152 393.747L162.352 376.147C159.492 374.002 156.281 372.854 153.15 372.333L149.534 394.033ZM149.152 393.747C148.825 393.502 148.561 393.222 148.369 392.955C148.182 392.696 148.109 392.514 148.098 392.484L168.698 384.76C167.478 381.507 165.432 378.457 162.352 376.147L149.152 393.747ZM148.098 392.484C148.055 392.37 148.11 392.476 148.17 392.897C148.229 393.311 148.28 393.931 148.28 394.796H170.28C170.28 391.545 169.925 388.032 168.698 384.76L148.098 392.484ZM148.28 394.796V418.316H170.28V394.796H148.28ZM159.28 429.316H187.504V407.316H159.28V429.316ZM198.504 418.316V383.918H176.504V418.316H198.504ZM189.472 394.741C190.229 394.603 191.687 394.389 194.013 394.098L191.285 372.268C188.907 372.565 186.935 372.841 185.536 373.095L189.472 394.741ZM194.457 394.033C196.274 393.731 197.921 393.595 199.411 393.595V371.595C196.589 371.595 193.728 371.851 190.841 372.333L194.457 394.033ZM199.411 393.595C201.067 393.595 202.144 393.743 202.772 393.891L207.81 372.475C205.106 371.839 202.263 371.595 199.411 371.595V393.595ZM203.483 394.033C203.684 394.067 203.717 394.092 203.631 394.058C203.538 394.021 203.343 393.928 203.101 393.747L216.301 376.147C213.441 374.002 210.23 372.854 207.099 372.333L203.483 394.033ZM203.101 393.747C202.774 393.502 202.51 393.222 202.318 392.955C202.131 392.696 202.058 392.514 202.047 392.484L222.647 384.76C221.427 381.507 219.381 378.457 216.301 376.147L203.101 393.747ZM202.047 392.484C202.004 392.37 202.059 392.476 202.119 392.897C202.178 393.311 202.229 393.931 202.229 394.796H224.229C224.229 391.545 223.874 388.032 222.647 384.76L202.047 392.484ZM202.229 394.796V472.412H224.229V394.796H202.229ZM255.694 473L252.153 483.414L252.276 483.457L252.401 483.496L255.694 473ZM242.758 465.65L235.436 473.859L235.49 473.908L235.545 473.955L242.758 465.65ZM234.085 453.449L223.943 457.709L223.979 457.794L224.016 457.879L234.085 453.449ZM234.085 419.639L224.085 415.056L224.063 415.104L224.042 415.152L234.085 419.639ZM242.464 408.173L249.622 416.525L249.69 416.467L249.757 416.407L242.464 408.173ZM254.224 401.558L257.491 412.061L257.597 412.029L257.702 411.994L254.224 401.558ZM281.86 401.705L278.024 412.014L278.062 412.029L278.1 412.043L281.86 401.705ZM292.885 408.173L285.511 416.336L285.576 416.394L285.641 416.451L292.885 408.173ZM300.088 418.022L290.004 422.417L290.051 422.525L290.1 422.632L300.088 418.022ZM299.941 438.161L292.375 430.176L292.375 430.176L299.941 438.161ZM292.15 441.542L290.549 430.659L290.535 430.661L290.52 430.663L292.15 441.542ZM255.841 446.981L254.211 436.102L241.266 438.042L245.405 450.46L255.841 446.981ZM262.456 454.331L257.536 464.17L257.653 464.228L257.772 464.284L262.456 454.331ZM285.241 455.213L288.185 465.812L288.28 465.785L288.375 465.757L285.241 455.213ZM294.061 451.538L299.891 442.21L294.137 438.614L288.341 442.142L294.061 451.538ZM298.03 455.654L307.416 449.918L298.03 455.654ZM293.473 471.089L288.369 461.345L288.34 461.36L288.312 461.375L293.473 471.089ZM282.889 474.47L281.257 463.592L282.889 474.47ZM261.574 418.757L257.106 408.705L256.997 408.753L256.89 408.804L261.574 418.757ZM257.458 421.844L265.566 429.277L265.714 429.116L265.855 428.949L257.458 421.844ZM254.959 425.96L244.659 422.098L244.587 422.288L244.523 422.481L254.959 425.96ZM254.077 430.517L243.098 429.831L242.237 443.602L255.854 441.372L254.077 430.517ZM279.214 426.401L280.991 437.256L291.702 435.503L290.092 424.769L279.214 426.401ZM275.98 420.521L283.955 412.945V412.945L275.98 420.521ZM271.864 464.352C267.083 464.352 262.814 463.705 258.986 462.504L252.401 483.496C258.569 485.431 265.08 486.352 271.864 486.352V464.352ZM259.235 462.586C255.616 461.355 252.566 459.599 249.97 457.345L235.545 473.955C240.397 478.169 245.971 481.313 252.153 483.414L259.235 462.586ZM250.079 457.441C247.744 455.358 245.74 452.625 244.153 449.019L224.016 457.879C226.741 464.073 230.519 469.474 235.436 473.859L250.079 457.441ZM244.226 449.189C242.851 445.915 241.998 441.687 241.998 436.25H219.998C219.998 443.945 221.202 451.183 223.943 457.709L244.226 449.189ZM241.998 436.25C241.998 430.909 242.852 426.982 244.128 424.126L224.042 415.152C221.201 421.508 219.998 428.655 219.998 436.25H241.998ZM244.084 424.222C245.673 420.755 247.565 418.288 249.622 416.525L235.305 399.821C230.502 403.938 226.808 409.115 224.085 415.056L244.084 424.222ZM249.757 416.407C252.011 414.411 254.556 412.974 257.491 412.061L250.956 391.055C245.071 392.886 239.776 395.859 235.17 399.939L249.757 416.407ZM257.702 411.994C261.001 410.894 264.335 410.353 267.748 410.353V388.353C261.948 388.353 256.266 389.282 250.745 391.122L257.702 411.994ZM267.748 410.353C271.832 410.353 275.211 410.968 278.024 412.014L285.696 391.396C280.08 389.306 274.051 388.353 267.748 388.353V410.353ZM278.1 412.043C281.239 413.184 283.646 414.652 285.511 416.336L300.258 400.01C296.047 396.206 291.104 393.362 285.619 391.367L278.1 412.043ZM285.641 416.451C287.555 418.126 288.986 420.083 290.004 422.417L310.171 413.627C307.857 408.317 304.486 403.708 300.128 399.895L285.641 416.451ZM290.1 422.632C291.151 424.908 291.734 427.486 291.734 430.517H313.734C313.734 424.532 312.553 418.78 310.075 413.412L290.1 422.632ZM291.734 430.517C291.734 431.179 291.639 431.328 291.703 431.152C291.738 431.058 291.807 430.901 291.93 430.711C292.055 430.519 292.207 430.335 292.375 430.176L307.506 446.146C312.166 441.732 313.734 435.92 313.734 430.517H291.734ZM292.375 430.176C292.601 429.962 292.337 430.396 290.549 430.659L293.75 452.425C298.626 451.708 303.556 449.888 307.506 446.146L292.375 430.176ZM290.52 430.663L254.211 436.102L257.47 457.86L293.779 452.421L290.52 430.663ZM245.405 450.46C247.496 456.732 251.861 461.332 257.536 464.17L267.375 444.492C266.781 444.195 266.549 443.963 266.479 443.885C266.423 443.823 266.354 443.735 266.276 443.502L245.405 450.46ZM257.772 464.284C262.799 466.65 268.265 467.683 273.922 467.683V445.683C270.954 445.683 268.776 445.148 267.139 444.378L257.772 464.284ZM273.922 467.683C278.839 467.683 283.61 467.082 288.185 465.812L282.297 444.614C279.815 445.304 277.04 445.683 273.922 445.683V467.683ZM288.375 465.757C292.552 464.515 296.452 462.96 299.78 460.934L288.341 442.142C287.161 442.86 285.181 443.755 282.106 444.669L288.375 465.757ZM288.231 460.866C288.233 460.867 288.238 460.871 288.249 460.879C288.259 460.888 288.28 460.906 288.311 460.937C288.37 460.999 288.488 461.136 288.644 461.39L307.416 449.918C305.553 446.871 303.07 444.197 299.891 442.21L288.231 460.866ZM288.643 461.39C288.676 461.444 288.689 461.472 288.691 461.475C288.692 461.478 288.685 461.463 288.676 461.432C288.667 461.401 288.659 461.364 288.653 461.324C288.648 461.285 288.647 461.256 288.647 461.24H310.647C310.647 457.143 309.489 453.31 307.416 449.918L288.643 461.39ZM288.647 461.24C288.647 461.484 288.619 461.552 288.634 461.493C288.642 461.466 288.657 461.417 288.684 461.355C288.711 461.293 288.745 461.228 288.783 461.167C288.821 461.106 288.857 461.06 288.883 461.029C288.909 460.999 288.919 460.992 288.902 461.007C288.87 461.036 288.717 461.162 288.369 461.345L298.577 480.833C302.016 479.031 305.171 476.446 307.423 472.852C309.696 469.227 310.647 465.219 310.647 461.24H288.647ZM288.312 461.375C286.398 462.391 284.085 463.167 281.257 463.592L284.52 485.348C289.532 484.597 294.275 483.119 298.633 480.803L288.312 461.375ZM281.257 463.592C277.796 464.111 274.671 464.352 271.864 464.352V486.352C275.916 486.352 280.141 486.005 284.52 485.348L281.257 463.592ZM267.748 406.581C264.185 406.581 260.549 407.175 257.106 408.705L266.041 428.809C266.127 428.771 266.606 428.581 267.748 428.581V406.581ZM256.89 408.804C253.945 410.19 251.259 412.141 249.06 414.739L265.855 428.949C265.846 428.96 265.852 428.949 265.895 428.917C265.941 428.882 266.051 428.807 266.257 428.71L256.89 408.804ZM249.349 414.411C247.272 416.677 245.717 419.277 244.659 422.098L265.258 429.822C265.376 429.507 265.488 429.363 265.566 429.277L249.349 414.411ZM244.523 422.481C243.728 424.867 243.255 427.326 243.098 429.831L265.055 431.203C265.095 430.572 265.209 429.993 265.394 429.438L244.523 422.481ZM255.854 441.372L280.991 437.256L277.436 415.546L252.299 419.662L255.854 441.372ZM290.092 424.769C289.361 419.896 286.818 415.959 283.955 412.945L268.005 428.097C268.206 428.309 268.342 428.475 268.429 428.591C268.516 428.707 268.548 428.765 268.546 428.762C268.544 428.759 268.508 428.692 268.464 428.565C268.418 428.435 268.369 428.256 268.335 428.033L290.092 424.769ZM283.955 412.945C279.379 408.129 273.319 406.581 267.748 406.581V428.581C268.596 428.581 268.891 428.699 268.825 428.675C268.785 428.661 268.664 428.612 268.499 428.507C268.331 428.4 268.16 428.261 268.005 428.097L283.955 412.945ZM388.997 472.853L392.158 483.389L399.997 481.037V472.853H388.997ZM384.293 473.735L382.807 462.836L382.772 462.841L382.738 462.846L384.293 473.735ZM371.945 473.735L370.034 484.568L370.085 484.577L370.137 484.585L371.945 473.735ZM367.682 471.971L361.082 480.771L367.682 471.971ZM364.889 468.443L354.59 472.305L354.74 472.707L354.921 473.095L364.889 468.443ZM360.92 421.403L353.796 429.784L354.02 429.975L354.254 430.153L360.92 421.403ZM347.984 419.639L350.928 430.238L350.928 430.238L347.984 419.639ZM343.721 421.403L337.816 412.123L332.721 415.365V421.403H343.721ZM343.721 472.853L346.882 483.389L354.721 481.037V472.853H343.721ZM339.017 473.735L337.531 462.836L337.496 462.841L337.462 462.846L339.017 473.735ZM326.669 473.735L324.758 484.568L324.809 484.577L324.861 484.585L326.669 473.735ZM322.406 471.971L315.806 480.771L322.406 471.971ZM319.613 468.443L309.314 472.305L309.464 472.707L309.645 473.095L319.613 468.443ZM318.731 377.156L316.764 366.333L307.731 367.976V377.156H318.731ZM323.435 376.421L324.991 387.31L325.198 387.281L325.403 387.244L323.435 376.421ZM335.636 376.274L333.725 387.107L333.776 387.116L333.828 387.124L335.636 376.274ZM340.046 378.038L346.646 369.238L346.646 369.238L340.046 378.038ZM342.692 381.713L332.393 385.575L332.543 385.976L332.724 386.365L342.692 381.713ZM343.721 401.999H332.721V418.015L347.67 412.266L343.721 401.999ZM349.454 400.382L351.928 411.1L352.072 411.067L352.215 411.03L349.454 400.382ZM380.765 406.703L373.366 414.842L373.443 414.913L373.522 414.981L380.765 406.703ZM385.837 462.317C385.865 462.308 385.646 462.372 385.059 462.482C384.506 462.586 383.764 462.705 382.807 462.836L385.78 484.634C388.018 484.329 390.305 483.945 392.158 483.389L385.837 462.317ZM382.738 462.846C381.236 463.06 379.602 463.176 377.825 463.176V485.176C380.557 485.176 383.235 484.998 385.849 484.624L382.738 462.846ZM377.825 463.176C376.156 463.176 374.813 463.061 373.754 462.885L370.137 484.585C372.605 484.997 375.182 485.176 377.825 485.176V463.176ZM373.857 462.902C373.733 462.881 373.739 462.869 373.836 462.909C373.938 462.952 374.099 463.034 374.282 463.171L361.082 480.771C363.835 482.835 366.924 484.019 370.034 484.568L373.857 462.902ZM374.282 463.171C374.467 463.309 374.617 463.461 374.727 463.6C374.833 463.734 374.868 463.814 374.857 463.791L354.921 473.095C356.291 476.03 358.314 478.695 361.082 480.771L374.282 463.171ZM375.189 464.581C375.221 464.665 375.169 464.554 375.112 464.167C375.056 463.785 375.007 463.213 375.007 462.416H353.007C353.007 465.629 353.377 469.072 354.59 472.305L375.189 464.581ZM375.007 462.416V429.782H353.007V462.416H375.007ZM375.007 429.782C375.007 424.265 373.614 417.246 367.587 412.653L354.254 430.153C353.852 429.847 353.53 429.5 353.293 429.164C353.061 428.837 352.953 428.583 352.914 428.477C352.877 428.377 352.904 428.415 352.938 428.641C352.972 428.868 353.007 429.239 353.007 429.782H375.007ZM368.044 413.022C363.814 409.425 358.725 407.904 353.57 407.904V429.904C353.998 429.904 354.131 429.963 354.072 429.943C354.046 429.934 353.996 429.914 353.935 429.88C353.874 429.845 353.827 429.81 353.796 429.784L368.044 413.022ZM353.57 407.904C350.685 407.904 347.828 408.266 345.04 409.04L350.928 430.238C351.669 430.032 352.535 429.904 353.57 429.904V407.904ZM345.04 409.04C342.642 409.707 340.112 410.661 337.816 412.123L349.627 430.683C349.531 430.745 349.567 430.709 349.801 430.612C350.032 430.516 350.397 430.385 350.928 430.238L345.04 409.04ZM332.721 421.403V472.853H354.721V421.403H332.721ZM340.561 462.317C340.589 462.308 340.37 462.372 339.783 462.482C339.23 462.586 338.488 462.705 337.531 462.836L340.504 484.634C342.742 484.329 345.029 483.945 346.882 483.389L340.561 462.317ZM337.462 462.846C335.96 463.06 334.326 463.176 332.549 463.176V485.176C335.281 485.176 337.959 484.998 340.573 484.624L337.462 462.846ZM332.549 463.176C330.88 463.176 329.537 463.061 328.478 462.885L324.861 484.585C327.329 484.997 329.906 485.176 332.549 485.176V463.176ZM328.581 462.902C328.457 462.881 328.463 462.869 328.56 462.909C328.662 462.952 328.823 463.034 329.006 463.171L315.806 480.771C318.559 482.835 321.648 484.019 324.758 484.568L328.581 462.902ZM329.006 463.171C329.191 463.309 329.341 463.461 329.451 463.6C329.557 463.734 329.592 463.814 329.581 463.791L309.645 473.095C311.015 476.03 313.038 478.695 315.806 480.771L329.006 463.171ZM329.913 464.581C329.945 464.665 329.892 464.554 329.836 464.167C329.78 463.785 329.731 463.213 329.731 462.416H307.731C307.731 465.629 308.101 469.072 309.314 472.305L329.913 464.581ZM329.731 462.416V377.156H307.731V462.416H329.731ZM320.699 387.979C321.568 387.82 322.972 387.599 324.991 387.31L321.88 365.532C319.783 365.831 318.05 366.099 316.764 366.333L320.699 387.979ZM325.403 387.244C326.92 386.968 328.418 386.833 329.903 386.833V364.833C327.077 364.833 324.262 365.09 321.468 365.598L325.403 387.244ZM329.903 386.833C331.583 386.833 332.834 386.949 333.725 387.107L337.548 365.441C335.107 365.011 332.535 364.833 329.903 364.833V386.833ZM333.828 387.124C334.029 387.158 334.063 387.183 333.977 387.149C333.884 387.112 333.688 387.019 333.446 386.838L346.646 369.238C343.787 367.093 340.575 365.945 337.445 365.424L333.828 387.124ZM333.446 386.838C333.119 386.593 332.855 386.313 332.663 386.046C332.477 385.787 332.404 385.605 332.393 385.575L352.992 377.851C351.772 374.598 349.726 371.548 346.646 369.238L333.446 386.838ZM332.724 386.365C332.578 386.052 332.588 385.948 332.629 386.182C332.669 386.412 332.721 386.864 332.721 387.593H354.721C354.721 384.281 354.283 380.539 352.66 377.061L332.724 386.365ZM332.721 387.593V401.999H354.721V387.593H332.721ZM347.67 412.266C348.208 412.059 349.516 411.657 351.928 411.1L346.981 389.664C344.297 390.283 341.783 390.959 339.773 391.732L347.67 412.266ZM352.215 411.03C353.838 410.609 355.789 410.353 358.127 410.353V388.353C354.194 388.353 350.362 388.783 346.694 389.734L352.215 411.03ZM358.127 410.353C366.018 410.353 370.595 412.323 373.366 414.842L388.165 398.564C380.156 391.283 369.64 388.353 358.127 388.353V410.353ZM373.522 414.981C375.923 417.082 377.997 420.814 377.997 428.312H399.997C399.997 416.602 396.584 405.928 388.009 398.425L373.522 414.981ZM377.997 428.312V472.853H399.997V428.312H377.997ZM429.711 473L426.17 483.414L426.293 483.457L426.418 483.496L429.711 473ZM416.775 465.65L409.453 473.859L409.507 473.908L409.562 473.955L416.775 465.65ZM408.102 453.449L397.96 457.709L397.996 457.794L398.033 457.879L408.102 453.449ZM408.102 419.639L398.102 415.056L398.08 415.104L398.058 415.152L408.102 419.639ZM416.481 408.173L423.639 416.525L423.707 416.467L423.774 416.407L416.481 408.173ZM428.241 401.558L431.508 412.061L431.614 412.029L431.719 411.994L428.241 401.558ZM455.877 401.705L452.04 412.014L452.079 412.029L452.117 412.043L455.877 401.705ZM466.902 408.173L459.528 416.336L459.593 416.394L459.658 416.451L466.902 408.173ZM474.105 418.022L464.021 422.417L464.068 422.525L464.117 422.632L474.105 418.022ZM473.958 438.161L466.392 430.176V430.176L473.958 438.161ZM466.167 441.542L464.566 430.659L464.552 430.661L464.537 430.663L466.167 441.542ZM429.858 446.981L428.228 436.102L415.283 438.042L419.422 450.46L429.858 446.981ZM436.473 454.331L431.553 464.17L431.67 464.228L431.789 464.284L436.473 454.331ZM459.258 455.213L462.202 465.812L462.297 465.785L462.392 465.757L459.258 455.213ZM468.078 451.538L473.908 442.21L468.154 438.614L462.358 442.142L468.078 451.538ZM472.047 455.654L481.433 449.918L472.047 455.654ZM467.49 471.089L462.385 461.345L462.357 461.36L462.329 461.375L467.49 471.089ZM456.906 474.47L455.274 463.592L456.906 474.47ZM435.591 418.757L431.123 408.705L431.014 408.753L430.907 408.804L435.591 418.757ZM431.475 421.844L439.583 429.277L439.731 429.116L439.872 428.949L431.475 421.844ZM428.976 425.96L418.676 422.098L418.604 422.288L418.54 422.481L428.976 425.96ZM428.094 430.517L417.115 429.831L416.254 443.602L429.871 441.372L428.094 430.517ZM453.231 426.401L455.008 437.256L465.719 435.503L464.109 424.769L453.231 426.401ZM449.997 420.521L457.972 412.945V412.945L449.997 420.521ZM445.881 464.352C441.1 464.352 436.831 463.705 433.003 462.504L426.418 483.496C432.586 485.431 439.097 486.352 445.881 486.352V464.352ZM433.252 462.586C429.633 461.355 426.583 459.599 423.987 457.345L409.562 473.955C414.414 478.169 419.988 481.313 426.17 483.414L433.252 462.586ZM424.096 457.441C421.761 455.358 419.757 452.625 418.17 449.019L398.033 457.879C400.758 464.073 404.536 469.474 409.453 473.859L424.096 457.441ZM418.243 449.189C416.868 445.915 416.015 441.687 416.015 436.25H394.015C394.015 443.945 395.219 451.183 397.96 457.709L418.243 449.189ZM416.015 436.25C416.015 430.909 416.869 426.982 418.145 424.126L398.058 415.152C395.218 421.508 394.015 428.655 394.015 436.25H416.015ZM418.101 424.222C419.69 420.755 421.582 418.288 423.639 416.525L409.322 399.821C404.519 403.938 400.825 409.115 398.102 415.056L418.101 424.222ZM423.774 416.407C426.028 414.411 428.573 412.974 431.508 412.061L424.973 391.055C419.088 392.886 413.793 395.859 409.187 399.939L423.774 416.407ZM431.719 411.994C435.018 410.894 438.352 410.353 441.765 410.353V388.353C435.965 388.353 430.283 389.282 424.762 391.122L431.719 411.994ZM441.765 410.353C445.849 410.353 449.228 410.968 452.04 412.014L459.713 391.396C454.097 389.306 448.068 388.353 441.765 388.353V410.353ZM452.117 412.043C455.256 413.184 457.663 414.652 459.528 416.336L474.275 400.01C470.064 396.206 465.121 393.362 459.636 391.367L452.117 412.043ZM459.658 416.451C461.572 418.126 463.003 420.083 464.021 422.417L484.188 413.627C481.874 408.317 478.503 403.708 474.145 399.895L459.658 416.451ZM464.117 422.632C465.168 424.908 465.751 427.486 465.751 430.517H487.751C487.751 424.532 486.57 418.78 484.092 413.412L464.117 422.632ZM465.751 430.517C465.751 431.179 465.656 431.328 465.72 431.152C465.755 431.058 465.824 430.901 465.947 430.711C466.072 430.519 466.224 430.335 466.392 430.176L481.523 446.146C486.183 441.732 487.751 435.92 487.751 430.517H465.751ZM466.392 430.176C466.618 429.962 466.354 430.396 464.566 430.659L467.767 452.425C472.643 451.708 477.573 449.888 481.523 446.146L466.392 430.176ZM464.537 430.663L428.228 436.102L431.487 457.86L467.796 452.421L464.537 430.663ZM419.422 450.46C421.513 456.732 425.878 461.332 431.553 464.17L441.392 444.492C440.798 444.195 440.566 443.963 440.496 443.885C440.44 443.823 440.371 443.735 440.293 443.502L419.422 450.46ZM431.789 464.284C436.816 466.65 442.282 467.683 447.939 467.683V445.683C444.971 445.683 442.793 445.148 441.156 444.378L431.789 464.284ZM447.939 467.683C452.856 467.683 457.627 467.082 462.202 465.812L456.314 444.614C453.832 445.304 451.057 445.683 447.939 445.683V467.683ZM462.392 465.757C466.569 464.515 470.469 462.96 473.797 460.934L462.358 442.142C461.178 442.86 459.198 443.755 456.123 444.669L462.392 465.757ZM462.248 460.866C462.25 460.867 462.255 460.871 462.266 460.879C462.276 460.888 462.297 460.906 462.328 460.937C462.387 460.999 462.505 461.136 462.66 461.39L481.433 449.918C479.57 446.871 477.087 444.197 473.908 442.21L462.248 460.866ZM462.66 461.39C462.693 461.444 462.706 461.472 462.708 461.475C462.709 461.478 462.702 461.463 462.693 461.432C462.684 461.401 462.676 461.364 462.67 461.324C462.665 461.285 462.664 461.256 462.664 461.24H484.664C484.664 457.143 483.506 453.31 481.433 449.918L462.66 461.39ZM462.664 461.24C462.664 461.484 462.636 461.552 462.651 461.493C462.659 461.466 462.674 461.417 462.701 461.355C462.728 461.293 462.762 461.228 462.8 461.167C462.838 461.106 462.874 461.06 462.9 461.029C462.926 460.999 462.936 460.992 462.919 461.007C462.887 461.036 462.734 461.162 462.385 461.345L472.594 480.833C476.033 479.031 479.188 476.446 481.44 472.852C483.713 469.227 484.664 465.219 484.664 461.24H462.664ZM462.329 461.375C460.415 462.391 458.102 463.167 455.274 463.592L458.537 485.348C463.549 484.597 468.292 483.119 472.65 480.803L462.329 461.375ZM455.274 463.592C451.813 464.111 448.688 464.352 445.881 464.352V486.352C449.933 486.352 454.158 486.005 458.537 485.348L455.274 463.592ZM441.765 406.581C438.202 406.581 434.566 407.175 431.123 408.705L440.058 428.809C440.144 428.771 440.623 428.581 441.765 428.581V406.581ZM430.907 408.804C427.962 410.19 425.276 412.141 423.077 414.739L439.872 428.949C439.863 428.96 439.869 428.949 439.912 428.917C439.958 428.882 440.068 428.807 440.274 428.71L430.907 408.804ZM423.366 414.411C421.289 416.677 419.734 419.277 418.676 422.098L439.275 429.822C439.393 429.507 439.504 429.363 439.583 429.277L423.366 414.411ZM418.54 422.481C417.745 424.867 417.272 427.326 417.115 429.831L439.072 431.203C439.112 430.572 439.226 429.993 439.411 429.438L418.54 422.481ZM429.871 441.372L455.008 437.256L451.453 415.546L426.316 419.662L429.871 441.372ZM464.109 424.769C463.378 419.896 460.835 415.959 457.972 412.945L442.022 428.097C442.223 428.309 442.359 428.475 442.446 428.591C442.533 428.707 442.565 428.765 442.563 428.762C442.561 428.759 442.525 428.692 442.481 428.565C442.435 428.435 442.386 428.256 442.352 428.033L464.109 424.769ZM457.972 412.945C453.396 408.129 447.336 406.581 441.765 406.581V428.581C442.613 428.581 442.908 428.699 442.842 428.675C442.802 428.661 442.681 428.612 442.516 428.507C442.348 428.4 442.177 428.261 442.022 428.097L457.972 412.945Z" fill="white" mask="url(#path-14-outside-1_1871_220)"/>
</svg>
