<svg width="96" height="96" viewBox="0 0 96 96" fill="none" xmlns="http://www.w3.org/2000/svg">
<path d="M48.0001 9.59998C26.7918 9.59998 9.6001 26.7916 9.6001 48C9.6001 69.2083 26.7918 86.4 48.0001 86.4C69.2084 86.4 86.4001 69.2083 86.4001 48C86.4001 26.7916 69.2084 9.59998 48.0001 9.59998ZM63.0584 58.5416C64.3168 59.7916 64.3168 61.8083 63.0584 63.0583C62.4418 63.6833 61.6168 64 60.8001 64C59.9834 64 59.1584 63.6833 58.5418 63.0583L48.0001 52.525L37.4584 63.0583C36.8418 63.6833 36.0168 64 35.2001 64C34.3834 64 33.5584 63.6833 32.9418 63.0583C31.6834 61.8083 31.6834 59.7916 32.9418 58.5416L43.4751 48L32.9418 37.4583C31.6834 36.2083 31.6834 34.1916 32.9418 32.9416C34.1918 31.6833 36.2084 31.6833 37.4584 32.9416L48.0001 43.475L58.5418 32.9416C59.7918 31.6833 61.8084 31.6833 63.0584 32.9416C64.3168 34.1916 64.3168 36.2083 63.0584 37.4583L52.5251 48L63.0584 58.5416Z" fill="white"/>
</svg>
