<?xml version="1.0" standalone="no"?>
<!DOCTYPE svg PUBLIC "-//W3C//DTD SVG 20010904//EN"
 "http://www.w3.org/TR/2001/REC-SVG-20010904/DTD/svg10.dtd">
<svg version="1.0" xmlns="http://www.w3.org/2000/svg"
 width="1280.000000pt" height="1280.000000pt" viewBox="0 0 1280.000000 1280.000000"
 preserveAspectRatio="xMidYMid meet">

<g transform="translate(0.000000,1280.000000) scale(0.100000,-0.100000)"
fill="#000000" stroke="none">
<path d="M6085 12794 c-762 -41 -1501 -210 -2182 -500 -1404 -598 -2545 -1669
-3224 -3026 -367 -734 -575 -1463 -656 -2303 -24 -253 -24 -877 0 -1130 67
-696 224 -1325 483 -1932 598 -1404 1669 -2545 3026 -3224 734 -367 1463 -575
2303 -656 253 -24 877 -24 1130 0 697 67 1324 224 1932 483 1405 598 2544
1668 3224 3026 367 734 575 1463 656 2303 24 253 24 877 0 1130 -67 696 -224
1325 -483 1932 -598 1404 -1669 2545 -3026 3224 -731 366 -1473 578 -2293 654
-162 15 -732 27 -890 19z m-865 -4029 l0 -1185 1180 0 1180 0 0 1185 0 1185
1185 0 1185 0 0 -1185 0 -1185 -1180 0 -1180 0 0 -1180 0 -1180 1180 0 1180 0
0 -1185 0 -1185 -1185 0 -1185 0 0 1185 0 1185 -1180 0 -1180 0 0 -1185 0
-1185 -1185 0 -1185 0 0 1185 0 1185 1185 0 1185 0 0 1180 0 1180 -1185 0
-1185 0 0 1185 0 1185 1185 0 1185 0 0 -1185z"/>
</g>
</svg>
