<svg width="147" height="70" viewBox="0 0 147 70" fill="none" xmlns="http://www.w3.org/2000/svg">
<path d="M87.8805 64.989C89.3563 65.7422 91.1632 65.1565 91.9164 63.6807C92.6696 62.205 92.0838 60.398 90.6081 59.6448L87.8805 64.989ZM55.399 48.8816L56.131 45.9722L55.399 48.8816ZM52.6478 29.0136L50.3311 30.9198C51.3407 32.1467 53.1317 32.3737 54.4155 31.4375L52.6478 29.0136ZM77.5523 33.6142L74.5758 33.9891L77.5523 33.6142ZM87.8768 30.2214L88.995 33.0052L87.8768 30.2214ZM115.158 23.3681L115.573 26.3392L115.158 23.3681ZM114.953 25.4037L112.624 23.5131L114.953 25.4037ZM76.9081 64.9189C75.9842 66.2942 76.3502 68.1582 77.7255 69.0821C79.1008 70.006 80.9648 69.64 81.8887 68.2647L76.9081 64.9189ZM90.6081 59.6448C79.9461 54.2032 67.982 48.9539 56.131 45.9722L54.667 51.7909C65.8905 54.6147 77.3975 59.6387 87.8805 64.989L90.6081 59.6448ZM77.204 15.3192C77.6567 14.8699 78.0681 14.2593 78.3189 13.8792C78.5972 13.4573 78.9349 12.9139 79.1493 12.5794C79.4429 12.1211 79.5351 12.0092 79.4976 12.0503C79.4771 12.0729 79.3576 12.2049 79.1541 12.3524C79.0554 12.4239 78.3767 12.9319 77.3416 12.8843C76.7255 12.856 76.1074 12.6322 75.5977 12.2104C75.1276 11.8212 74.8854 11.3773 74.764 11.0859C74.5463 10.5631 74.5523 10.1312 74.5523 10.0685H80.5523C80.5523 9.88278 80.5454 9.36153 80.303 8.77943C79.9996 8.0509 79.1566 6.96146 77.6174 6.89064C76.5354 6.84086 75.7994 7.37362 75.6341 7.49341C75.3639 7.68913 75.1686 7.89301 75.064 8.00765C74.6907 8.41704 74.3185 8.99725 74.0973 9.34244C73.7969 9.81132 73.5695 10.1827 73.3108 10.5747C73.0247 11.0083 72.9272 11.1105 72.9776 11.0604L77.204 15.3192ZM74.5758 33.9891C74.6827 34.838 75.1055 35.6442 75.8261 36.2147C76.4636 36.7194 77.1395 36.8866 77.5712 36.9489C78.3926 37.0676 79.1954 36.9243 79.7144 36.8081C80.8549 36.5529 82.2112 36.0405 83.4232 35.5359C84.677 35.014 85.9531 34.4247 86.9783 33.9435C88.0904 33.4214 88.7509 33.1033 88.995 33.0052L86.7586 27.4376C86.3032 27.6205 85.3502 28.0796 84.4287 28.5121C83.4203 28.9855 82.243 29.5281 81.1173 29.9967C79.9498 30.4827 79.0007 30.8194 78.4038 30.953C78.0542 31.0313 78.1304 30.9674 78.4289 31.0106C78.5991 31.0351 79.0646 31.1259 79.5503 31.5104C80.119 31.9606 80.4486 32.6029 80.5288 33.2393L74.5758 33.9891ZM88.995 33.0052C97.172 29.7206 106.712 27.5778 115.573 26.3392L114.743 20.397C105.583 21.6772 95.532 23.9134 86.7586 27.4376L88.995 33.0052ZM115.573 26.3392C115.968 26.2841 116.235 26.2533 116.412 26.2387C116.634 26.2204 116.568 26.2411 116.377 26.2181C116.291 26.2077 115.954 26.1654 115.55 25.9655C115.101 25.7443 114.356 25.2091 114.056 24.1708C113.782 23.2212 114.066 22.464 114.199 22.1751C114.341 21.865 114.502 21.6709 114.542 21.6239C114.624 21.525 114.664 21.4994 114.525 21.6243C114.317 21.8111 114.366 21.7627 114.063 22.0338C113.677 22.3784 113.136 22.8822 112.624 23.5131L117.282 27.2944C117.492 27.0356 117.754 26.782 118.063 26.5054C118.107 26.4658 118.476 26.1409 118.537 26.0857C118.667 25.9685 118.925 25.7355 119.151 25.4643C119.262 25.3311 119.477 25.0595 119.651 24.6809C119.815 24.3234 120.109 23.5065 119.82 22.506C119.506 21.4169 118.721 20.8397 118.206 20.5855C117.734 20.3527 117.304 20.2863 117.093 20.2609C116.376 20.1749 115.461 20.2966 114.743 20.397L115.573 26.3392ZM30.7842 42.2174C31.8644 42.2174 32.5658 42.8963 32.8365 43.3635C33.0192 43.6788 32.9908 43.8407 32.9623 43.5652C32.9114 43.0733 32.9457 42.1324 33.1353 40.6887C33.5042 37.8796 34.3399 34.0004 35.324 29.8643C36.3087 25.7256 37.3895 21.5403 38.2593 17.9916C38.6881 16.242 39.064 14.6522 39.334 13.3593C39.5819 12.1721 39.8083 10.9367 39.8083 10.0653H33.8083C33.8083 10.0555 33.8084 10.0999 33.7962 10.2185C33.7846 10.331 33.7653 10.48 33.7357 10.6698C33.6762 11.0513 33.5846 11.5393 33.4607 12.1329C33.2129 13.3196 32.8575 14.8263 32.4317 16.5633C31.5925 19.9877 30.4719 24.3357 29.4869 28.4755C28.5014 32.6179 27.5993 36.7625 27.1864 39.9075C26.985 41.4409 26.8675 42.9596 26.9942 44.1831C27.0545 44.7653 27.1973 45.5988 27.6449 46.3713C28.1804 47.2957 29.2404 48.2174 30.7842 48.2174V42.2174ZM56.131 45.9722C48.7952 44.1266 38.7439 42.2174 30.7842 42.2174V48.2174C38.0054 48.2174 47.4931 49.986 54.667 51.7909L56.131 45.9722ZM79.6593 59.7457C78.7417 61.567 77.7945 63.5994 76.9081 64.9189L81.8887 68.2647C83.0511 66.5342 84.2644 63.9404 85.0177 62.4454L79.6593 59.7457ZM112.624 23.5131C107.795 29.4624 101.713 34.5683 95.5535 40.308C89.5179 45.9323 83.5225 52.078 79.6593 59.7457L85.0177 62.4454C88.369 55.7937 93.6775 50.2574 99.6439 44.6975C105.486 39.2531 112.105 33.6728 117.282 27.2944L112.624 23.5131ZM74.5523 10.0685C74.5523 13.8572 74.3176 17.6686 74.1936 21.7729C74.0723 25.7873 74.0659 29.9407 74.5758 33.9891L80.5288 33.2393C80.0785 29.6647 80.0721 25.8863 80.1909 21.9541C80.3069 18.1118 80.5523 13.9618 80.5523 10.0685H74.5523ZM54.4155 31.4375C56.8392 29.6699 61.7102 26.4207 66.4351 23.1996C68.7716 21.6068 71.057 20.0308 72.9289 18.6847C74.726 17.3924 76.3508 16.1659 77.204 15.3192L72.9776 11.0604C72.5238 11.5108 71.3085 12.4596 69.4259 13.8134C67.6181 15.1134 65.3842 16.6544 63.0554 18.242C58.4497 21.3818 53.4062 24.7475 50.88 26.5898L54.4155 31.4375ZM39.8083 10.0653C39.8083 9.75429 39.8514 9.8487 39.7422 10.124C39.6011 10.4795 39.1115 11.289 38.0212 11.5325C37.5719 11.6329 37.2021 11.5866 36.9796 11.5344C36.7623 11.4835 36.6288 11.4145 36.5935 11.3955C36.5366 11.3649 36.6139 11.3992 36.8397 11.606C37.803 12.4879 39.3245 14.4678 41.1434 17.1094C42.905 19.6677 44.7628 22.5719 46.397 25.1118C47.9625 27.5449 49.4463 29.8444 50.3311 30.9198L54.9644 27.1075C54.3642 26.3781 53.1257 24.4808 51.4428 21.8653C49.8287 19.3565 47.9123 16.3602 46.0852 13.7067C44.3155 11.1365 42.4341 8.59311 40.8915 7.18071C40.4908 6.81389 39.9977 6.41396 39.4377 6.11245C38.9442 5.84677 37.9349 5.40391 36.713 5.67686C35.265 6.00034 34.496 7.07718 34.165 7.9115C33.8658 8.66567 33.8083 9.45045 33.8083 10.0653H39.8083Z" fill="#FAA34A"/>
<path d="M12.7706 34.4055C12.3922 32.3624 11.7932 30.3395 11.1809 28.357C8.56177 19.8759 5.73046 11.4454 3 3" stroke="#FAA34A" stroke-width="6" stroke-linecap="round"/>
<path d="M127.227 43.1289C129.254 43.1289 131.116 40.9298 132.965 40.1822C136.247 38.8552 140.164 38.7541 143.278 37.1968" stroke="#FAA34A" stroke-width="6" stroke-linecap="round"/>
</svg>
