<svg width="355" height="355" viewBox="0 0 355 355" fill="none" xmlns="http://www.w3.org/2000/svg">
<g clip-path="url(#clip0_211_2659)">
<path d="M226.646 348.055C219.348 350.171 211.86 351.799 204.21 352.965C141.539 362.515 78.515 337.881 38.9048 288.368C-0.70546 238.855 -10.9065 171.952 12.1814 112.889C35.2693 53.8267 88.092 11.5576 150.79 2.00774C157.6 0.9768 164.41 0.325676 171.192 0.108635L173.417 62.2642C169.022 62.4269 164.599 62.8339 160.177 63.5121C119.455 69.725 85.1348 97.1808 70.1318 135.543C55.1287 173.905 61.7485 217.368 87.4951 249.545C113.242 281.721 154.154 297.701 194.904 291.515C199.869 290.756 204.725 289.697 209.473 288.314L226.701 348.082L226.646 348.055Z" fill="#F8462C"/>
<path d="M353.399 153.639C357.387 183.048 354.023 213.488 342.846 242.111C323.42 291.868 282.861 329.687 233.104 346.074L213.624 287.011C245.936 276.349 272.28 251.796 284.922 219.457C292.193 200.873 294.364 181.095 291.786 161.995L353.426 153.639L353.399 153.639Z" fill="#FAA34A"/>
<path d="M304.103 53.0669C308.308 57.3535 312.324 61.8571 316.122 66.632C334.869 90.0726 347.023 117.393 352.178 145.907L290.972 156.976C287.608 138.446 279.713 120.703 267.559 105.483C265.09 102.39 262.485 99.4597 259.745 96.6924L304.103 53.094L304.103 53.0669Z" fill="#FDE048"/>
<path d="M225.019 6.45717C252.394 14.0537 277.788 28.1885 298.841 47.9123L256.328 93.3013C242.654 80.4958 226.159 71.2986 208.361 66.3609L225.019 6.43005L225.019 6.45717Z" fill="#C7C0D9"/>
<path d="M178.708 0.000144941C192.137 0.0815347 205.431 1.70936 218.318 4.74795L204.02 65.2757C195.637 63.2952 187.01 62.2371 178.301 62.1828L178.735 -0.0269699L178.708 0.000144941Z" fill="#EFE8E3"/>
</g>
<defs>
<clipPath id="clip0_211_2659">
<rect width="355" height="355" fill="white" transform="translate(0 355) rotate(-90)"/>
</clipPath>
</defs>
</svg>
