<svg width="349" height="472" viewBox="0 0 349 472" fill="none" xmlns="http://www.w3.org/2000/svg">
<g clip-path="url(#clip0_211_2574)">
<path fill-rule="evenodd" clip-rule="evenodd" d="M68.5774 146.748L85.1067 240.012C85.1067 240.012 62.2109 203.183 58.5584 194.661C54.9059 186.138 54.9228 180.973 46.1974 179.967C37.472 178.96 32.5935 178.724 32.5935 178.724C32.5935 178.724 25.1617 182.926 15.8529 172.983C6.5356 163.04 -2.28282 150.984 2.69709 133.559C2.69709 133.559 10.5855 115.314 26.6413 116.379C26.6413 116.379 38.2836 117.148 31.469 111.779C24.6459 106.411 17.3071 97.6601 25.8803 82.0359C25.8803 82.0359 32.3906 65.2195 73.7011 52.7404C73.7011 52.7404 105.66 44.7676 121.987 41.4618C125.022 40.8531 128.108 40.4895 131.203 40.3796C134.475 40.2612 139.463 39.1114 138.195 32.9902C138.195 32.9902 133.714 14.3222 147.994 4.98827C153.067 1.69094 159.231 0.524189 165.157 1.74166C173.595 3.45797 185.72 8.88588 179.218 25.9559C179.218 25.9559 187.039 11.8281 199.628 9.13106C205.081 7.94741 210.704 10.1287 213.934 14.6773C217.163 19.2175 217.383 25.2542 214.475 30.0141C212.86 32.652 210.366 35.4759 206.671 38.435C206.671 38.435 253.671 23.3603 262.101 49.8235C262.101 49.8235 268.78 73.5812 229.414 76.3797C229.414 76.3797 239.383 83.8198 237.785 95.352C237.785 95.352 238.098 104.517 229.034 105.591C219.962 106.664 215.701 105.32 215.701 105.32C215.701 105.32 210.552 108.144 208.759 111.382C198.199 101.744 186.455 94.5319 173.807 89.1885C171.372 87.413 98.3724 110.207 77.937 124.546C77.937 124.546 81.116 137.989 91.972 148.16L68.5774 146.765V146.748Z" fill="#C7C0D9"/>
<path fill-rule="evenodd" clip-rule="evenodd" d="M185.178 18.0424C185.178 18.0424 210.188 22.4473 196.71 45.5286C196.71 45.5286 217.721 42.6878 210.661 66.3271C210.661 66.3271 229.262 90.2962 201.149 98.083C191.35 98.2774 185.719 94.0585 180.3 87.2863L174.068 88.8589L209.503 110.283L215.658 105.202C215.658 105.202 227.342 112.566 234.478 101.634C241.614 90.7105 239.72 87.8528 229.608 74.9932C229.608 74.9932 261.407 78.8316 262.937 50.2294C262.937 50.2294 257.966 32.7536 238.359 32.6606C218.752 32.5676 207.955 38.3252 207.955 38.3252C207.955 38.3252 225.905 24.4426 210.644 10.3656C210.644 10.3656 202.265 3.00152 185.161 18.034L185.178 18.0424Z" fill="#807A8F"/>
<path fill-rule="evenodd" clip-rule="evenodd" d="M25.204 179.865C25.204 179.865 16.783 212.027 25.3901 236.968C25.3901 236.968 44.6841 300.04 108.747 300.649C108.747 300.649 157.244 305.925 189.431 293.538C189.431 293.538 225.72 283.731 238.816 234.567C238.816 234.567 249.774 191.921 240.778 162.398C240.778 162.398 229.846 114.51 175.43 89.5605C175.43 89.5605 99.8943 108.55 77.6073 124.884C77.6073 124.884 82.824 141.608 91.9806 148.236L68.7043 147.67L84.3881 238.084L60.3763 197.874C60.3763 197.874 57.2903 190.273 56.0812 187.677C54.8637 185.082 53.4095 181.133 48.8269 180.423C44.2444 179.713 32.9318 178.174 32.9318 178.174C31.4184 179.713 29.0933 180.499 25.221 179.857L25.204 179.865Z" fill="white"/>
<path fill-rule="evenodd" clip-rule="evenodd" d="M140.41 100.247C140.41 100.247 193.811 126.499 208.108 171.106C208.108 171.106 220.444 240.13 184.477 267.802C184.477 267.802 153.363 296.235 122.908 300.175C122.908 300.175 162.942 308.334 200.896 287.815C200.896 287.815 231.942 276.73 241.209 220.591C241.209 220.591 247.491 176.103 237.962 152.861C224.967 127.235 205.808 104.813 173.181 89.3914L140.402 100.239L140.41 100.247Z" fill="#C7C0D9"/>
<path fill-rule="evenodd" clip-rule="evenodd" d="M105.973 383.099C105.973 383.099 95.5485 390.311 90.4671 391.9C90.4671 391.9 85.91 395.248 83.661 389.88C81.4204 384.511 81.0569 380.005 81.0569 380.005C81.0569 380.005 70.6151 360.762 69.1186 354.979C67.6221 349.196 67.3431 342.254 72.7711 335.102C78.1991 327.941 100.055 310.583 100.055 310.583C100.055 310.583 107.174 322.47 111.486 325.108C115.789 327.746 132.26 340.158 146.65 337.782C146.65 337.782 146.988 330.655 145.322 325.235C143.657 319.816 135.109 302.424 135.109 302.424L177.299 309.053C177.299 309.053 184.908 310.515 187.8 314.692C190.7 318.869 203.407 333.419 203.407 333.419C203.407 333.419 203.965 338.661 202.147 341.138C202.147 341.138 185.627 345.814 183.056 349.914L195.214 368.041L234.707 467.291L150.387 471.011L105.973 383.107V383.099Z" fill="#F5F1FF"/>
<path fill-rule="evenodd" clip-rule="evenodd" d="M209.461 425.812C209.461 425.812 215.041 460.096 197.074 468.948L234.783 467.122L215.142 424.519L209.452 425.804L209.461 425.812Z" fill="#807A8F"/>
<path fill-rule="evenodd" clip-rule="evenodd" d="M140.122 311.995C147.055 311.961 154.487 311.978 161.116 316.045C164.159 317.905 168.192 323.147 168.801 331.28C169.106 335.372 172.378 344.943 180.959 351.986C183.91 354.404 183.868 357.524 184.764 360.669C188.721 374.67 193.861 386.997 193.861 386.997L233.456 467.663L198.055 367.821L202.866 340.766C202.866 340.766 204.954 336.083 202.773 333.115C200.591 330.139 184.933 311.555 184.933 311.555C184.933 311.555 149.203 301.376 136.174 302.602L140.139 312.004L140.122 311.995Z" fill="#807A8F"/>
<path fill-rule="evenodd" clip-rule="evenodd" d="M195.46 367.55C195.46 367.55 186.092 357.667 183.521 349.424C183.521 349.424 192.323 342.389 202.452 341.468L212.403 357.32L195.46 367.542V367.55Z" fill="#F5F1FF"/>
<path fill-rule="evenodd" clip-rule="evenodd" d="M249.596 365.124L249.808 311.674C249.808 311.674 235.46 302.137 241.657 281.66C241.657 281.66 245.682 269.392 258.533 271.167C258.533 271.167 262.617 258.333 274.876 258.578C287.127 258.823 296.681 259.229 296.681 259.229L311.537 256.853C311.537 256.853 321.09 252.026 321.75 259.593C322.409 267.151 317.675 271.81 302.219 274.549C302.219 274.549 335.109 284.898 341.974 293.302C341.974 293.302 355.561 306.212 343.242 309.391C343.242 309.391 350.015 319.198 345.356 323.028C345.356 323.028 333.68 327.754 323.982 319.258C323.982 319.258 330.289 327.137 320.659 329.894C320.659 329.894 313.549 328.98 308.941 325.117C304.333 321.253 293.096 313.973 293.096 313.973L274.242 307.497C274.242 307.497 272.779 312.359 269.288 314.362C269.288 314.362 273.025 315.216 272.306 324.204C271.579 333.191 272.086 394.005 272.086 394.005C272.086 394.005 274.462 411.684 258.093 416.047L239.281 416.14L235.451 404.591C235.451 404.591 241.344 399.07 237.015 387.664C237.015 387.664 241.293 382.042 245.859 380.055C250.416 378.068 255.337 374.069 249.622 365.124H249.596Z" fill="white"/>
<path fill-rule="evenodd" clip-rule="evenodd" d="M255.632 305.274C255.632 305.274 263.233 305.071 266.675 305.764C270.116 306.457 273.252 307.844 273.252 307.844C273.252 307.844 272.635 312.435 269.355 314.76C269.355 314.76 271.587 314.464 271.832 318.319C272.077 322.166 271.57 378.779 271.57 378.779L263.859 319.055C263.859 319.055 263.352 313.407 262.05 311.666C260.748 309.924 258.93 305.942 255.624 305.274H255.632Z" fill="#C7C0D9"/>
<path fill-rule="evenodd" clip-rule="evenodd" d="M67.4276 471.028L149.161 470.554L146.21 465.558C139.26 465.329 135.836 459.276 135.836 459.276L90.6446 392.069C90.6446 392.069 90.2219 394.496 85.9945 392.441C81.767 390.387 80.1014 377.705 80.1014 377.705C69.4229 362.03 68.104 345.611 68.104 345.611C71.0463 329.953 100.723 310.997 100.723 310.997L95.5146 298.975C71.8495 296.65 46.8231 273.103 46.8231 273.103C46.8231 273.103 3.14522 301.122 20.0888 351.402L67.4191 471.028H67.4276Z" fill="#807A8F"/>
<path fill-rule="evenodd" clip-rule="evenodd" d="M89.7656 392.585L106.337 383.285L141.374 435.552C147.935 446.264 154.268 438.638 154.268 438.638L182.406 422.946C182.406 422.946 193 413.333 195.451 410.23C197.912 407.127 198.301 403.305 198.301 403.305C198.301 403.305 194.995 393.608 193.862 387.732C192.729 381.856 195.325 368.007 195.325 368.007L213.156 357.118C217.662 354.953 220.123 361.776 220.123 361.776C229.846 357.769 234.598 365.741 234.598 365.741C236.466 364.735 245.842 365.183 248.599 366.359C251.355 367.525 251.499 373.249 250.89 375.481C250.29 377.705 248.303 378.973 244.245 381.103C240.186 383.234 237.616 387.453 237.616 387.453C237.616 387.453 241.759 396.474 234.919 404.734L237.261 414.939C237.261 414.939 239.603 418.558 232.881 422.109C226.16 425.66 186.464 448.335 186.464 448.335C186.464 448.335 165.462 458.388 152.222 464.729C146.16 467.629 138.888 465.65 135.134 460.07C121.192 439.331 89.7741 392.602 89.7741 392.602L89.7656 392.585Z" fill="white"/>
<path fill-rule="evenodd" clip-rule="evenodd" d="M186.455 448.31C186.455 448.31 219.31 426.082 224.409 416.072C229.515 406.062 228.281 400.05 228.814 394.792C229.346 389.533 231.528 385.381 234.267 382.177C237.006 378.964 242.511 375.033 242.511 375.033L250.72 368.743C250.72 368.743 253.612 374.28 251.016 377.138C248.42 379.996 239.61 384.079 239.61 384.079L236.947 387.47C236.947 387.47 242.468 393.642 234.622 404.033L237.226 414.55C237.226 414.55 240.794 416.512 232.17 422.286C223.546 428.061 186.446 448.327 186.446 448.327L186.455 448.31Z" fill="#C7C0D9"/>
<path d="M137.704 302.61C137.704 302.61 179.243 307.328 185.229 311.902C185.229 311.902 199.754 331.196 203.246 333.859C203.246 333.859 204.498 337.207 202.511 340.935C202.511 340.935 187.427 344.52 183.352 349.627" stroke="black" stroke-width="3" stroke-linecap="round" stroke-linejoin="round"/>
<path d="M99.3702 311.234C99.3702 311.234 73.6674 328.997 69.5329 341.772C69.5329 341.772 65.8128 349.568 70.6743 361.032C75.5359 372.497 79.8648 378.305 80.5665 381.188C81.2683 384.071 83.1115 392.974 86.6456 393.253C90.1797 393.532 96.4786 389.161 99.7675 387.216C103.065 385.272 106.87 382.439 107.005 379.286C107.14 376.132 100.985 361.937 97.2903 357.084" stroke="black" stroke-width="3" stroke-linecap="round" stroke-linejoin="round"/>
<path fill-rule="evenodd" clip-rule="evenodd" d="M173.375 329.209C173.274 328.913 173.426 328.591 173.722 328.49C174.018 328.388 174.339 328.541 174.44 328.837C174.44 328.837 178.947 340.91 185.491 352.493C188.425 357.684 191.773 362.782 195.307 366.612C195.772 367.136 195.73 367.939 195.206 368.404C194.681 368.869 193.878 368.827 193.413 368.303C189.896 364.236 186.607 358.884 183.758 353.44C177.535 341.544 173.375 329.217 173.375 329.217V329.209Z" fill="black"/>
<path d="M202.215 341.502C202.215 341.502 207.888 352.484 211.448 356.534" stroke="black" stroke-width="3" stroke-linecap="round" stroke-linejoin="round"/>
<path fill-rule="evenodd" clip-rule="evenodd" d="M250.603 365.775C250.611 366.443 250.078 367.001 249.41 367.01C248.742 367.018 248.184 366.485 248.176 365.817C248.176 365.817 247.187 348.595 246.519 333.656C246.105 324.466 245.817 316.155 245.724 313.28C244.329 311.657 241.209 307.666 239.121 302.466C237.464 298.341 236.5 293.479 237.286 288.533C238.394 282.175 240.364 277.212 243.627 273.991C246.155 271.497 249.385 269.941 253.579 269.62C254.898 269.527 256.208 269.535 257.51 269.688C258.804 269.831 260.08 270.085 261.332 270.474L270.573 273.34C270.953 273.433 271.182 273.822 271.089 274.202C270.996 274.583 270.607 274.811 270.226 274.718L260.723 272.875C259.599 272.655 258.466 272.545 257.333 272.537C256.208 272.528 255.084 272.63 253.968 272.824C249.994 273.501 247.288 275.487 245.462 278.531C243.805 281.287 242.917 284.906 242.477 289.235C242.021 293.2 243.103 296.996 244.473 300.26C246.916 306.077 250.594 310.245 250.594 310.245C251.068 310.752 251.33 311.42 251.347 312.113C251.347 312.113 251.364 322.166 251.22 333.571C251.034 348.519 250.611 365.767 250.611 365.767L250.603 365.775Z" fill="black"/>
<path fill-rule="evenodd" clip-rule="evenodd" d="M261.281 270.973C261.036 272.072 259.945 272.774 258.846 272.528C257.747 272.283 257.045 271.193 257.29 270.085C257.29 270.085 258.66 263.871 264.95 260.041C267.783 258.316 271.63 257.048 276.846 257.158C286.189 257.352 292.555 258.096 297.907 258.189C300.985 258.24 303.716 258.079 306.497 257.437C311.342 256.321 315.071 254.258 317.666 254.114C319.915 253.987 321.632 254.816 322.638 257.851C323.898 261.656 323.695 265.959 318.512 269.696C315.265 272.03 309.896 274.169 301.348 275.724C300.731 275.843 300.139 275.437 300.021 274.82C299.903 274.202 300.308 273.602 300.926 273.484C308.941 271.877 313.972 269.848 316.981 267.599C320.786 264.75 320.964 261.58 319.974 258.764C319.509 257.437 318.858 256.946 317.869 257.023C315.383 257.209 311.866 259.322 307.241 260.481C304.215 261.233 301.247 261.478 297.89 261.487C292.53 261.487 286.155 260.861 276.812 260.844C272.492 260.836 269.321 261.884 267.005 263.355C262.312 266.331 261.298 270.981 261.298 270.981L261.281 270.973Z" fill="black"/>
<path fill-rule="evenodd" clip-rule="evenodd" d="M297.823 274.904C297.324 274.811 296.994 274.321 297.087 273.822C297.18 273.323 297.67 272.994 298.169 273.087C298.169 273.087 307.36 274.338 317.97 278.049C322.096 279.495 326.408 281.372 330.484 283.596C337.73 287.544 344.181 292.693 347.571 298.941C347.968 299.558 349.735 302.576 348.653 305.586C348.07 307.201 346.717 308.884 343.749 310.101C343.174 310.346 342.507 310.084 342.253 309.509C341.999 308.934 342.27 308.258 342.845 308.013C344.925 307.074 345.939 305.95 346.311 304.792C347.03 302.56 345.33 300.412 345.33 300.412C345.297 300.37 345.271 300.319 345.246 300.277C341.932 294.561 335.7 290.106 328.911 286.529C324.937 284.433 320.761 282.674 316.821 281.135C306.565 277.111 297.814 274.913 297.814 274.913L297.823 274.904Z" fill="black"/>
<path fill-rule="evenodd" clip-rule="evenodd" d="M306.912 291.814C306.455 291.661 306.21 291.171 306.362 290.723C306.514 290.266 307.005 290.021 307.453 290.173C307.453 290.173 322.807 294.663 334.559 301.892C337.586 303.752 340.351 305.815 342.583 307.996C345.483 310.828 347.453 313.906 348.053 317.034C348.248 317.786 348.958 320.932 347.512 323.265C346.607 324.728 344.925 326.021 341.695 326.097C341.695 326.097 337.747 326.199 332.31 324.043C329.816 323.054 327.001 321.591 324.117 319.418C324.117 319.418 324.109 319.41 324.101 319.401C324.101 319.401 316.128 313.145 310.057 308.706C307.267 306.669 304.9 305.011 303.936 304.597C303.479 304.403 303.259 303.878 303.454 303.422C303.648 302.965 304.172 302.746 304.629 302.94C305.652 303.354 308.222 304.995 311.232 307.049C317.463 311.31 325.665 317.338 325.648 317.321C328.362 319.258 330.991 320.534 333.316 321.388C338.136 323.155 341.602 323.02 341.594 323.02C343.335 322.935 344.308 322.411 344.781 321.608C345.694 320.052 344.883 317.905 344.883 317.905C344.857 317.837 344.84 317.77 344.832 317.702C344.316 315.157 342.566 312.747 340.207 310.431C338.136 308.393 335.565 306.466 332.809 304.639C321.556 297.182 306.92 291.822 306.92 291.822L306.912 291.814Z" fill="black"/>
<path d="M261.483 305.832C261.483 305.832 282.282 307.48 297.958 317.321C297.958 317.321 313.616 329.234 316.821 330.046C320.016 330.866 324.793 329.775 325.656 326.326C325.656 326.326 326.721 321.354 322.756 316.916" stroke="black" stroke-width="3" stroke-linecap="round" stroke-linejoin="round"/>
<path fill-rule="evenodd" clip-rule="evenodd" d="M272.01 308.884C271.613 308.436 271.655 307.751 272.095 307.362C272.543 306.964 273.228 307.007 273.617 307.446C273.617 307.446 275.181 309.061 274.208 311.691C273.887 312.57 273.244 313.584 272.052 314.7C272.238 314.878 272.416 315.089 272.585 315.335C273.016 315.952 273.354 316.789 273.422 317.939C273.422 317.964 273.422 317.981 273.422 317.998C273.422 317.998 273.904 341.434 274.065 361.742C274.183 376.276 274.115 389.195 274.107 390.75C274.284 392.154 275.172 400.439 271.731 407.499C269.423 412.234 265.272 416.47 257.848 417.89C257.738 417.915 257.62 417.924 257.51 417.932L238.875 418.541C237.726 418.583 236.762 417.687 236.711 416.537C236.66 415.387 237.565 414.424 238.715 414.381C238.715 414.381 257.155 413.578 257.163 413.578C262.786 412.403 265.948 409.173 267.681 405.546C270.818 399.002 269.567 391.258 269.567 391.258C269.55 391.139 269.541 391.012 269.541 390.894C269.541 390.894 269.55 377.231 269.778 361.734C270.074 341.646 270.7 318.488 270.708 317.998C270.691 317.474 270.581 317.076 270.395 316.78C270.065 316.256 269.592 316.087 269.592 316.087C269.11 315.977 268.73 315.588 268.637 315.098C268.544 314.607 268.747 314.109 269.152 313.821C270.463 312.942 271.283 312.13 271.756 311.395C272.703 309.89 272.002 308.884 272.002 308.884H272.01Z" fill="black"/>
<path fill-rule="evenodd" clip-rule="evenodd" d="M284.819 271.505C284.853 271.108 285.2 270.804 285.605 270.838C286.011 270.871 286.307 271.218 286.273 271.624C286.392 274.067 286.375 276.57 285.994 279.115C285.842 280.112 285.622 281.102 285.343 282.082C285.157 282.733 284.937 283.376 284.675 284.001C284.007 285.583 283.162 287.071 282.181 288.457C280.685 290.562 278.901 292.372 276.829 293.877C276.483 294.189 275.95 294.164 275.629 293.817C275.316 293.471 275.341 292.938 275.688 292.617C276.711 291.45 277.548 290.173 278.326 288.829C279.087 287.519 279.704 286.132 280.296 284.712C280.642 283.875 280.947 283.012 281.276 282.158C281.606 281.304 281.953 280.451 282.274 279.597C282.663 278.54 283.052 277.5 283.399 276.443C283.948 274.769 284.464 273.163 284.828 271.514L284.819 271.505Z" fill="black"/>
<path d="M105.66 382.668C105.66 382.668 131.456 421.407 141.906 437.116C144.375 440.819 149.245 442.053 153.177 439.974C162.426 435.07 178.059 426.607 181.729 423.504C187.021 419.023 197.057 410.264 198.385 406.476C199.712 402.688 193.701 391.139 193.642 385.88C193.582 380.63 193.16 371.702 195.062 368.777C196.956 365.851 210.45 359.941 213.781 356.517C213.781 356.517 218.355 355.849 219.141 360.77" stroke="black" stroke-width="3" stroke-linecap="round" stroke-linejoin="round"/>
<path d="M204.362 372.784C204.362 372.784 215.151 365.674 219.708 361.142C219.708 361.142 225.99 360.06 230.598 361.633C230.598 361.633 233.861 363.383 234.166 365.902" stroke="black" stroke-width="3" stroke-linecap="round" stroke-linejoin="round"/>
<path d="M222.532 375.287C222.532 375.287 230.979 366.697 236.39 365.555C236.39 365.555 244.574 365.378 247.516 366.113C250.459 366.849 252.217 370.146 250.898 376.47C250.898 376.47 250.788 378.576 242.41 382.245C242.41 382.245 238.326 383.725 236.305 388.831" stroke="black" stroke-width="3" stroke-linecap="round" stroke-linejoin="round"/>
<path d="M237.607 387.428C237.607 387.428 241.75 396.449 234.91 404.709L237.252 414.914C237.252 414.914 239.594 418.533 232.873 422.084C226.151 425.634 186.455 448.31 186.455 448.31C186.455 448.31 165.454 458.363 152.213 464.704C146.151 467.604 138.88 465.625 135.126 460.045C121.184 439.306 89.7656 392.577 89.7656 392.577" stroke="black" stroke-width="3" stroke-linecap="round" stroke-linejoin="round"/>
<path d="M95.0576 299.795C95.0576 299.795 104.857 318.903 110.547 324.356C110.547 324.356 132.09 341.772 146.877 337.723C146.877 337.723 147.706 330.646 143.901 322.724C140.088 314.802 135.227 302.002 135.227 302.002" stroke="black" stroke-width="3" stroke-linecap="round" stroke-linejoin="round"/>
<path d="M25.0691 180.939C25.0691 180.939 16.7834 212.027 25.382 236.968C25.382 236.968 44.676 300.04 108.738 300.649C108.738 300.649 157.236 305.925 189.423 293.538C189.423 293.538 225.712 283.731 238.808 234.567C238.808 234.567 249.766 191.921 240.77 162.398C240.77 162.398 229.838 114.51 175.422 89.5605" stroke="black" stroke-width="3" stroke-linecap="round" stroke-linejoin="round"/>
<path d="M68.5774 146.748L85.1067 240.012C85.1067 240.012 62.2109 203.183 58.5584 194.661C54.9059 186.138 54.9228 180.973 46.1974 179.967C37.472 178.96 32.5935 178.724 32.5935 178.724C32.5935 178.724 25.1617 182.926 15.8529 172.983C6.5356 163.04 -2.28282 150.984 2.69709 133.559C2.69709 133.559 10.5855 115.314 26.6413 116.379C26.6413 116.379 38.2836 117.148 31.469 111.779C24.6459 106.411 17.3071 97.6601 25.8803 82.0359C25.8803 82.0359 32.3906 65.2195 73.7011 52.7404C73.7011 52.7404 105.66 44.7676 121.987 41.4618C125.022 40.8531 128.108 40.4895 131.203 40.3796C134.475 40.2612 139.463 39.1114 138.195 32.9902C138.195 32.9902 133.714 14.3222 147.994 4.98827C153.067 1.69094 159.231 0.524189 165.157 1.74166C173.595 3.45797 185.72 8.88588 179.218 25.9559C179.218 25.9559 187.039 11.8281 199.628 9.13106C205.081 7.94741 210.704 10.1287 213.934 14.6773C217.163 19.2175 217.383 25.2542 214.475 30.0141C212.86 32.652 210.366 35.4759 206.671 38.435C206.671 38.435 253.671 23.3603 262.101 49.8235C262.101 49.8235 268.78 73.5812 229.414 76.3797" stroke="black" stroke-width="3" stroke-linecap="round" stroke-linejoin="round"/>
<path d="M209.951 71.6873C209.951 71.6873 238.013 71.1378 237.912 94.5065C237.912 94.5065 239.882 110.131 216.563 105.227C216.563 105.227 189.22 99.4356 180.063 87.413C180.063 87.413 97.0366 108.212 77.6495 124.647C77.6495 124.647 81.8263 137.194 92.0059 148.955L68.5859 147.72" stroke="black" stroke-width="3" stroke-linecap="round" stroke-linejoin="round"/>
<path d="M208.835 111.23C210.754 108.837 212.589 107.011 215.159 105.303" stroke="black" stroke-width="3" stroke-linecap="round" stroke-linejoin="round"/>
<path d="M171.178 248.483C171.178 248.483 185.762 253.218 197.701 235.59C197.701 235.59 205.834 224.7 200.271 213.287" stroke="black" stroke-width="3" stroke-linecap="round" stroke-linejoin="round"/>
<path d="M206.51 190.822C205.605 194.17 204.515 197.409 202.663 200.359" stroke="black" stroke-width="3" stroke-linecap="round" stroke-linejoin="round"/>
<path d="M207.229 209.947C209.283 210.742 211.228 211.765 212.893 213.236" stroke="black" stroke-width="3" stroke-linecap="round" stroke-linejoin="round"/>
<path d="M216.555 216.761C219.742 228.023 212.784 235.176 203.069 239.487" stroke="black" stroke-width="3" stroke-linecap="round" stroke-linejoin="round"/>
<path fill-rule="evenodd" clip-rule="evenodd" d="M130.924 148.278C130.679 148.583 130.231 148.617 129.935 148.371C129.639 148.126 129.588 147.678 129.842 147.382C130.281 146.63 130.67 145.869 131.127 145.116C131.423 144.626 131.719 144.152 132.032 143.679C132.218 143.4 132.412 143.129 132.615 142.859C132.911 142.453 133.224 142.064 133.52 141.658C134.272 140.644 134.999 139.629 135.6 138.513C135.752 138.15 136.166 137.972 136.53 138.116C136.893 138.268 137.071 138.682 136.927 139.046C136.623 140.145 136.242 141.202 135.769 142.233C135.456 142.918 135.109 143.586 134.712 144.229C134.475 144.609 134.221 144.973 133.942 145.328C133.756 145.564 133.562 145.784 133.359 146.004C133.055 146.334 132.75 146.647 132.429 146.959C131.939 147.424 131.44 147.839 130.932 148.287L130.924 148.278Z" fill="black"/>
<path fill-rule="evenodd" clip-rule="evenodd" d="M166.265 133.922C165.885 133.863 165.614 133.5 165.673 133.119C165.732 132.739 166.096 132.468 166.476 132.527C167.576 132.586 168.666 132.629 169.757 132.73C170.492 132.798 171.22 132.882 171.947 132.984C172.437 133.051 172.919 133.136 173.401 133.237C174.128 133.39 174.855 133.576 175.557 133.795C176.749 134.167 177.916 134.641 179.04 135.182C180.706 135.994 182.287 136.991 183.775 138.217C184.096 138.446 184.164 138.894 183.936 139.215C183.707 139.536 183.259 139.604 182.938 139.376C181.416 138.429 179.827 137.752 178.203 137.177C177.053 136.772 175.878 136.459 174.695 136.146C173.908 135.935 173.113 135.732 172.319 135.52C171.313 135.258 170.315 134.988 169.309 134.717C168.286 134.446 167.28 134.167 166.257 133.897L166.265 133.922Z" fill="black"/>
<path fill-rule="evenodd" clip-rule="evenodd" d="M132.251 179.966C132.158 179.586 132.394 179.205 132.775 179.121C133.155 179.028 133.536 179.265 133.62 179.645C134.161 181.361 134.669 183.221 135.252 184.971C135.54 185.834 135.852 186.654 136.208 187.406C136.563 188.167 136.977 188.844 137.476 189.402C138.651 190.704 140.393 191.245 143.225 190.509C143.775 190.374 144.316 190.205 144.857 190.002C145.694 189.689 146.514 189.326 147.334 188.971C147.689 188.793 148.112 188.937 148.29 189.292C148.467 189.647 148.323 190.07 147.968 190.247C147.174 190.704 146.37 191.169 145.55 191.591C144.975 191.879 144.383 192.141 143.783 192.352C139.885 193.705 137.357 192.894 135.641 191.118C135.058 190.518 134.584 189.791 134.195 188.971C133.857 188.269 133.587 187.499 133.367 186.688C133.13 185.817 132.944 184.895 132.792 183.965C132.572 182.621 132.437 181.251 132.242 179.958L132.251 179.966Z" fill="black"/>
<path fill-rule="evenodd" clip-rule="evenodd" d="M193.549 144.981C193.16 144.99 192.838 144.685 192.821 144.296C192.813 143.907 193.117 143.578 193.506 143.569C194.529 143.409 195.451 143.316 196.322 143.307C197.032 143.307 197.691 143.366 198.292 143.485C199.053 143.628 199.721 143.874 200.296 144.195C200.761 144.449 201.158 144.77 201.505 145.133C202.299 145.987 202.824 147.086 202.95 148.498C203.069 149.8 202.883 151.364 202.342 153.275C202.266 153.664 201.894 153.909 201.505 153.833C201.116 153.757 200.862 153.385 200.947 152.996C201.099 151.618 201.073 150.46 200.947 149.479C200.786 148.321 200.38 147.492 199.738 146.883C199.416 146.579 199.027 146.334 198.579 146.123C198.131 145.92 197.641 145.725 197.074 145.581C196.068 145.311 194.918 145.083 193.557 144.964L193.549 144.981Z" fill="black"/>
<path fill-rule="evenodd" clip-rule="evenodd" d="M186.337 109.015C186.016 108.795 185.931 108.364 186.142 108.034C186.362 107.713 186.793 107.628 187.123 107.84C187.715 108.11 188.298 108.321 188.89 108.575C189.279 108.744 189.66 108.905 190.049 109.082C190.302 109.201 190.556 109.311 190.81 109.438C191.182 109.632 191.554 109.826 191.917 110.038C192.534 110.401 193.118 110.782 193.718 111.171C194.623 111.763 195.494 112.363 196.398 112.98C196.745 113.166 196.88 113.597 196.694 113.944C196.508 114.29 196.077 114.426 195.73 114.24C194.513 113.758 193.321 113.335 192.129 112.845C191.647 112.65 191.173 112.447 190.708 112.219C190.395 112.067 190.091 111.906 189.795 111.729C189.296 111.433 188.814 111.103 188.349 110.748C187.639 110.207 187.013 109.623 186.354 109.006L186.337 109.015Z" fill="black"/>
<path fill-rule="evenodd" clip-rule="evenodd" d="M150.176 110.714C150.277 111.086 150.049 111.475 149.669 111.577C149.297 111.678 148.908 111.45 148.806 111.069C148.51 110.435 148.299 109.827 148.138 109.201C148.028 108.753 147.978 108.305 147.944 107.857C147.918 107.552 147.927 107.248 147.944 106.944C147.978 106.487 148.062 106.039 148.189 105.599C148.392 104.889 148.696 104.204 149.077 103.545C149.601 102.64 150.252 101.795 151.03 100.975C151.267 100.653 151.706 100.586 152.027 100.822C152.349 101.059 152.416 101.499 152.18 101.82C151.52 102.978 151.106 104.145 150.801 105.32C150.692 105.751 150.615 106.191 150.539 106.631C150.455 107.062 150.37 107.493 150.32 107.933C150.277 108.288 150.218 108.643 150.193 109.007C150.159 109.565 150.117 110.106 150.159 110.706L150.176 110.714Z" fill="black"/>
<path fill-rule="evenodd" clip-rule="evenodd" d="M139.082 102.057C138.719 102.2 138.313 102.023 138.169 101.659C138.025 101.296 138.203 100.89 138.566 100.746C140.714 99.7823 142.76 98.8692 144.764 98.0575C146.201 97.4741 147.622 96.9499 149.017 96.4849C149.997 96.1552 150.961 95.8677 151.934 95.6141C153.438 95.2252 154.943 94.9208 156.448 94.7095C158.985 94.3713 161.53 94.3036 164.151 94.5573C167.651 94.8955 171.27 95.8086 175.21 97.4572C175.582 97.601 175.759 98.0068 175.624 98.3788C175.48 98.7508 175.075 98.9283 174.702 98.7931C169.452 96.9838 164.836 96.4765 160.397 96.7724C158.664 96.8908 156.956 97.1359 155.239 97.4657C154.106 97.6855 152.973 97.9307 151.824 98.2097C149.744 98.717 147.638 99.3257 145.449 100.011C143.403 100.653 141.28 101.321 139.065 102.065L139.082 102.057Z" fill="black"/>
<path fill-rule="evenodd" clip-rule="evenodd" d="M140.334 129.188C140.359 129.577 140.072 129.915 139.683 129.94C139.294 129.965 138.956 129.678 138.93 129.289C138.702 128.114 138.525 127.159 138.389 126.322C138.212 125.239 138.06 124.445 137.781 123.751C137.51 123.1 137.104 122.568 136.369 121.959C135.777 121.469 135.05 120.911 134.069 120.276L131.363 118.56C131.008 118.391 130.856 117.968 131.025 117.613C131.194 117.258 131.617 117.106 131.972 117.275L135.024 118.552C136.876 119.439 138.085 120.158 138.88 120.936C139.48 121.519 139.869 122.145 140.114 122.847C140.385 123.608 140.503 124.461 140.503 125.552C140.503 126.533 140.393 127.691 140.325 129.188H140.334Z" fill="black"/>
<path fill-rule="evenodd" clip-rule="evenodd" d="M166.147 174.395C166.105 174.564 165.936 174.657 165.775 174.615C165.606 174.572 165.513 174.403 165.555 174.243C165.826 172.4 166.105 170.497 166.587 168.637C166.925 167.335 167.373 166.092 167.956 164.909C168.328 164.317 169.115 164.139 169.706 164.511C170.298 164.883 170.476 165.67 170.104 166.261C169.377 167.183 168.768 168.181 168.244 169.246C167.415 170.928 166.773 172.687 166.155 174.386L166.147 174.395Z" fill="black"/>
<path fill-rule="evenodd" clip-rule="evenodd" d="M186.523 171.757C186.591 171.935 186.498 172.129 186.328 172.197C186.151 172.264 185.948 172.18 185.889 171.994C184.925 169.973 183.927 167.893 182.625 166.042C181.805 164.866 180.85 163.818 179.708 162.939C179.193 162.465 179.15 161.662 179.615 161.146C180.089 160.631 180.892 160.588 181.408 161.053C182.549 162.271 183.454 163.632 184.172 165.129C185.195 167.242 185.88 169.525 186.531 171.749L186.523 171.757Z" fill="black"/>
<path fill-rule="evenodd" clip-rule="evenodd" d="M118.224 112.921C127.262 112.921 134.593 117.909 134.593 124.056C134.593 130.202 127.254 135.191 118.224 135.191C109.194 135.191 101.855 130.202 101.855 124.056C101.855 117.909 109.194 112.921 118.224 112.921Z" fill="#C7C0D9"/>
<mask id="mask0_211_2574" style="mask-type:luminance" maskUnits="userSpaceOnUse" x="101" y="112" width="34" height="24">
<path d="M118.224 112.921C127.262 112.921 134.593 117.909 134.593 124.056C134.593 130.202 127.254 135.191 118.224 135.191C109.194 135.191 101.855 130.202 101.855 124.056C101.855 117.909 109.194 112.921 118.224 112.921Z" fill="white"/>
</mask>
<g mask="url(#mask0_211_2574)">
<path fill-rule="evenodd" clip-rule="evenodd" d="M112.238 113.868C121.276 113.868 128.606 118.856 128.606 125.003C128.606 131.149 121.268 136.137 112.238 136.137C103.208 136.137 95.8691 131.149 95.8691 125.003C95.8691 118.856 103.208 113.868 112.238 113.868Z" fill="white"/>
</g>
<path d="M118.224 112.921C127.262 112.921 134.593 117.909 134.593 124.056C134.593 130.202 127.254 135.191 118.224 135.191C109.194 135.191 101.855 130.202 101.855 124.056C101.855 117.909 109.194 112.921 118.224 112.921Z" stroke="black" stroke-width="3" stroke-linecap="round" stroke-linejoin="round"/>
<path d="M112.035 133.567C112.035 133.567 122.84 128.664 132.09 129.095" stroke="black" stroke-width="3" stroke-linecap="round" stroke-linejoin="round"/>
<path fill-rule="evenodd" clip-rule="evenodd" d="M122.071 129.475L123.17 123.895L128.641 128.275L122.071 129.475Z" fill="black"/>
<path fill-rule="evenodd" clip-rule="evenodd" d="M170.983 105.836C179.497 105.836 186.413 110.537 186.413 116.337C186.413 122.136 179.497 126.837 170.983 126.837C162.469 126.837 155.553 122.136 155.553 116.337C155.553 110.537 162.469 105.836 170.983 105.836Z" fill="#C7C0D9"/>
<mask id="mask1_211_2574" style="mask-type:luminance" maskUnits="userSpaceOnUse" x="155" y="105" width="32" height="22">
<path d="M170.983 105.836C179.497 105.836 186.413 110.537 186.413 116.337C186.413 122.136 179.497 126.837 170.983 126.837C162.469 126.837 155.553 122.136 155.553 116.337C155.553 110.537 162.469 105.836 170.983 105.836Z" fill="white"/>
</mask>
<g mask="url(#mask1_211_2574)">
<path fill-rule="evenodd" clip-rule="evenodd" d="M164.143 105.481C172.657 105.481 179.573 110.182 179.573 115.981C179.573 121.781 172.657 126.482 164.143 126.482C155.629 126.482 148.713 121.781 148.713 115.981C148.713 110.182 155.629 105.481 164.143 105.481Z" fill="white"/>
</g>
<path d="M170.983 105.836C179.497 105.836 186.413 110.537 186.413 116.337C186.413 122.136 179.497 126.837 170.983 126.837C162.469 126.837 155.553 122.136 155.553 116.337C155.553 110.537 162.469 105.836 170.983 105.836Z" stroke="black" stroke-width="3" stroke-linecap="round" stroke-linejoin="round"/>
<path d="M165.148 125.29C165.148 125.29 175.337 120.665 184.054 121.071" stroke="black" stroke-width="3" stroke-linecap="round" stroke-linejoin="round"/>
<path fill-rule="evenodd" clip-rule="evenodd" d="M174.61 121.443L175.642 116.176L180.799 120.31L174.61 121.443Z" fill="black"/>
<path fill-rule="evenodd" clip-rule="evenodd" d="M115.181 108.296C115.181 108.296 107.656 113.952 105.644 115.948L116.838 112.583C116.838 112.583 114.462 111.399 115.181 108.296Z" fill="black"/>
<path fill-rule="evenodd" clip-rule="evenodd" d="M124.16 107.045C125.496 107.467 126.325 108.6 126.02 109.573C125.716 110.545 124.38 111.001 123.044 110.579C121.708 110.156 120.88 109.023 121.184 108.051C121.488 107.078 122.824 106.622 124.16 107.045Z" fill="black"/>
<path fill-rule="evenodd" clip-rule="evenodd" d="M156.305 125.755C157.878 126.71 158.554 128.494 157.81 129.72C157.058 130.955 155.172 131.174 153.6 130.211C152.027 129.255 151.351 127.471 152.095 126.245C152.839 125.011 154.733 124.791 156.305 125.755Z" fill="black"/>
<path fill-rule="evenodd" clip-rule="evenodd" d="M92.4959 123.667C92.4959 123.667 91.3122 129.179 89.1055 133.255C89.1055 133.255 94.728 131.285 103.952 138.108L99.6233 130.684L92.5381 130.786" fill="black"/>
<path fill-rule="evenodd" clip-rule="evenodd" d="M154.919 117.233L152.086 113.242L156.068 111.196L154.919 117.233Z" fill="black"/>
<path fill-rule="evenodd" clip-rule="evenodd" d="M178.119 171.115C179.539 171.115 180.698 172.214 180.698 173.566C180.698 174.919 179.539 176.018 178.119 176.018C176.698 176.018 175.54 174.919 175.54 173.566C175.54 172.214 176.69 171.115 178.119 171.115Z" fill="black"/>
<path fill-rule="evenodd" clip-rule="evenodd" d="M138.609 178.132C138.609 178.132 138.161 173.473 138.558 171.723C138.955 169.973 148.907 159.176 149.701 158.187C150.496 157.198 155.958 152.43 158.9 151.407C161.843 150.383 173.84 148.38 177.484 148.287C181.128 148.202 192.263 148.879 195.29 150.941C195.29 150.941 196.186 151.914 196.245 154.585C196.305 157.257 195.814 163.869 196.575 165.813C197.336 167.758 199.813 169.812 199.813 169.812L197.159 171.748C197.159 171.748 194.969 170.235 194.343 167.234C193.717 164.232 192.855 161.434 192.855 161.434L186.835 162.034L182.126 163.175C182.126 163.175 178.947 164.384 177.247 165.145C175.548 165.906 171.49 168.806 171.363 169.702C171.236 170.599 169.663 167.623 168.64 167.301C167.617 166.98 165.36 165.991 163.559 165.661C161.75 165.331 157.877 164.748 157.192 164.714C156.516 164.689 155.958 163.928 156.44 163.311C156.922 162.685 157.311 162.059 156.93 161.62C156.55 161.18 156.034 159.929 156.034 159.929L160.355 162.431C160.355 162.431 162.434 163.277 163.322 162.043C164.21 160.808 164.134 159.54 164.134 159.54C164.134 159.54 164.937 159.21 165.478 160.132C166.019 161.053 167.397 163.395 169.545 163.742C171.693 164.097 172.69 164.283 173.637 162.888C174.584 161.501 175.396 160.876 175.396 160.876C175.396 160.876 176.393 162.322 177.518 162.381C178.634 162.44 179.386 161.755 181.247 160.538C183.107 159.32 188.306 156.378 188.306 156.378C188.306 156.378 191.857 154.349 190.226 153.317C188.594 152.277 185.482 151.364 181.847 151.77C178.211 152.167 166.188 153.114 162.899 154.29C159.611 155.465 156.66 156.843 156.66 156.843C156.66 156.843 155.451 157.748 155.578 158.483C155.704 159.21 156.034 159.937 156.034 159.937L154.225 159.734C154.225 159.734 153.159 159.574 153.413 160.918C153.667 162.262 155.062 163.911 155.062 163.911C155.062 163.911 142.752 167.766 138.626 178.157L138.609 178.132Z" fill="black"/>
<path d="M46.8319 273.104C46.8319 273.104 3.15401 301.122 20.0976 351.402C20.0976 351.402 43.4415 416.225 66.2611 466.124" stroke="black" stroke-width="3" stroke-linecap="round" stroke-linejoin="round"/>
<path fill-rule="evenodd" clip-rule="evenodd" d="M58.6686 308.808C58.4995 308.867 58.3135 308.765 58.2543 308.596C58.1951 308.427 58.2966 308.241 58.4657 308.182C58.4657 308.182 70.6322 303.591 83.044 303.769C89.0385 303.853 95.0245 305.113 99.903 308.267C101.036 309.087 101.29 310.676 100.469 311.809C99.6493 312.942 98.0598 313.196 96.9268 312.376C93.0292 309.214 87.9647 307.692 82.8241 307.066C70.8774 305.612 58.6686 308.808 58.6686 308.808Z" fill="black"/>
<path fill-rule="evenodd" clip-rule="evenodd" d="M45.2593 340.597C45.0817 340.631 44.9126 340.513 44.8788 340.335C44.845 340.158 44.9634 339.988 45.1409 339.955C45.1409 339.955 51.8287 338.095 59.2521 337.739C62.6171 337.579 66.0667 337.79 69.1866 338.534C70.514 338.982 71.2242 340.428 70.7761 341.747C70.328 343.074 68.8822 343.785 67.5632 343.336C64.9929 342.187 62.0422 341.46 59.1084 341.045C51.9725 340.031 45.2677 340.606 45.2677 340.606L45.2593 340.597Z" fill="black"/>
<path d="M219.091 430.039L233.879 466.2" stroke="black" stroke-width="3" stroke-linecap="round" stroke-linejoin="round"/>
<path d="M146.92 466.53L148.636 470.732" stroke="black" stroke-width="3" stroke-linecap="round" stroke-linejoin="round"/>
<path fill-rule="evenodd" clip-rule="evenodd" d="M169.021 325.463C169.021 325.463 172.53 362.207 158.444 385.838C158.444 385.838 174.001 369.664 177.451 343.692L169.021 325.463Z" fill="#807A8F"/>
<path fill-rule="evenodd" clip-rule="evenodd" d="M185.474 359.257C185.474 359.257 187.926 373.579 184.612 385.297L180.274 399.586C180.274 399.586 190.598 388.265 192.999 377.139L185.483 359.257H185.474Z" fill="#807A8F"/>
</g>
<defs>
<clipPath id="clip0_211_2574">
<rect width="349" height="472" fill="white"/>
</clipPath>
</defs>
</svg>
