<svg width="24" height="25" viewBox="0 0 24 25" fill="none" xmlns="http://www.w3.org/2000/svg">
<g clip-path="url(#clip0_1104_891)">
<path d="M12 24.9697C18.6274 24.9697 24 19.5971 24 12.9697C24 6.34231 18.6274 0.969727 12 0.969727C5.37258 0.969727 0 6.34231 0 12.9697C0 19.5971 5.37258 24.9697 12 24.9697Z" fill="#F7931A"/>
<path d="M17.3917 11.4847C17.6272 9.91273 16.4295 9.06748 14.793 8.50348L15.324 6.37348L14.028 6.05098L13.5105 8.12473C13.17 8.03923 12.8205 7.95973 12.4717 7.88023L12.993 5.79298L11.697 5.46973L11.166 7.59898C10.884 7.53448 10.6065 7.47148 10.338 7.40398L10.3395 7.39723L8.55149 6.95098L8.20649 8.33548C8.20649 8.33548 9.16874 8.55598 9.14849 8.56948C9.67349 8.70073 9.76799 9.04798 9.75224 9.32398L9.14774 11.7502C9.18374 11.7592 9.23024 11.7727 9.28274 11.793L9.14549 11.7592L8.29799 15.1582C8.23349 15.3172 8.07074 15.5565 7.70324 15.4657C7.71674 15.4845 6.76124 15.231 6.76124 15.231L6.11774 16.7145L7.80524 17.1352C8.11874 17.214 8.42624 17.2965 8.72849 17.3737L8.19224 19.5277L9.48749 19.8502L10.0185 17.7202C10.3725 17.8155 10.716 17.904 11.052 17.988L10.5225 20.109L11.8185 20.4315L12.3547 18.282C14.5657 18.7005 16.2277 18.5317 16.9275 16.5322C17.4915 14.9227 16.8997 13.9935 15.7365 13.3882C16.584 13.1932 17.2215 12.636 17.3917 11.4847ZM14.4292 15.6382C14.0295 17.2485 11.3182 16.3777 10.4392 16.1595L11.1517 13.3057C12.0307 13.5255 14.8485 13.9597 14.4292 15.6382ZM14.8305 11.4615C14.4652 12.9262 12.2092 12.1815 11.478 11.9992L12.123 9.41173C12.8542 9.59398 15.2115 9.93373 14.8305 11.4615Z" fill="white"/>
</g>
<defs>
<clipPath id="clip0_1104_891">
<rect width="24" height="24" fill="white" transform="translate(0 0.969727)"/>
</clipPath>
</defs>
</svg>
