<svg width="31" height="24" viewBox="0 0 31 24" fill="none" xmlns="http://www.w3.org/2000/svg">
<g clip-path="url(#clip0_211_2823)">
<path fill-rule="evenodd" clip-rule="evenodd" d="M12.2362 0.000488281H18.0247C20.6114 0.000488281 22.6601 0.000488281 24.2633 0.210318C25.9135 0.426319 27.249 0.881773 28.3025 1.90829C29.3556 2.93481 29.823 4.23617 30.0451 5.84404C30.1722 6.76688 30.2246 7.84113 30.2457 9.08529C30.2554 9.14125 30.2604 9.19885 30.2604 9.25768C30.2604 9.30623 30.2571 9.35355 30.2503 9.40004C30.2604 10.176 30.2604 11.0153 30.2604 11.9229V12.0776C30.2604 14.5981 30.2604 16.5943 30.0451 18.1565C29.823 19.7644 29.3556 21.0658 28.3025 22.0923C27.249 23.1184 25.9135 23.5738 24.2633 23.7902C22.6601 24.0001 20.6114 24.0001 18.0247 24.0001H12.2362C9.64951 24.0001 7.60079 24.0001 5.99754 23.7902C4.34741 23.5738 3.01186 23.1184 1.95836 22.0923C0.904866 21.0658 0.437443 19.7644 0.215766 18.1565C0 16.5947 0 14.5985 0 12.078V11.9233C0 11.0157 0 10.176 0.0101338 9.40045C0.00337794 9.35355 0 9.30582 0 9.25768C0 9.19885 0.00506691 9.14125 0.0147785 9.08529C0.0363129 7.84113 0.0882487 6.76688 0.215766 5.84404C0.437443 4.23617 0.904866 2.93481 1.95836 1.90829C3.01144 0.882185 4.34699 0.426731 5.99711 0.210318C7.60079 0.000488281 9.64951 0.000488281 12.2362 0.000488281ZM2.11417 10.2863C2.11164 10.8191 2.11121 11.3889 2.11121 12.0007C2.11121 14.6158 2.11332 16.4738 2.30798 17.8829C2.49841 19.2625 2.85521 20.0577 3.45099 20.6379C4.04677 21.2184 4.86255 21.5661 6.27833 21.7516C7.72493 21.9413 9.63136 21.9433 12.3151 21.9433H17.9449C20.6287 21.9433 22.5355 21.9413 23.9817 21.7516C25.3975 21.5661 26.2137 21.2184 26.809 20.6379C27.4048 20.0573 27.7616 19.2625 27.952 17.8829C28.1467 16.4734 28.1488 14.6158 28.1488 12.0007C28.1488 11.3893 28.1488 10.8191 28.1459 10.2863H2.11417ZM28.1129 8.22911H2.14795C2.17539 7.42435 2.22353 6.72903 2.30798 6.11805C2.49841 4.73812 2.85521 3.94323 3.45099 3.36311C4.04677 2.78258 4.86255 2.43493 6.27833 2.24937C7.72493 2.0597 9.63136 2.05764 12.3151 2.05764H17.9449C20.6287 2.05764 22.5355 2.0597 23.9817 2.24937C25.3975 2.43493 26.2137 2.78258 26.809 3.36311C27.4048 3.94364 27.7616 4.73853 27.952 6.11805C28.0365 6.72903 28.0846 7.42435 28.1121 8.22911H28.1129ZM5.62976 17.4863C5.62976 16.9181 6.10225 16.4577 6.68537 16.4577H12.3151C12.8982 16.4577 13.3707 16.9181 13.3707 17.4863C13.3707 18.0545 12.8982 18.5149 12.3151 18.5149H6.68537C6.10225 18.5149 5.62976 18.0545 5.62976 17.4863ZM14.7785 17.4863C14.7785 16.9181 15.251 16.4577 15.8341 16.4577H17.9453C18.5284 16.4577 19.0009 16.9181 19.0009 17.4863C19.0009 18.0545 18.5284 18.5149 17.9453 18.5149H15.8341C15.251 18.5149 14.7785 18.0545 14.7785 17.4863Z" fill="#535353"/>
</g>
<defs>
<clipPath id="clip0_211_2823">
<rect width="30.2609" height="24" fill="white" transform="translate(0 0.000488281)"/>
</clipPath>
</defs>
</svg>
