<svg width="92" height="68" viewBox="0 0 92 68" fill="none" xmlns="http://www.w3.org/2000/svg">
<g clip-path="url(#clip0_211_2420)">
<path fill-rule="evenodd" clip-rule="evenodd" d="M38.8245 22.1316C55.1624 12.2452 71.4179 7.28398 78.5809 10.8065C79.811 11.4073 80.8112 13.1834 81.4473 14.242C82.6019 16.1283 83.7455 18.3623 82.8035 21.1509C80.1816 28.9936 68.8457 39.7415 54.7243 48.2848C39.9954 57.1877 24.735 62.1536 16.7342 60.3002C14.3347 59.7423 13.1077 57.8286 12.096 56.1619C11.2089 54.7082 9.7342 52.7108 10.1035 50.6985C11.5815 42.7532 23.5509 31.366 38.8245 22.1316Z" fill="#FAA34A"/>
<path fill-rule="evenodd" clip-rule="evenodd" d="M64.2542 29.6504L69.4601 37.7393C69.4601 37.7393 82.9252 27.9228 83.2339 18.7685L79.1509 11.2088C79.1509 11.2088 71.1925 25.1202 64.2542 29.6504Z" fill="#E8643D"/>
<path fill-rule="evenodd" clip-rule="evenodd" d="M25.1557 51.5932L29.2404 59.8675C29.2404 59.8675 20.6528 63.3276 14.796 59.7311L9.69739 52.459C9.69739 52.459 18.6123 53.9656 25.1557 51.5932Z" fill="#E8643D"/>
<path fill-rule="evenodd" clip-rule="evenodd" d="M84.1491 17.2738C84.8925 19.1492 84.442 21.6894 82.8111 24.6203C78.9786 31.4661 68.6299 40.8809 55.0783 49.0815C41.5267 57.282 28.363 62.0908 20.5127 62.3019C16.7227 62.4069 14.0808 61.4054 12.9041 59.4693C12.7392 59.1998 12.5938 58.9067 12.5043 58.6037L14.6708 58.4006C15.0686 59.0585 15.7472 59.502 16.6228 59.8132C17.6558 60.1737 18.9641 60.3075 20.4778 60.2606C28.101 60.0462 40.8561 55.2998 54.0333 47.3402C67.1925 39.3737 77.3156 30.2976 81.0346 23.6365C81.7695 22.3112 82.2531 21.0976 82.4226 20.0236C82.5595 19.1132 82.4703 18.3033 82.078 17.658C82.067 17.6331 82.0559 17.6082 82.0448 17.5833L84.1923 17.2695L84.1491 17.2738Z" fill="black"/>
<path fill-rule="evenodd" clip-rule="evenodd" d="M37.0415 19.7792C56.1209 8.2418 74.3843 3.43129 77.8007 9.05165C81.2172 14.672 68.4962 28.5992 49.4167 40.1366C30.3373 51.6741 12.0739 56.4846 8.65746 50.8642C5.24659 45.2563 17.962 31.3167 37.0415 19.7792Z" fill="#FDE048"/>
<path d="M37.0415 19.7792C56.1209 8.2418 74.3843 3.43129 77.8008 9.05165C81.2172 14.672 68.4962 28.5992 49.4167 40.1366C30.3373 51.6741 12.0739 56.4846 8.65746 50.8642C5.24659 45.2563 17.962 31.3167 37.0415 19.7792Z" stroke="black" stroke-width="1.5" stroke-linecap="round" stroke-linejoin="round"/>
<path fill-rule="evenodd" clip-rule="evenodd" d="M28.5563 33.284C34.6103 29.7431 40.4489 28.459 41.6005 30.4063C42.7576 32.366 38.7841 36.8302 32.7301 40.3711C26.6886 43.9065 20.8374 45.1961 19.6859 43.2489C18.5288 41.2891 22.5023 36.825 28.5563 33.284Z" fill="#FEFC85"/>
<path fill-rule="evenodd" clip-rule="evenodd" d="M47.3342 28.3787C50.1175 26.7539 52.8801 26.3008 53.5036 27.3649C54.1272 28.4291 52.3915 30.6167 49.6137 32.254C46.8359 33.8913 44.0678 34.332 43.4443 33.2678C42.8207 32.2036 44.569 30.0105 47.3342 28.3787Z" fill="#FEFC85"/>
<path d="M38.8724 22.7808C49.8528 16.1407 60.5188 11.7716 68.0381 10.5452C70.1689 10.194 71.9923 10.0988 73.4353 10.3665C74.0259 10.4765 74.5526 10.5107 74.7799 10.8866C75.0072 11.2625 74.7993 11.7424 74.6175 12.315C74.1807 13.7016 73.2555 15.2754 71.9603 16.9988C67.3918 23.0689 58.5789 30.4894 47.5985 37.1295C36.6181 43.7697 25.9522 48.1388 18.4329 49.3652C16.302 49.7164 14.4661 49.8171 13.0356 49.5439C12.4451 49.4338 11.9184 49.3997 11.6911 49.0238C11.4638 48.6479 11.6717 48.168 11.8534 47.5954C12.2902 46.2088 13.2155 44.6349 14.5106 42.9116C19.0791 36.8415 27.8921 29.421 38.8724 22.7808Z" stroke="#E8643D" stroke-width="1.5" stroke-linecap="round" stroke-linejoin="round"/>
<path d="M19.0645 61.1418L15.1432 53.1675" stroke="black" stroke-width="1.5" stroke-linecap="round" stroke-linejoin="round"/>
<path d="M14.1405 59.4408L8.88281 51.4048" stroke="black" stroke-width="1.5" stroke-linecap="round" stroke-linejoin="round"/>
<path d="M22.9812 59.8329L19.8032 53.3613" stroke="black" stroke-width="1.5" stroke-linecap="round" stroke-linejoin="round"/>
<path d="M28.4006 58.8248L25.2172 52.3408" stroke="black" stroke-width="1.5" stroke-linecap="round" stroke-linejoin="round"/>
<path d="M36.9039 55.581L33.726 49.1094" stroke="black" stroke-width="1.5" stroke-linecap="round" stroke-linejoin="round"/>
<path d="M46.716 51.4574L42.9056 44.4771" stroke="black" stroke-width="1.5" stroke-linecap="round" stroke-linejoin="round"/>
<path d="M60.0541 43.3516L55.9598 36.6465" stroke="black" stroke-width="1.5" stroke-linecap="round" stroke-linejoin="round"/>
<path d="M68.5317 37.0047L64.4319 30.2871" stroke="black" stroke-width="1.5" stroke-linecap="round" stroke-linejoin="round"/>
<path d="M74.4775 31.6636L70.3833 24.9585" stroke="black" stroke-width="1.5" stroke-linecap="round" stroke-linejoin="round"/>
<path d="M78.0391 27.8294L73.9574 21.1187" stroke="black" stroke-width="1.5" stroke-linecap="round" stroke-linejoin="round"/>
<path d="M80.9822 24.7031L76.5288 17.0547" stroke="black" stroke-width="1.5" stroke-linecap="round" stroke-linejoin="round"/>
<path d="M82.9107 17.0941L77.9923 9.27979" stroke="black" stroke-width="1.5" stroke-linecap="round" stroke-linejoin="round"/>
</g>
<defs>
<clipPath id="clip0_211_2420">
<rect width="83.6862" height="37.1939" fill="white" transform="translate(0 33.9961) rotate(-23.9682)"/>
</clipPath>
</defs>
</svg>
