<svg width="58" height="66" viewBox="0 0 58 66" fill="none" xmlns="http://www.w3.org/2000/svg">
<g clip-path="url(#clip0_211_2357)">
<path fill-rule="evenodd" clip-rule="evenodd" d="M13.7254 51.4405C12.9922 44.75 14.4843 36.631 18.3818 28.6191C21.9835 21.2143 27.0387 15.1786 32.4541 11.2143L37.0849 1.26196L51.5302 7.02387C51.5302 7.02387 63.2099 16.2143 52.5335 41.1429C45.6646 57.1667 32.1325 67.8096 21.8034 64.512L9.77637 61.0001L13.7125 51.4524L13.7254 51.4405Z" fill="#E68A73"/>
<mask id="mask0_211_2357" style="mask-type:luminance" maskUnits="userSpaceOnUse" x="9" y="1" width="49" height="65">
<path d="M13.7254 51.4405C12.9922 44.75 14.4843 36.631 18.3818 28.6191C21.9835 21.2143 27.0387 15.1786 32.4541 11.2143L37.0849 1.26196L51.5302 7.02387C51.5302 7.02387 63.2099 16.2143 52.5335 41.1429C45.6646 57.1667 32.1325 67.8096 21.8034 64.512L9.77637 61.0001L13.7125 51.4524L13.7254 51.4405Z" fill="white"/>
</mask>
<g mask="url(#mask0_211_2357)">
<path fill-rule="evenodd" clip-rule="evenodd" d="M43.8119 39.2501L52.0315 42.2858C52.0315 42.2858 56.9967 32.4643 56.4307 24.4048L48.9443 21.762C48.9443 21.762 46.6418 35.7024 43.7991 39.2382L43.8119 39.2501Z" fill="#E8643D"/>
<path fill-rule="evenodd" clip-rule="evenodd" d="M17.0693 63.0121L24.7101 65.6311C24.7101 65.6311 30.7429 64.7978 33.1226 63.2621L24.5943 59.8811C24.5943 59.8811 19.1789 62.524 17.0693 63.0002V63.0121Z" fill="#E8643D"/>
</g>
<path d="M13.7254 51.4405C12.9922 44.7501 14.4843 36.631 18.3818 28.6191C21.9835 21.2143 27.0387 15.1786 32.4541 11.2143L37.0849 1.26196L51.5302 7.02387C51.5302 7.02387 63.2099 16.2143 52.5335 41.1429C45.6646 57.1667 32.1325 67.8096 21.8034 64.512L9.77637 61.0001L13.7125 51.4524L13.7254 51.4405Z" stroke="black" stroke-width="1.5" stroke-linecap="round" stroke-linejoin="round"/>
<path fill-rule="evenodd" clip-rule="evenodd" d="M39.065 1.92849C49.4713 6.27373 51.4651 23.0237 43.5157 39.3214C35.5791 55.619 20.6836 65.3333 10.2773 60.988C-0.116175 56.6547 -2.10996 39.8928 5.82661 23.5952C13.776 7.29754 28.6587 -2.41674 39.065 1.92849Z" fill="#FDE048"/>
<path d="M39.065 1.92849C49.4713 6.27373 51.4651 23.0237 43.5157 39.3214C35.5791 55.619 20.6836 65.3333 10.2773 60.988C-0.116175 56.6547 -2.10996 39.8928 5.82661 23.5952C13.776 7.29754 28.6587 -2.41674 39.065 1.92849Z" stroke="black" stroke-width="1.5" stroke-linecap="round" stroke-linejoin="round"/>
<path fill-rule="evenodd" clip-rule="evenodd" d="M30.8974 10.3809C27.6173 12.0833 24.5044 14.3571 21.8932 16.869C20.0666 18.619 18.4073 20.5357 17.0952 22.6429C16.7222 23.2381 16.3877 23.8452 16.0662 24.4762C14.857 26.9048 12.9404 32.6548 17.7512 32.9762C18.3815 33.0238 18.9861 33.0238 19.5907 32.8929C21.9446 32.3929 23.9127 30.8214 25.8422 29.5595C29.7268 27.0476 34.0875 25.2381 36.1842 21C37.8564 17.6429 38.4609 8.0119 30.8845 10.3809H30.8974Z" fill="#FEFC85"/>
<path fill-rule="evenodd" clip-rule="evenodd" d="M27.849 31.4285C24.9934 33.1309 21.7519 34.988 20.5299 38.1071C19.7452 40.119 20.3498 42.6547 23.0511 42.8809C24.6332 43.0118 26.1254 42.4761 27.476 41.7618C30.1387 40.3571 32.4283 38.1428 33.11 35.3214C33.8047 32.4404 30.9748 30.4523 27.8361 31.4285H27.849Z" fill="#FEFC85"/>
<path d="M46.4355 9.53564L54.9252 12.3333" stroke="black" stroke-width="1.5" stroke-linecap="round" stroke-linejoin="round"/>
<path d="M48.2373 15.5239L56.727 18.3215" stroke="black" stroke-width="1.5" stroke-linecap="round" stroke-linejoin="round"/>
<path d="M48.751 21.7976L56.739 24.4167" stroke="black" stroke-width="1.5" stroke-linecap="round" stroke-linejoin="round"/>
<path d="M48.2236 27.6309L56.0058 30.2023" stroke="black" stroke-width="1.5" stroke-linecap="round" stroke-linejoin="round"/>
<path d="M46.8477 33.3928L54.2311 35.8214" stroke="black" stroke-width="1.5" stroke-linecap="round" stroke-linejoin="round"/>
<path d="M44.0303 39.6072L51.4009 42.0358" stroke="black" stroke-width="1.5" stroke-linecap="round" stroke-linejoin="round"/>
<path d="M40.1973 46.3691L47.5807 48.7977" stroke="black" stroke-width="1.5" stroke-linecap="round" stroke-linejoin="round"/>
<path d="M36.2617 51.8691L43.6452 54.2977" stroke="black" stroke-width="1.5" stroke-linecap="round" stroke-linejoin="round"/>
<path d="M25.3018 60.1309L33.8944 62.9642" stroke="black" stroke-width="1.5" stroke-linecap="round" stroke-linejoin="round"/>
<path d="M36.9687 6.21437C39.8243 7.40485 41.548 10.1072 42.487 13.4525C44.3136 19.9406 43.0916 28.7263 38.8725 37.3929C34.6533 46.0477 28.3375 52.7144 21.8802 55.7382C18.5358 57.3096 15.2171 57.8929 12.3615 56.7025C9.50586 55.512 7.78219 52.8096 6.84318 49.4644C5.01661 42.9763 6.22575 34.1906 10.4577 25.5239C14.6768 16.8691 20.9927 10.2025 27.45 7.17866C30.7944 5.60723 34.1131 5.0239 36.9687 6.21437Z" stroke="#E8643D" stroke-width="1.5" stroke-linecap="round" stroke-linejoin="round"/>
</g>
<defs>
<clipPath id="clip0_211_2357">
<rect width="58" height="66" fill="white"/>
</clipPath>
</defs>
</svg>
