<svg width="76" height="75" viewBox="0 0 76 75" fill="none" xmlns="http://www.w3.org/2000/svg">
<g clip-path="url(#clip0_211_2380)">
<path fill-rule="evenodd" clip-rule="evenodd" d="M1.10265 43.7397L1.02197 34.3794L3.63061 34.068C8.71341 23.0814 20.7615 14.2574 35.4183 12.1812C50.8281 9.9839 64.7184 15.8665 71.1727 26.0746L74.8436 25.642L74.9378 37.6149C75.005 38.6184 75.005 39.6219 74.9646 40.6254V40.7638C74.0906 56.0586 59.5011 69.9173 40.6356 72.5991C20.264 75.5058 2.58177 64.3288 1.14299 47.6499C1.03542 46.335 1.02197 45.0373 1.10265 43.7397Z" fill="#FAA34A"/>
<path d="M1.10265 43.7397L1.02197 34.3794L3.63061 34.068C8.71341 23.0814 20.7615 14.2574 35.4183 12.1812C50.8281 9.9839 64.7184 15.8665 71.1727 26.0746L74.8436 25.642L74.9378 37.6149C75.005 38.6184 75.005 39.6219 74.9646 40.6254V40.7638C74.0906 56.0586 59.5011 69.9173 40.6356 72.5991C20.264 75.5058 2.58177 64.3288 1.14299 47.6499C1.03542 46.335 1.02197 45.0373 1.10265 43.7397Z" stroke="black" stroke-width="1.5" stroke-linecap="round" stroke-linejoin="round"/>
<path fill-rule="evenodd" clip-rule="evenodd" d="M35.378 2.02502C55.7361 -0.881678 73.4183 10.2953 74.8571 26.9742C76.2959 43.6531 60.9399 59.5362 40.5818 62.4429C20.2237 65.3496 2.54145 54.1726 1.10267 37.4937C-0.336113 20.8148 15.0199 4.91442 35.378 2.02502Z" fill="#FDE048"/>
<path d="M35.378 2.02502C55.7361 -0.881678 73.4183 10.2953 74.8571 26.9742C76.2959 43.6531 60.9399 59.5362 40.5818 62.4429C20.2237 65.3496 2.54145 54.1726 1.10267 37.4937C-0.336113 20.8148 15.0199 4.91442 35.378 2.02502Z" stroke="black" stroke-width="1.5" stroke-linecap="round" stroke-linejoin="round"/>
<path d="M5.70129 49.8298L5.83576 59.4842" stroke="black" stroke-width="1.5" stroke-linecap="round" stroke-linejoin="round"/>
<path d="M11.6716 56.2142L11.8061 65.8686" stroke="black" stroke-width="1.5" stroke-linecap="round" stroke-linejoin="round"/>
<path d="M18.8386 60.557L18.9731 70.1941" stroke="black" stroke-width="1.5" stroke-linecap="round" stroke-linejoin="round"/>
<path d="M27.6461 62.8235L27.794 72.4779" stroke="black" stroke-width="1.5" stroke-linecap="round" stroke-linejoin="round"/>
<path d="M37.9597 63.2042L38.0942 72.8413" stroke="black" stroke-width="1.5" stroke-linecap="round" stroke-linejoin="round"/>
<path d="M48.3673 61.0414L48.5018 70.6958" stroke="black" stroke-width="1.5" stroke-linecap="round" stroke-linejoin="round"/>
<path d="M57.6185 56.6987L57.753 66.3358" stroke="black" stroke-width="1.5" stroke-linecap="round" stroke-linejoin="round"/>
<path d="M64.9739 50.9545L65.1083 60.6089" stroke="black" stroke-width="1.5" stroke-linecap="round" stroke-linejoin="round"/>
<path d="M70.7155 43.8781L70.8634 53.5152" stroke="black" stroke-width="1.5" stroke-linecap="round" stroke-linejoin="round"/>
<path fill-rule="evenodd" clip-rule="evenodd" d="M35.9696 8.87659C46.7268 7.33673 56.6639 10.0531 63.1451 15.8319C66.6547 18.9635 69.1019 22.9602 69.5188 27.7355C69.9356 32.5108 68.2279 37.1131 65.3234 41.1444C59.9852 48.6015 50.7339 54.0516 39.9901 55.5914C29.2329 57.1313 19.2824 54.4149 12.8012 48.6361C9.2916 45.5045 6.84432 41.5078 6.42748 36.7325C6.01064 31.9572 7.71835 27.3549 10.6228 23.3236C15.9611 15.8838 25.2123 10.4165 35.9696 8.87659Z" fill="#FDE048"/>
<path d="M35.9696 8.87659C46.7268 7.33673 56.6639 10.0531 63.1451 15.8319C66.6547 18.9635 69.1019 22.9603 69.5188 27.7355C69.9356 32.5108 68.2279 37.1131 65.3234 41.1444C59.9852 48.6015 50.7339 54.0516 39.9901 55.5914C29.2329 57.1313 19.2824 54.4149 12.8012 48.6361C9.2916 45.5045 6.84432 41.5078 6.42748 36.7325C6.01064 31.9572 7.71835 27.3549 10.6228 23.3236C15.9611 15.8838 25.2123 10.4165 35.9696 8.87659Z" stroke="#E8663D" stroke-width="1.5" stroke-linecap="round" stroke-linejoin="round"/>
<path fill-rule="evenodd" clip-rule="evenodd" d="M44.8578 14.6207C37.0184 14.1709 26.7587 14.7591 20.0354 20.7109C17.0368 23.3581 12.4516 29.3445 16.2166 33.9814C16.741 34.6216 17.3596 35.106 18.0319 35.4521C20.6674 36.8016 23.7063 36.3864 26.4494 35.9365C31.707 35.0887 37.0319 33.8257 41.7382 30.5383C44.7368 28.4448 53.8132 20.1746 44.8578 14.6034V14.6207Z" fill="#FEFC85"/>
<path fill-rule="evenodd" clip-rule="evenodd" d="M51.7021 28.2199C48.959 29.7252 45.92 31.7841 44.1182 34.9676C42.1685 38.4453 42.8677 42.0095 46.1621 43.4801C47.1437 43.9127 48.1656 44.0684 49.1876 44.103C50.6936 44.1549 52.2265 43.8262 53.6787 43.2898C57.7665 41.7672 64.4494 34.8638 58.8153 29.9674C58.1699 29.3965 57.4438 28.9812 56.7176 28.6525C55.6016 28.168 52.8854 28.2372 51.7021 28.2026V28.2199Z" fill="#FEFC85"/>
</g>
<defs>
<clipPath id="clip0_211_2380">
<rect width="76" height="74.1036" fill="white" transform="translate(0 0.260254)"/>
</clipPath>
</defs>
</svg>
