<svg width="66" height="63" viewBox="0 0 66 63" fill="none" xmlns="http://www.w3.org/2000/svg">
<g clip-path="url(#clip0_211_2341)">
<path fill-rule="evenodd" clip-rule="evenodd" d="M35.0784 0.997559C51.6584 0.997559 65.1236 14.6901 65.1236 31.5534C65.1236 48.4168 51.6584 62.1093 35.0784 62.1093C18.4985 62.1093 5.0332 48.4168 5.0332 31.5534C5.0332 14.6901 18.4985 0.997559 35.0784 0.997559Z" fill="#E8643D"/>
<path d="M35.0784 0.997559C51.6584 0.997559 65.1236 14.6901 65.1236 31.5534C65.1236 48.4168 51.6584 62.1093 35.0784 62.1093C18.4985 62.1093 5.0332 48.4168 5.0332 31.5534C5.0332 14.6901 18.4985 0.997559 35.0784 0.997559Z" stroke="black" stroke-width="1.5" stroke-linecap="round" stroke-linejoin="round"/>
<path fill-rule="evenodd" clip-rule="evenodd" d="M31.5142 0.890625C48.4139 0.890625 62.1397 14.5832 62.1397 31.4465C62.1397 48.3098 48.4139 62.0024 31.5142 62.0024C14.6145 62.0024 0.888672 48.3098 0.888672 31.4465C0.888672 14.5832 14.6145 0.890625 31.5142 0.890625Z" fill="#FDE048"/>
<path d="M31.5142 0.890625C48.4139 0.890625 62.1397 14.5832 62.1397 31.4465C62.1397 48.3099 48.4139 62.0024 31.5142 62.0024C14.6145 62.0024 0.888672 48.3099 0.888672 31.4465C0.888672 14.5832 14.6145 0.890625 31.5142 0.890625Z" stroke="black" stroke-width="1.5" stroke-linecap="round" stroke-linejoin="round"/>
<path d="M31.5141 5.85474C45.6781 5.85474 57.1893 17.3147 57.1893 31.4466C57.1893 45.5786 45.6781 57.0385 31.5141 57.0385C17.3501 57.0385 5.83887 45.5786 5.83887 31.4466C5.83887 17.3147 17.3501 5.85474 31.5141 5.85474Z" stroke="#E8643D" stroke-width="1.5" stroke-linecap="round" stroke-linejoin="round"/>
<path fill-rule="evenodd" clip-rule="evenodd" d="M24.917 11.0444C18.9127 12.8733 13.3584 17.4216 11.3452 23.7394C10.0661 27.7534 10.0898 34.3443 15.3954 35.2113C16.106 35.33 16.8402 35.235 17.5271 35.0806C21.9563 34.0593 23.5551 29.321 26.8 26.7202C29.3699 24.6539 32.3069 23.2644 34.2492 20.3074C37.956 14.6427 29.6186 10.3556 24.917 11.0444Z" fill="#FEFC85"/>
<path fill-rule="evenodd" clip-rule="evenodd" d="M30.614 27.397C27.9493 29.3327 24.9768 32.2422 24.6452 35.7574C24.2425 39.9614 29.6784 41.909 32.9352 40.1514C35.6116 38.7144 38.0039 35.9949 38.371 32.8835C38.7618 29.5346 33.6102 25.2238 30.614 27.397Z" fill="#FEFC85"/>
</g>
<defs>
<clipPath id="clip0_211_2341">
<rect width="66" height="63" fill="white"/>
</clipPath>
</defs>
</svg>
