<svg width="70" height="70" viewBox="0 0 70 70" fill="none" xmlns="http://www.w3.org/2000/svg">
<g clip-path="url(#clip0_211_2677)">
<path fill-rule="evenodd" clip-rule="evenodd" d="M55.4167 70H14.5833C6.53333 70 0 63.4667 0 55.4167V14.5833C0 6.53333 6.53333 0 14.5833 0H55.4167C63.4667 0 70 6.53333 70 14.5833V55.4167C70 63.4667 63.4667 70 55.4167 70ZM45.8208 55.7375L44.5958 51.4208L47.5708 54.1917L50.4 56.8167L55.4167 61.25V19.3958C55.4167 16.7417 53.2583 14.5833 50.6333 14.5833H19.3667C16.7417 14.5833 14.5833 16.7417 14.5833 19.3958V50.9542C14.5833 53.6083 16.7417 55.7667 19.3667 55.7667H45.8208V55.7375ZM41.6208 45.0625C46.7833 44.8875 48.7667 41.5042 48.7667 41.5042C48.7667 33.9792 45.4125 27.9125 45.4125 27.9125C42.0583 25.4042 38.85 25.4625 38.85 25.4625L38.5292 25.8417C42.4958 27.0667 44.3333 28.8167 44.3333 28.8167C41.9125 27.475 39.5208 26.8333 37.3042 26.5708C35.6125 26.3958 34.0083 26.425 32.5792 26.6292L32.1708 26.6875C31.3542 26.7458 29.3708 27.0667 26.8625 28.1458L25.4917 28.8167C25.4917 28.8167 27.4167 26.9792 31.6167 25.7542L31.3833 25.4625C31.3833 25.4625 28.175 25.4042 24.8208 27.9125C24.8208 27.9125 21.4667 34.0083 21.4667 41.5042C21.4667 41.5042 23.4208 44.8875 28.5833 45.0625L30.1583 43.1375C27.1833 42.2625 26.075 40.3958 26.075 40.3958L26.7167 40.8042L26.8042 40.8625L26.8917 40.9208L26.9792 40.9792C27.5625 41.3 28.1458 41.5625 28.6708 41.7667C29.6333 42.1458 30.7708 42.525 32.1125 42.7583C33.8625 43.0792 35.9042 43.1958 38.15 42.7583C39.2583 42.5833 40.3667 42.2333 41.5333 41.7667C42.35 41.475 43.2542 41.0083 44.2167 40.3958C44.2167 40.3958 43.05 42.3208 39.9875 43.1667L41.5333 45.0625H41.6208ZM30.7708 34.1542C29.4292 34.1542 28.3792 35.3208 28.3792 36.75C28.3792 38.1792 29.4583 39.3458 30.7708 39.3458C32.0833 39.3458 33.1625 38.1792 33.1625 36.75C33.1625 35.3208 32.1125 34.1542 30.7708 34.1542ZM39.2875 34.1542C37.9458 34.1542 36.8958 35.3208 36.8958 36.75C36.8958 38.1792 37.975 39.3458 39.2875 39.3458C40.6 39.3458 41.6792 38.1792 41.6792 36.75C41.6792 35.3208 40.6292 34.1542 39.2875 34.1542Z" fill="black"/>
</g>
<defs>
<clipPath id="clip0_211_2677">
<rect width="70" height="70" fill="white"/>
</clipPath>
</defs>
</svg>
