<svg width="70" height="70" viewBox="0 0 70 70" fill="none" xmlns="http://www.w3.org/2000/svg">
<g clip-path="url(#clip0_211_2673)">
<path d="M55.4167 0H14.5833C6.53333 0 0 6.53333 0 14.5833V55.4167C0 63.4667 6.53333 70 14.5833 70H55.4167C63.4667 70 70 63.4667 70 55.4167V14.5833C70 6.53333 63.4667 0 55.4167 0ZM46.6667 20.4167H41.0667C39.2875 20.4167 37.9167 21.1458 37.9167 23.0125V26.25H46.6667L45.9667 35H37.9167V58.3333H29.1667V35H23.3333V26.25H29.1667V20.65C29.1667 14.7583 32.2583 11.6667 39.2583 11.6667H46.6667V20.4167Z" fill="black"/>
</g>
<defs>
<clipPath id="clip0_211_2673">
<rect width="70" height="70" fill="white"/>
</clipPath>
</defs>
</svg>
