<svg width="70" height="70" viewBox="0 0 70 70" fill="none" xmlns="http://www.w3.org/2000/svg">
<g clip-path="url(#clip0_211_2671)">
<path d="M44.4208 16.0125C41.9708 15.8958 41.2125 15.8667 35 15.8667C28.7875 15.8667 28.0292 15.8667 25.5792 16.0125C19.25 16.3042 16.3042 19.3083 16.0125 25.5792C15.8958 28.0292 15.8667 28.7875 15.8667 35C15.8667 41.2125 15.8667 41.9708 16.0125 44.4208C16.3042 50.6917 19.25 53.6958 25.5792 53.9875C28.0292 54.1042 28.7875 54.1333 35 54.1333C41.2125 54.1333 41.9708 54.1333 44.4208 53.9875C50.75 53.6958 53.6958 50.6917 53.9875 44.4208C54.1042 41.9708 54.1333 41.2125 54.1333 35C54.1333 28.7875 54.1333 28.0292 53.9875 25.5792C53.6958 19.3083 50.75 16.3042 44.4208 16.0125ZM35 46.9875C28.3792 46.9875 23.0125 41.6208 23.0125 35C23.0125 28.3792 28.3792 23.0125 35 23.0125C41.6208 23.0125 46.9875 28.3792 46.9875 35C46.9875 41.6208 41.6208 46.9875 35 46.9875ZM47.4542 25.3458C45.9083 25.3458 44.6542 24.0917 44.6542 22.5458C44.6542 21 45.9083 19.7458 47.4542 19.7458C49 19.7458 50.2542 21 50.2542 22.5458C50.2542 24.0917 49 25.3458 47.4542 25.3458ZM42.7875 35C42.7875 39.2875 39.3167 42.7875 35 42.7875C30.6833 42.7875 27.2125 39.3167 27.2125 35C27.2125 30.6833 30.6833 27.2125 35 27.2125C39.3167 27.2125 42.7875 30.6833 42.7875 35ZM55.4167 0H14.5833C6.53333 0 0 6.53333 0 14.5833V55.4167C0 63.4667 6.53333 70 14.5833 70H55.4167C63.4667 70 70 63.4667 70 55.4167V14.5833C70 6.53333 63.4667 0 55.4167 0ZM58.1875 44.625C57.8083 53.1125 53.0833 57.8083 44.625 58.1875C42.1458 58.3042 41.3292 58.3333 35 58.3333C28.6708 58.3333 27.8833 58.3333 25.375 58.1875C16.8875 57.8083 12.1917 53.0833 11.8125 44.625C11.6958 42.1458 11.6667 41.3583 11.6667 35C11.6667 28.6417 11.6667 27.8833 11.8125 25.375C12.1917 16.8875 16.9167 12.1917 25.375 11.8125C27.8542 11.6958 28.6417 11.6667 35 11.6667C41.3583 11.6667 42.1167 11.6667 44.625 11.8125C53.1125 12.1917 57.8083 16.9167 58.1875 25.375C58.3042 27.8542 58.3333 28.6708 58.3333 35C58.3333 41.3292 58.3333 42.1167 58.1875 44.625Z" fill="black"/>
</g>
<defs>
<clipPath id="clip0_211_2671">
<rect width="70" height="70" fill="white"/>
</clipPath>
</defs>
</svg>
