<svg width="70" height="70" viewBox="0 0 70 70" fill="none" xmlns="http://www.w3.org/2000/svg">
<g clip-path="url(#clip0_211_2679)">
<path d="M55.4167 0H14.5833C6.53333 0 0 6.53333 0 14.5833V55.4167C0 63.4667 6.53333 70 14.5833 70H55.4167C63.4667 70 70 63.4667 70 55.4167V14.5833C70 6.53333 63.4667 0 55.4167 0ZM23.3333 55.4167H14.5833V23.3333H23.3333V55.4167ZM18.9583 19.6292C16.1292 19.6292 13.8542 17.325 13.8542 14.4958C13.8542 11.6667 16.1292 9.3625 18.9583 9.3625C21.7875 9.3625 24.0625 11.6667 24.0625 14.4958C24.0625 17.325 21.7875 19.6292 18.9583 19.6292ZM58.3333 55.4167H49.5833V39.0833C49.5833 29.2542 37.9167 30.0125 37.9167 39.0833V55.4167H29.1667V23.3333H37.9167V28.4958C42 20.9417 58.3333 20.3875 58.3333 35.7292V55.4458V55.4167Z" fill="black"/>
</g>
<defs>
<clipPath id="clip0_211_2679">
<rect width="70" height="70" fill="white"/>
</clipPath>
</defs>
</svg>
