<svg width="24" height="25" viewBox="0 0 24 25" fill="none" xmlns="http://www.w3.org/2000/svg">
<g clip-path="url(#clip0_1104_903)">
<path d="M12 0.969727C8.82911 0.978976 5.79152 2.24628 3.55427 4.49334C1.31702 6.7404 0.0630149 9.78351 0.0676397 12.9544C0.0722645 16.1253 1.33514 19.1647 3.57893 21.4053C5.82273 23.6458 8.86401 24.9042 12.0349 24.9042C15.2058 24.9042 18.2471 23.6458 20.4909 21.4053C22.7347 19.1647 23.9975 16.1253 24.0022 12.9544C24.0068 9.78351 22.7528 6.7404 20.5155 4.49334C18.2783 2.24628 15.2407 0.978976 12.0698 0.969727L12 0.969727Z" fill="#345D9D"/>
<path d="M12.2182 13.2379L11.1611 16.7877H16.7858C16.823 16.7858 16.8601 16.7917 16.8949 16.8051C16.9296 16.8182 16.9615 16.8378 16.9887 16.8629C17.0157 16.8887 17.0376 16.9195 17.0531 16.9535C17.0694 16.9876 17.0784 17.0248 17.0792 17.0626V17.1553L16.5894 18.8429C16.5685 18.923 16.5202 18.9932 16.4531 19.0415C16.3865 19.0903 16.3053 19.1149 16.2229 19.1113H7.61561L9.05779 14.2022L7.44434 14.6909L7.81088 13.5662L9.42434 13.0764L11.4545 6.17095C11.4765 6.09139 11.525 6.02173 11.592 5.97349C11.6582 5.92468 11.7388 5.89934 11.8211 5.90149H14.0029C14.0401 5.90054 14.0772 5.90684 14.112 5.92004C14.1471 5.93281 14.1794 5.95247 14.2069 5.97786C14.2344 6.00322 14.2563 6.03406 14.2712 6.0684C14.2869 6.1027 14.2954 6.13981 14.2963 6.17749V6.27131L12.5847 12.0913L14.1992 11.6015L13.8545 12.7731L12.2182 13.2379Z" fill="white"/>
</g>
<defs>
<clipPath id="clip0_1104_903">
<rect width="24" height="24" fill="white" transform="translate(0 0.969727)"/>
</clipPath>
</defs>
</svg>
