<svg width="41" height="35" viewBox="0 0 41 35" fill="none" xmlns="http://www.w3.org/2000/svg">
<g clip-path="url(#clip0_211_2859)">
<path d="M6.85093 28.7121V34.6608C6.85093 34.6608 8.62638 34.6608 8.64504 34.6608L32.3449 34.1865L34.0831 34.28L34.6155 24.382L33.7761 24.3361L33.9457 21.1892L33.2132 21.1501V17.9284H32.3992V15.4071H32.7163V14.5911H33.5303V13.775H34.3442V12.959H35.1582V12.1429H35.9722V11.3269H36.7861V10.5703H37.6001V8.88383H38.431V7.09363H39.5146V5.38332H40.6643V2.63936H35.5397V3.79203H34.39V4.60808H32.5772V5.56863H30.8951V6.38468H29.2129V7.20073H27.5849V8.01678H25.9028V8.85663H25.0888V9.67268H12.8522V7.91817H12.0382V7.10213H11.2243V6.28608H10.4459V5.47003H9.72693V4.65398H8.91297V3.83793H8.099V3.02188H6.33033V2.06472H4.7024V1.18067H3.07448V0.34082H0.337524V5.22181H1.15318V6.87771H1.96715V8.45031H2.78111V10.2048H3.59507V11.0209H4.40904V11.8369H5.223V12.653H6.03696V13.469H6.85093V14.2851H7.66489V15.1011V16.4952H6.85093V19.8189H6.03696V26.5632H6.85093V28.2242H7.66489V28.7121H6.85093Z" fill="white"/>
<path d="M39.6994 3.60323H36.4978V4.75589H35.3481V5.57194H33.5353V6.5325H31.8531V7.34855H31.865L31.8531 7.35535V7.34855H30.1709V8.1646H28.543V8.96195L28.4904 8.98065H26.8591V9.7967H26.8828L26.8591 9.8205H26.0451V10.6365H26.0553L26.0451 10.6467V10.6365H25.2312V11.4526H25.2498L25.2312 11.4713V11.4526H23.454V11.4662L23.4371 11.4526H23.454V10.6365H14.4801V11.4526H12.7029V11.5682L12.5418 11.4526H12.7029V10.6365H11.9025L11.889 10.5634V8.88204H11.075V9.01635L10.9495 8.88204H11.075V8.06599H10.261V8.1442L10.1864 8.06599H10.261V7.24994H9.48268V6.4339H8.76368V5.61785H7.94972V5.67225L7.89885 5.61785H7.94972V4.8018H7.13576V3.98575H5.36708V3.02859H3.73916V2.14454H2.11462V1.30469H1.30066V4.25777H2.11462V5.91366H2.92859V7.48626H3.72389L3.74255 7.53386V9.24076H4.53955L4.55651 9.25776V10.0568H5.37047V10.05L5.37726 10.0568H5.37047V10.8729H6.18444V10.844L6.21326 10.8729H6.18444V11.6889H6.9984V11.6379L7.05097 11.6889H6.9984V12.505H7.81236V12.4319L7.88698 12.505H7.81236V13.321H8.62633V13.2258L8.72468 13.321H8.62633V14.1371H9.44029V14.0181L9.56238 14.1371H9.44029V14.9378H8.62633V17.4591H7.81236V20.7828H6.9984V25.5991H7.81236V27.2601H8.62633V29.676H7.81236V33.6984H8.62633L32.3618 33.2224L33.1741 33.2666L33.6031 25.2931L32.7909 25.2489L32.7841 25.373L32.7637 25.2608L32.9333 22.102L32.1566 22.0595L32.2516 22.0578V18.8939H31.4376V18.9789L31.4173 18.8939H31.4376V16.0786H30.6237V16.0837L30.6186 16.0786H30.6237V15.2625H29.8097V14.4465H31.7547V13.6304H31.7429L31.7547 13.6185V13.6304H32.5687V12.8144H32.5602L32.5687 12.8059V12.8144H33.3827V11.9983H33.3759L33.3827 11.9915V11.9983H34.1966V11.1823H34.1932L34.1966 11.1789V11.1823H35.0106V10.3662H35.8246V9.60969H36.6385V7.92318H37.4694V6.13298H38.553V4.42267H39.7028V3.60663L39.6994 3.60323ZM30.3422 8.1629L30.2252 8.2258V8.1629H30.3422ZM9.44877 7.27205L9.42672 7.24824H9.44877V7.27205ZM8.67042 6.4322V6.439L8.66363 6.4322H8.67042Z" fill="white"/>
<path d="M6.85093 28.7121V34.6608C6.85093 34.6608 8.62638 34.6608 8.64504 34.6608L32.3449 34.1865L34.0831 34.28L34.6155 24.382L33.7761 24.3361L33.9457 21.1892L33.2132 21.1501V17.9284H32.3992V15.4071H32.7163V14.5911H33.5303V13.775H34.3442V12.959H35.1582V12.1429H35.9722V11.3269H36.7861V10.5703H37.6001V8.88383H38.431V7.09363H39.5146V5.38332H40.6643V2.63936H35.5397V3.79203H34.39V4.60808H32.5772V5.56863H30.8951V6.38468H29.2129V7.20073H27.5849V8.01678H25.9028V8.85663H25.0888V9.67268H12.8522V7.91817H12.0382V7.10213H11.2243V6.28608H10.4459V5.47003H9.72693V4.65398H8.91297V3.83793H8.099V3.02188H6.33033V2.06472H4.7024V1.18067H3.07448V0.34082H0.337524V5.22181H1.15318V6.87771H1.96715V8.45031H2.78111V10.2048H3.59507V11.0209H4.40904V11.8369H5.223V12.653H6.03696V13.469H6.85093V14.2851H7.66489V15.1011V16.4952H6.85093V19.8189H6.03696V26.5632H6.85093V28.2242H7.66489V28.7121H6.85093Z" stroke="black" stroke-width="1.54303" stroke-miterlimit="10"/>
<path d="M31.8531 7.34855V6.5325H33.5353V5.57194H35.3481V4.75589H36.4978V3.60323H39.6994L39.7028 3.60663V4.42267H38.553V6.13298H37.4694V7.92318H36.6385V9.60969H35.8246V10.3662H35.0106V11.1823H34.1966M31.8531 7.34855H31.865L31.8531 7.35535V7.34855ZM31.8531 7.34855H30.1709V8.1646H28.543V8.96195L28.4904 8.98065H26.8591V9.7967H26.8828L26.8591 9.8205H26.0451V10.6365M26.0451 10.6365H26.0553L26.0451 10.6467V10.6365ZM26.0451 10.6365H25.2312V11.4526M25.2312 11.4526H25.2498L25.2312 11.4713V11.4526ZM25.2312 11.4526H23.454M23.454 11.4526V11.4662L23.4371 11.4526H23.454ZM23.454 11.4526V10.6365H14.4801V11.4526H12.7029M12.7029 11.4526V11.5682L12.5418 11.4526H12.7029ZM12.7029 11.4526V10.6365H11.9025L11.889 10.5634V8.88204H11.075M11.075 8.88204V9.01635L10.9495 8.88204H11.075ZM11.075 8.88204V8.06599H10.261M10.261 8.06599V8.1442L10.1864 8.06599H10.261ZM10.261 8.06599V7.24994H9.48268V6.4339H8.76368V5.61785H7.94972M7.94972 5.61785V5.67225L7.89885 5.61785H7.94972ZM7.94972 5.61785V4.8018H7.13576V3.98575H5.36708V3.02859H3.73916V2.14454H2.11462V1.30469H1.30066V4.25776H2.11462V5.91366H2.92859V7.48626H3.72389L3.74255 7.53386V9.24076H4.53955L4.55651 9.25776V10.0568H5.37047M5.37047 10.0568V10.05L5.37726 10.0568H5.37047ZM5.37047 10.0568V10.8729H6.18444M6.18444 10.8729V10.844L6.21327 10.8729H6.18444ZM6.18444 10.8729V11.6889H6.9984M6.9984 11.6889V11.6379L7.05097 11.6889H6.9984ZM6.9984 11.6889V12.505H7.81236M7.81236 12.505V12.4319L7.88698 12.505H7.81236ZM7.81236 12.505V13.321H8.62633M8.62633 13.321V13.2258L8.72468 13.321H8.62633ZM8.62633 13.321V14.1371H9.44029M9.44029 14.1371V14.0181L9.56238 14.1371H9.44029ZM9.44029 14.1371V14.9378H8.62633V17.4591H7.81236V20.7828H6.9984V25.5991H7.81236V27.2601H8.62633V29.676H7.81236V33.6984H8.62633L32.3618 33.2224L33.1741 33.2666L33.6031 25.2931L32.7909 25.2489L32.7841 25.373L32.7637 25.2608L32.9333 22.102L32.1566 22.0595L32.2516 22.0578V18.8939H31.4376M31.4376 18.8939V18.9789L31.4173 18.8939H31.4376ZM31.4376 18.8939V16.0786H30.6237M30.6237 16.0786V16.0837L30.6186 16.0786H30.6237ZM30.6237 16.0786V15.2625H29.8097V14.4465H31.7547V13.6304M31.7547 13.6304H31.7429L31.7547 13.6185V13.6304ZM31.7547 13.6304H32.5687V12.8144M32.5687 12.8144H32.5602L32.5687 12.8059V12.8144ZM32.5687 12.8144H33.3827V11.9983M33.3827 11.9983H33.3759L33.3827 11.9915V11.9983ZM33.3827 11.9983H34.1966V11.1823M34.1966 11.1823H34.1932L34.1966 11.1789V11.1823ZM30.3422 8.1629L30.2252 8.2258V8.1629H30.3422ZM9.44877 7.27205L9.42672 7.24824H9.44877V7.27205ZM8.67042 6.4322V6.439L8.66363 6.4322H8.67042Z" stroke="white" stroke-width="1.54303" stroke-miterlimit="10"/>
<path d="M32.1805 33.0315L8.81918 33.5V29.676V27.2585V27.2137L8.79947 27.1735L8.00522 25.5544V20.8342L8.71386 19.6004L8.73749 19.5592L8.73934 19.5118L8.818 17.4933L9.61366 15.0437L10.001 14.5324L10.1038 14.3967L9.98189 14.2778L4.49704 8.93109L3.79127 7.13191V4.8976L6.2856 4.46114L7.01338 4.94808L10.9781 9.19137L11.6477 10.2928L11.7872 11.0783L11.8009 11.1555L11.8646 11.2013L13.0008 12.0173L13.0777 12.0726L13.1684 12.0455L14.5207 11.6423L15.9794 11.4737L23.079 11.393L23.629 11.8733L23.6871 11.9241L23.7641 11.9208L24.5128 11.8886L24.5154 11.8885L25.0317 11.8733L25.109 11.871L25.1633 11.8159L27.3277 9.62075L29.6501 8.75161L29.6621 8.7471L29.6735 8.74101L32.0967 7.44363L35.871 6.3876L35.7431 8.91611L34.8591 10.2399L31.4554 13.6406L29.7422 14.2618L29.7018 14.2765L29.6714 14.3069L29.2645 14.7149L29.1288 14.8509L29.2642 14.9871L30.6064 16.3377L31.421 19.74L31.4213 19.7413L32.061 22.5035L32.6443 25.6753L32.1805 33.0315Z" fill="#FFD800" stroke="black" stroke-width="0.385757"/>
<path d="M8.62622 29.6763H7.81226V33.6987H8.62622V29.6763Z" fill="black"/>
<path d="M9.44031 27.2588H8.62634V29.6746H9.44031V27.2588Z" fill="black"/>
<path d="M8.62622 25.5991H7.81226V27.2601H8.62622V25.5991Z" fill="black"/>
<path d="M7.81225 20.7827H6.99829V25.5991H7.81225V20.7827Z" fill="black"/>
<path d="M8.62622 17.459H7.81226V20.7827H8.62622V17.459Z" fill="black"/>
<path d="M9.44031 14.938H8.62634V17.4592H9.44031V14.938Z" fill="black"/>
<path d="M10.2543 14.1372H9.44031V14.9533H10.2543V14.1372Z" fill="black"/>
<path d="M9.44031 13.3213H8.62634V14.1373H9.44031V13.3213Z" fill="black"/>
<path d="M8.62622 12.5049H7.81226V13.3209H8.62622V12.5049Z" fill="black"/>
<path d="M7.81225 11.689H6.99829V12.505H7.81225V11.689Z" fill="black"/>
<path d="M6.99829 10.873H6.18433V11.6891H6.99829V10.873Z" fill="black"/>
<path d="M6.18432 10.0566H5.37036V10.8727H6.18432V10.0566Z" fill="black"/>
<path d="M5.37036 9.24072H4.5564V10.0568H5.37036V9.24072Z" fill="black"/>
<path d="M7.953 4.80029H7.13904V5.61634H7.953V4.80029Z" fill="black"/>
<path d="M8.76709 5.61621H7.95312V6.43226H8.76709V5.61621Z" fill="black"/>
<path d="M9.48608 6.43213H8.67212V7.24818H9.48608V6.43213Z" fill="black"/>
<path d="M10.2644 7.24854H9.45044V8.06458H10.2644V7.24854Z" fill="black"/>
<path d="M11.0784 8.06445H10.2644V8.8805H11.0784V8.06445Z" fill="black"/>
<path d="M12.7063 10.6367H11.8923V11.4528H12.7063V10.6367Z" fill="black"/>
<path d="M26.0468 10.6367H25.2328V11.4528H26.0468V10.6367Z" fill="black"/>
<path d="M26.8607 9.8208H26.0468V10.6369H26.8607V9.8208Z" fill="black"/>
<path d="M35.0088 10.3628H34.1948V11.1788H35.0088V10.3628Z" fill="black"/>
<path d="M34.1948 11.1792H33.3809V11.9952H34.1948V11.1792Z" fill="black"/>
<path d="M33.381 11.9951H32.567V12.8112H33.381V11.9951Z" fill="black"/>
<path d="M32.567 12.811H31.7531V13.6271H32.567V12.811Z" fill="black"/>
<path d="M29.808 14.4434H28.994V15.2594H29.808V14.4434Z" fill="black"/>
<path d="M30.6219 15.2593H29.808V16.0753H30.6219V15.2593Z" fill="black"/>
<path d="M28.5429 8.979H26.8607V9.79505H28.5429V8.979Z" fill="black"/>
<path d="M30.2252 8.16309H28.543V8.97914H30.2252V8.16309Z" fill="black"/>
<path d="M31.753 13.627H29.808V14.443H31.753V13.627Z" fill="black"/>
<path d="M31.8531 7.34717H30.1709V8.16322H31.8531V7.34717Z" fill="black"/>
<path d="M33.5369 6.53076H31.8547V7.34681H33.5369V6.53076Z" fill="black"/>
<path d="M35.8228 10.3628V8.67627H35.0088V10.3628H35.8228Z" fill="black"/>
<path d="M31.4359 18.8906V16.0752H30.622V18.8906H31.4359Z" fill="black"/>
<path d="M32.2516 22.056V18.8921H31.4376V22.056H32.2516Z" fill="black"/>
<path d="M32.7651 25.2614L32.9347 22.1021L32.1219 22.0582L31.9523 25.2175L32.7651 25.2614Z" fill="black"/>
<path d="M33.1779 33.2683L33.6058 25.2944L32.793 25.2506L32.3651 33.2244L33.1779 33.2683Z" fill="black"/>
<path d="M36.6368 9.60642V7.91992H35.8229V9.60642H36.6368Z" fill="black"/>
<path d="M36.6385 7.91992H34.2848V8.73597H36.6385V7.91992Z" fill="black"/>
<path d="M38.5513 4.75586H35.3497V5.57191H38.5513V4.75586Z" fill="black"/>
<path d="M39.6993 3.60352H36.4977V4.41956H39.6993V3.60352Z" fill="black"/>
<path d="M38.5495 4.01123H36.4977V6.12956H38.5495V4.01123Z" fill="black"/>
<path d="M37.4677 5.57227H33.537V7.92011H37.4677V5.57227Z" fill="black"/>
<path d="M4.55652 7.48633H3.74255V9.24083H4.55652V7.48633Z" fill="black"/>
<path d="M11.8923 8.88037H11.0784V10.6349H11.8923V8.88037Z" fill="black"/>
<path d="M3.74255 2.14453H2.92859V7.48795H3.74255V2.14453Z" fill="black"/>
<path d="M2.92859 2.14453H2.11462V5.91536H2.92859V2.14453Z" fill="black"/>
<path d="M2.11462 1.30469H1.30066V4.25776H2.11462V1.30469Z" fill="black"/>
<path d="M4.55652 3.02686H3.74255V6.58687H4.55652V3.02686Z" fill="black"/>
<path d="M5.37036 3.02686H4.5564V5.75722H5.37036V3.02686Z" fill="black"/>
<path d="M7.13904 4.80189V3.98584H4.41565V4.80189H7.13904Z" fill="black"/>
<path d="M14.4817 12.2672V11.4512H12.7045V12.2672H14.4817Z" fill="black"/>
<path d="M25.2311 12.2687V11.4526H23.4539V12.2687H25.2311Z" fill="black"/>
<path d="M23.4557 11.4508V10.6348H14.4817V11.4508H23.4557Z" fill="black"/>
<path d="M14.3563 15.6724H12.7063V19.0811H14.3563V15.6724Z" fill="black"/>
<path d="M15.2296 18.204V16.5498H11.8296V18.204H15.2296Z" fill="black"/>
<path d="M13.5203 16.5596H12.7063V17.3756H13.5203V16.5596Z" fill="white"/>
<path d="M25.8619 15.5757H24.2119V18.9844H25.8619V15.5757Z" fill="black"/>
<path d="M26.7386 18.1073V16.4531H23.3387V18.1073H26.7386Z" fill="black"/>
<path d="M25.0259 16.4648H24.2119V17.2809H25.0259V16.4648Z" fill="white"/>
<path d="M19.2383 18.9844H16.7489V19.8089H19.2383V18.9844Z" fill="black"/>
<path d="M11.9058 19.8853H10.2151V20.7098H11.9058V19.8853Z" fill="#C91900"/>
<path d="M11.9058 24.0146H10.2151V24.8392H11.9058V24.0146Z" fill="#C91900"/>
<path d="M9.44019 23.2277V21.5327H8.61775V23.2277H9.44019Z" fill="#C91900"/>
<path d="M13.5049 23.2277V21.5327H12.6824V23.2277H13.5049Z" fill="#C91900"/>
<path d="M12.6825 20.708H9.44019V24.0147H12.6825V20.708Z" fill="#F26427"/>
<path d="M10.2151 20.708H9.44019V21.5326H10.2151V20.708Z" fill="#C91900"/>
<path d="M12.6824 20.708H11.9075V21.5326H12.6824V20.708Z" fill="#C91900"/>
<path d="M10.2151 23.1904H9.44019V24.015H10.2151V23.1904Z" fill="#C91900"/>
<path d="M12.6824 23.1904H11.9075V24.015H12.6824V23.1904Z" fill="#C91900"/>
<path d="M28.9279 19.5791H27.2372V20.4037H28.9279V19.5791Z" fill="#C91900"/>
<path d="M28.9279 23.709H27.2372V24.5335H28.9279V23.709Z" fill="#C91900"/>
<path d="M26.4604 22.9216V21.2266H25.638V22.9216H26.4604Z" fill="#C91900"/>
<path d="M30.5253 22.9216V21.2266H29.7028V22.9216H30.5253Z" fill="#C91900"/>
<path d="M29.7027 20.4038H26.4604V23.7105H29.7027V20.4038Z" fill="#F26427"/>
<path d="M27.2354 20.4038H26.4604V21.2284H27.2354V20.4038Z" fill="#C91900"/>
<path d="M29.7027 20.4038H28.9277V21.2284H29.7027V20.4038Z" fill="#C91900"/>
<path d="M27.2354 22.8857H26.4604V23.7103H27.2354V22.8857Z" fill="#C91900"/>
<path d="M29.7027 22.8857H28.9277V23.7103H29.7027V22.8857Z" fill="#C91900"/>
<path d="M20.8511 23.0796H16.749V26.2605H20.8511V23.0796Z" fill="#FF9771"/>
<path d="M20.8511 22.2637H16.749V23.0797H20.8511V22.2637Z" fill="#650000"/>
<path d="M16.7506 25.5277V23.0796H15.9366V25.5277H16.7506Z" fill="#650000"/>
<path d="M21.6649 26.2605V23.0796H20.851V26.2605H21.6649Z" fill="#650000"/>
<path d="M17.4816 26.2606V25.5278H16.7507V26.2606H17.4816Z" fill="#650000"/>
<path d="M20.851 26.2607H17.4799V27.0768H20.851V26.2607Z" fill="#650000"/>
</g>
<defs>
<clipPath id="clip0_211_2859">
<rect width="41" height="35" fill="white" transform="translate(0 0.000488281)"/>
</clipPath>
</defs>
</svg>
