<svg width="24" height="25" viewBox="0 0 24 25" fill="none" xmlns="http://www.w3.org/2000/svg">
<g clip-path="url(#clip0_1104_780)">
<path d="M12.2502 1.22461C18.8806 1.22461 24.2549 6.59884 24.2549 13.2293C24.2549 19.8597 18.8806 25.2292 12.2549 25.2292C5.62442 25.2292 0.254886 19.855 0.254886 13.2293C0.250163 6.59884 5.62442 1.22461 12.2502 1.22461Z" fill="#8247E5"/>
<mask id="mask0_1104_780" style="mask-type:luminance" maskUnits="userSpaceOnUse" x="3" y="5" width="17" height="15">
<path d="M19.6068 5.75146H3.87598V19.5365H19.6068V5.75146Z" fill="white"/>
</mask>
<g mask="url(#mask0_1104_780)">
<path d="M15.7579 9.94953C15.4699 9.78424 15.1015 9.78424 14.7757 9.94953L12.4805 11.3096L10.9221 12.1738L8.6694 13.5292C8.38133 13.6945 8.01297 13.6945 7.68711 13.5292L5.9256 12.4572C5.63753 12.2919 5.43446 11.9613 5.43446 11.593V9.53394C5.43446 9.20337 5.59974 8.87751 5.9256 8.66972L7.68711 7.64021C7.97519 7.47492 8.34355 7.47492 8.6694 7.64021L10.4309 8.71222C10.719 8.87751 10.9221 9.20809 10.9221 9.57645V10.9365L12.4805 10.0298V8.63194C12.4805 8.30137 12.3152 7.97551 11.9894 7.76772L8.7119 5.83149C8.42383 5.6662 8.05547 5.6662 7.72961 5.83149L4.37188 7.81022C4.04603 7.97551 3.88074 8.30609 3.88074 8.63194V12.4997C3.88074 12.8303 4.04603 13.1561 4.37188 13.3639L7.69183 15.3001C7.97991 15.4654 8.34827 15.4654 8.67412 15.3001L10.9268 13.9826L12.4852 13.0758L14.7379 11.7583C15.026 11.593 15.3943 11.593 15.7202 11.7583L17.4817 12.7878C17.7698 12.9531 17.9728 13.2836 17.9728 13.652V15.711C17.9728 16.0416 17.8075 16.3674 17.4817 16.5752L15.7627 17.6047C15.4746 17.77 15.1062 17.77 14.7804 17.6047L13.0141 16.5752C12.7261 16.4099 12.523 16.0794 12.523 15.711V14.3934L10.9646 15.3001V16.6602C10.9646 16.9908 11.1299 17.3167 11.4557 17.5245L14.7757 19.4607C15.0637 19.626 15.4321 19.626 15.7579 19.4607L19.0779 17.5245C19.366 17.3592 19.569 17.0286 19.569 16.6602V12.75C19.569 12.4194 19.4038 12.0936 19.0779 11.8858L15.7579 9.94953Z" fill="white"/>
</g>
</g>
<defs>
<clipPath id="clip0_1104_780">
<rect width="24" height="24" fill="white" transform="translate(0 0.969727)"/>
</clipPath>
</defs>
</svg>
