<svg width="70" height="70" viewBox="0 0 70 70" fill="none" xmlns="http://www.w3.org/2000/svg">
<g clip-path="url(#clip0_211_2675)">
<path fill-rule="evenodd" clip-rule="evenodd" d="M55.4167 70H14.5833C6.53333 70 0 63.4667 0 55.4167V14.5833C0 6.53333 6.53333 0 14.5833 0H55.4167C63.4667 0 70 6.53333 70 14.5833V55.4167C70 63.4667 63.4667 70 55.4167 70ZM45.425 54.9792C46.0667 55.4167 46.8542 55.5333 47.5833 55.2708C48.3125 55.0083 48.8375 54.3958 48.9833 53.6375C50.675 45.7042 54.7875 25.6083 56.3042 18.375C56.4208 17.8208 56.2167 17.2667 55.8083 16.8875C55.3708 16.5375 54.7875 16.4208 54.2625 16.625C46.0958 19.6292 21.0125 29.05 10.7458 32.8708C10.1042 33.1042 9.66667 33.7458 9.69583 34.4167C9.69583 35.0875 10.1917 35.7 10.8333 35.9042C15.4417 37.275 21.4792 39.2 21.4792 39.2C21.4792 39.2 24.3083 47.7167 25.7667 52.0625C25.9417 52.6167 26.3792 53.025 26.9333 53.1708C27.4875 53.3167 28.1 53.1708 28.5083 52.7625C30.8708 50.5458 34.5167 47.075 34.5167 47.075C34.5167 47.075 41.4583 52.1792 45.3958 54.9792H45.425ZM24.0167 38.1208L27.2833 48.8833L28.0125 42.0583C28.0125 42.0583 40.6125 30.6833 47.8167 24.2083C48.0208 24.0333 48.05 23.7125 47.875 23.4792C47.7 23.2458 47.3792 23.2167 47.1458 23.3625C38.8042 28.6708 24.0167 38.1208 24.0167 38.1208Z" fill="black"/>
</g>
<defs>
<clipPath id="clip0_211_2675">
<rect width="70" height="70" fill="white"/>
</clipPath>
</defs>
</svg>
