<svg width="70" height="70" viewBox="0 0 70 70" fill="none" xmlns="http://www.w3.org/2000/svg">
<g clip-path="url(#clip0_211_2669)">
<path d="M55.4167 0H14.5833C6.53333 0 0 6.53333 0 14.5833V55.4167C0 63.4667 6.53333 70 14.5833 70H55.4167C63.4667 70 70 63.4667 70 55.4167V14.5833C70 6.53333 63.4667 0 55.4167 0ZM55.0083 26.95C55.6208 40.425 45.5875 55.4458 27.7958 55.4458C22.4 55.4458 17.3542 53.8708 13.125 51.1292C18.2 51.7125 23.275 50.3125 27.3 47.1625C23.1 47.075 19.5708 44.3042 18.3458 40.5125C19.8333 40.8042 21.3208 40.7167 22.6625 40.3375C18.0542 39.4042 14.875 35.2625 14.9917 30.8292C16.275 31.5583 17.7625 31.9667 19.3375 32.025C15.0792 29.1667 13.8542 23.5375 16.3625 19.25C21.0875 25.0542 28.1458 28.8458 36.1083 29.2542C34.7083 23.275 39.2583 17.5 45.4417 17.5C48.1833 17.5 50.6917 18.6667 52.4417 20.5333C54.6292 20.0958 56.6708 19.3083 58.5375 18.2C57.8083 20.4458 56.2917 22.3125 54.3375 23.5083C56.2625 23.275 58.1292 22.75 59.85 21.9917C58.5667 23.9167 56.9333 25.5792 55.0667 26.95H55.0083Z" fill="black"/>
</g>
<defs>
<clipPath id="clip0_211_2669">
<rect width="70" height="70" fill="white"/>
</clipPath>
</defs>
</svg>
