<svg width="24" height="23" viewBox="0 0 24 23" fill="none" xmlns="http://www.w3.org/2000/svg">
<path d="M12 22.9702C18.6274 22.9702 24 17.8282 24 11.4853C24 5.14242 18.6274 0.000488281 12 0.000488281C5.37258 0.000488281 0 5.14242 0 11.4853C0 17.8282 5.37258 22.9702 12 22.9702Z" fill="#26A17B"/>
<path fill-rule="evenodd" clip-rule="evenodd" d="M13.4416 12.4778V12.4763C13.3591 12.4821 12.9337 12.5065 11.9851 12.5065C11.2276 12.5065 10.6945 12.4849 10.507 12.4763V12.4786C7.591 12.356 5.4145 11.8699 5.4145 11.2885C5.4145 10.7071 7.591 10.2219 10.507 10.097V11.9948C10.6975 12.0077 11.2435 12.0388 11.998 12.0388C12.9031 12.0388 13.357 12.0029 13.4419 11.9957V10.0987C16.3519 10.223 18.523 10.7088 18.523 11.2888C18.523 11.8688 16.3516 12.3546 13.4419 12.4783M13.4419 9.90143V8.20311H17.5024V5.61328H6.4465V8.20311H10.507V9.90057C7.207 10.0456 4.7251 10.6715 4.7251 11.4209C4.7251 12.1703 7.207 12.7956 10.507 12.9412V18.3836H13.4419V12.9397C16.7365 12.7947 19.2124 12.1697 19.2124 11.4209C19.2124 10.6721 16.7365 10.047 13.4419 9.90143Z" fill="white"/>
</svg>
