<svg width="70" height="70" viewBox="0 0 70 70" fill="none" xmlns="http://www.w3.org/2000/svg">
<g clip-path="url(#clip0_211_2681)">
<path d="M29.1667 27.2125L44.7125 34.9708L29.1667 42.7583V27.2125ZM70 14.5833V55.4167C70 63.4667 63.4667 70 55.4167 70H14.5833C6.53333 70 0 63.4667 0 55.4167V14.5833C0 6.53333 6.53333 0 14.5833 0H55.4167C63.4667 0 70 6.53333 70 14.5833ZM58.3333 35C58.275 22.9833 57.4 18.375 49.8167 17.85C42.8167 17.3833 27.2125 17.3833 20.2125 17.85C12.6292 18.375 11.7542 22.9542 11.6958 35C11.7542 47.0167 12.6292 51.625 20.2125 52.15C27.2125 52.6167 42.8167 52.6167 49.8167 52.15C57.4 51.625 58.275 47.0458 58.3333 35Z" fill="black"/>
</g>
<defs>
<clipPath id="clip0_211_2681">
<rect width="70" height="70" fill="white"/>
</clipPath>
</defs>
</svg>
